G04 #@! TF.GenerationSoftware,KiCad,Pcbnew,(5.0.0)*
G04 #@! TF.CreationDate,2018-09-01T12:46:00+09:00*
G04 #@! TF.ProjectId,LED_Board,4C45445F426F6172642E6B696361645F,rev?*
G04 #@! TF.SameCoordinates,PX4c4b400PY1312d00*
G04 #@! TF.FileFunction,Paste,Top*
G04 #@! TF.FilePolarity,Positive*
%FSLAX46Y46*%
G04 Gerber Fmt 4.6, Leading zero omitted, Abs format (unit mm)*
G04 Created by KiCad (PCBNEW (5.0.0)) date 09/01/18 12:46:00*
%MOMM*%
%LPD*%
G01*
G04 APERTURE LIST*
%ADD10R,1.200000X1.500000*%
%ADD11R,1.500000X1.200000*%
%ADD12R,1.500000X2.000000*%
%ADD13R,4.300000X1.600000*%
%ADD14R,1.000000X0.900000*%
%ADD15R,3.800000X1.600000*%
%ADD16R,1.600000X4.300000*%
%ADD17R,0.900000X1.000000*%
%ADD18R,1.600000X3.800000*%
%ADD19R,1.600000X2.700000*%
%ADD20R,0.400000X1.600000*%
%ADD21R,1.700000X1.200000*%
%ADD22R,4.800000X3.800000*%
%ADD23R,1.000000X0.700000*%
%ADD24R,1.600000X3.000000*%
%ADD25R,6.000000X6.000000*%
%ADD26R,3.000000X1.600000*%
%ADD27R,0.800000X1.300000*%
%ADD28R,1.300000X0.800000*%
%ADD29R,3.300000X1.300000*%
%ADD30R,1.300000X3.300000*%
%ADD31R,1.600000X2.000000*%
%ADD32R,2.000000X2.000000*%
%ADD33R,0.700000X1.800000*%
%ADD34R,1.200000X0.600000*%
%ADD35R,0.400000X1.800000*%
%ADD36R,0.500000X1.400000*%
%ADD37R,1.400000X0.500000*%
%ADD38R,1.000000X3.100000*%
G04 APERTURE END LIST*
D10*
G04 #@! TO.C,D6*
X115800000Y-18800000D03*
X115800000Y-21800000D03*
G04 #@! TD*
G04 #@! TO.C,D7*
X118400000Y-23800000D03*
X118400000Y-26800000D03*
G04 #@! TD*
G04 #@! TO.C,D5*
X56200000Y-44800000D03*
X56200000Y-47800000D03*
G04 #@! TD*
D11*
G04 #@! TO.C,D1*
X45500000Y-37000000D03*
X42500000Y-37000000D03*
G04 #@! TD*
G04 #@! TO.C,D3*
X45500000Y-34600000D03*
X42500000Y-34600000D03*
G04 #@! TD*
G04 #@! TO.C,D2*
X25900000Y-31700000D03*
X28900000Y-31700000D03*
G04 #@! TD*
D12*
G04 #@! TO.C,D4*
X21200000Y-57400000D03*
X17000000Y-57400000D03*
G04 #@! TD*
D13*
G04 #@! TO.C,C1*
X19750000Y-82000000D03*
X13450000Y-82000000D03*
G04 #@! TD*
D14*
G04 #@! TO.C,C2*
X15100000Y-75500000D03*
X13500000Y-75500000D03*
G04 #@! TD*
D15*
G04 #@! TO.C,C3*
X94350000Y-32600000D03*
X88850000Y-32600000D03*
G04 #@! TD*
D16*
G04 #@! TO.C,C4*
X27900000Y-50150000D03*
X27900000Y-43850000D03*
G04 #@! TD*
D14*
G04 #@! TO.C,C5*
X50600000Y-33900000D03*
X49000000Y-33900000D03*
G04 #@! TD*
G04 #@! TO.C,C6*
X21300000Y-54400000D03*
X19700000Y-54400000D03*
G04 #@! TD*
D17*
G04 #@! TO.C,C7*
X85800000Y-20400000D03*
X85800000Y-22000000D03*
G04 #@! TD*
D18*
G04 #@! TO.C,C8*
X94400000Y-20350000D03*
X94400000Y-14850000D03*
G04 #@! TD*
D14*
G04 #@! TO.C,C9*
X62400000Y-42000000D03*
X64000000Y-42000000D03*
G04 #@! TD*
G04 #@! TO.C,C10*
X54600000Y-53800000D03*
X56200000Y-53800000D03*
G04 #@! TD*
G04 #@! TO.C,C11*
X54600000Y-55600000D03*
X56200000Y-55600000D03*
G04 #@! TD*
D17*
G04 #@! TO.C,C12*
X69500000Y-57800000D03*
X69500000Y-56200000D03*
G04 #@! TD*
D19*
G04 #@! TO.C,C13*
X58800000Y-16450000D03*
X58800000Y-19950000D03*
G04 #@! TD*
D17*
G04 #@! TO.C,C14*
X62000000Y-19600000D03*
X62000000Y-21200000D03*
G04 #@! TD*
D14*
G04 #@! TO.C,C15*
X60300000Y-33000000D03*
X58700000Y-33000000D03*
G04 #@! TD*
D17*
G04 #@! TO.C,C16*
X64000000Y-19600000D03*
X64000000Y-21200000D03*
G04 #@! TD*
G04 #@! TO.C,C17*
X75000000Y-56800000D03*
X75000000Y-58400000D03*
G04 #@! TD*
G04 #@! TO.C,C18*
X54000000Y-46200000D03*
X54000000Y-47800000D03*
G04 #@! TD*
G04 #@! TO.C,C19*
X49500000Y-48300000D03*
X49500000Y-49900000D03*
G04 #@! TD*
D14*
G04 #@! TO.C,C20*
X54200000Y-64800000D03*
X55800000Y-64800000D03*
G04 #@! TD*
D17*
G04 #@! TO.C,C21*
X115800000Y-26200000D03*
X115800000Y-27800000D03*
G04 #@! TD*
D14*
G04 #@! TO.C,C22*
X106200000Y-30200000D03*
X104600000Y-30200000D03*
G04 #@! TD*
D17*
G04 #@! TO.C,C23*
X108000000Y-21800000D03*
X108000000Y-20200000D03*
G04 #@! TD*
G04 #@! TO.C,C24*
X98400000Y-21800000D03*
X98400000Y-23400000D03*
G04 #@! TD*
G04 #@! TO.C,C25*
X114600000Y-31800000D03*
X114600000Y-30200000D03*
G04 #@! TD*
D20*
G04 #@! TO.C,CN2*
X61300000Y-5650000D03*
X60650000Y-5650000D03*
X60000000Y-5650000D03*
X59350000Y-5650000D03*
X58700000Y-5650000D03*
G04 #@! TD*
D21*
G04 #@! TO.C,F1*
X25000000Y-22800000D03*
X25000000Y-19800000D03*
G04 #@! TD*
D22*
G04 #@! TO.C,L1*
X10600000Y-71750000D03*
X10600000Y-61850000D03*
G04 #@! TD*
D23*
G04 #@! TO.C,OSC1*
X53400000Y-63150000D03*
X53400000Y-61250000D03*
X53400000Y-62200000D03*
X55800000Y-63150000D03*
X55800000Y-61250000D03*
G04 #@! TD*
D24*
G04 #@! TO.C,Q1*
X38100000Y-29000000D03*
X33500000Y-29000000D03*
D25*
X35800000Y-22500000D03*
G04 #@! TD*
D24*
G04 #@! TO.C,Q2*
X46500000Y-29000000D03*
X41900000Y-29000000D03*
D25*
X44200000Y-22500000D03*
G04 #@! TD*
D26*
G04 #@! TO.C,Q3*
X32800000Y-34600000D03*
X32800000Y-39200000D03*
D25*
X26300000Y-36900000D03*
G04 #@! TD*
D27*
G04 #@! TO.C,Q4*
X29800000Y-23700000D03*
X28850000Y-26200000D03*
X30750000Y-26200000D03*
G04 #@! TD*
D24*
G04 #@! TO.C,Q5*
X8700000Y-48700000D03*
X13300000Y-48700000D03*
D25*
X11000000Y-55200000D03*
G04 #@! TD*
D28*
G04 #@! TO.C,Q6*
X48100000Y-37050000D03*
X50600000Y-38000000D03*
X50600000Y-36100000D03*
G04 #@! TD*
D29*
G04 #@! TO.C,R1*
X18700000Y-36950000D03*
X18700000Y-43050000D03*
G04 #@! TD*
D14*
G04 #@! TO.C,R2*
X24300000Y-26300000D03*
X25900000Y-26300000D03*
G04 #@! TD*
D17*
G04 #@! TO.C,R3*
X36600000Y-39200000D03*
X36600000Y-37600000D03*
G04 #@! TD*
G04 #@! TO.C,R4*
X6200000Y-42200000D03*
X6200000Y-43800000D03*
G04 #@! TD*
D30*
G04 #@! TO.C,R5*
X14750000Y-43800000D03*
X8650000Y-43800000D03*
G04 #@! TD*
D14*
G04 #@! TO.C,R6*
X25900000Y-29000000D03*
X24300000Y-29000000D03*
G04 #@! TD*
D17*
G04 #@! TO.C,R7*
X39100000Y-37600000D03*
X39100000Y-39200000D03*
G04 #@! TD*
D14*
G04 #@! TO.C,R8*
X28900000Y-29000000D03*
X30500000Y-29000000D03*
G04 #@! TD*
D17*
G04 #@! TO.C,R9*
X61400000Y-62400000D03*
X61400000Y-60800000D03*
G04 #@! TD*
D14*
G04 #@! TO.C,R10*
X38200000Y-34600000D03*
X36600000Y-34600000D03*
G04 #@! TD*
D17*
G04 #@! TO.C,R11*
X23900000Y-57800000D03*
X23900000Y-56200000D03*
G04 #@! TD*
D14*
G04 #@! TO.C,R12*
X49000000Y-40400000D03*
X50600000Y-40400000D03*
G04 #@! TD*
G04 #@! TO.C,R13*
X26300000Y-56200000D03*
X27900000Y-56200000D03*
G04 #@! TD*
D17*
G04 #@! TO.C,R14*
X56600000Y-33000000D03*
X56600000Y-34600000D03*
G04 #@! TD*
D14*
G04 #@! TO.C,R15*
X63900000Y-46600000D03*
X62300000Y-46600000D03*
G04 #@! TD*
D17*
G04 #@! TO.C,R16*
X61400000Y-8800000D03*
X61400000Y-10400000D03*
G04 #@! TD*
D14*
G04 #@! TO.C,R17*
X63000000Y-12800000D03*
X61400000Y-12800000D03*
G04 #@! TD*
G04 #@! TO.C,R18*
X56200000Y-49900000D03*
X54600000Y-49900000D03*
G04 #@! TD*
D17*
G04 #@! TO.C,R19*
X72800000Y-58400000D03*
X72800000Y-56800000D03*
G04 #@! TD*
G04 #@! TO.C,R20*
X60300000Y-47700000D03*
X60300000Y-46100000D03*
G04 #@! TD*
G04 #@! TO.C,R21*
X72800000Y-53000000D03*
X72800000Y-54600000D03*
G04 #@! TD*
D14*
G04 #@! TO.C,R22*
X56200000Y-51900000D03*
X54600000Y-51900000D03*
G04 #@! TD*
D17*
G04 #@! TO.C,R23*
X51800000Y-49900000D03*
X51800000Y-48300000D03*
G04 #@! TD*
G04 #@! TO.C,R24*
X70600000Y-51200000D03*
X70600000Y-52800000D03*
G04 #@! TD*
G04 #@! TO.C,R25*
X47100000Y-48300000D03*
X47100000Y-49900000D03*
G04 #@! TD*
D14*
G04 #@! TO.C,R26*
X54200000Y-67000000D03*
X55800000Y-67000000D03*
G04 #@! TD*
D17*
G04 #@! TO.C,R27*
X55800000Y-59200000D03*
X55800000Y-57600000D03*
G04 #@! TD*
D14*
G04 #@! TO.C,R28*
X115800000Y-14000000D03*
X117400000Y-14000000D03*
G04 #@! TD*
D17*
G04 #@! TO.C,R29*
X118400000Y-19400000D03*
X118400000Y-21000000D03*
G04 #@! TD*
G04 #@! TO.C,R30*
X103200000Y-17600000D03*
X103200000Y-19200000D03*
G04 #@! TD*
D14*
G04 #@! TO.C,R31*
X100800000Y-19200000D03*
X99200000Y-19200000D03*
G04 #@! TD*
D17*
G04 #@! TO.C,R32*
X112200000Y-31800000D03*
X112200000Y-30200000D03*
G04 #@! TD*
G04 #@! TO.C,R33*
X112200000Y-17600000D03*
X112200000Y-19200000D03*
G04 #@! TD*
G04 #@! TO.C,R34*
X118600000Y-30200000D03*
X118600000Y-31800000D03*
G04 #@! TD*
G04 #@! TO.C,R35*
X110200000Y-19200000D03*
X110200000Y-17600000D03*
G04 #@! TD*
G04 #@! TO.C,R36*
X109600000Y-30200000D03*
X109600000Y-31800000D03*
G04 #@! TD*
D31*
G04 #@! TO.C,RV1*
X100225000Y-14800000D03*
X102575000Y-14800000D03*
D32*
X101400000Y-8800000D03*
G04 #@! TD*
D33*
G04 #@! TO.C,U1*
X21005000Y-52100000D03*
X21005000Y-46300000D03*
X19735000Y-52100000D03*
X19735000Y-46300000D03*
X18465000Y-52100000D03*
X18465000Y-46300000D03*
X17195000Y-52100000D03*
X17195000Y-46300000D03*
G04 #@! TD*
G04 #@! TO.C,U2*
X91505000Y-27700000D03*
X91505000Y-21900000D03*
X90235000Y-27700000D03*
X90235000Y-21900000D03*
X88965000Y-27700000D03*
X88965000Y-21900000D03*
X87695000Y-27700000D03*
X87695000Y-21900000D03*
G04 #@! TD*
D34*
G04 #@! TO.C,U3*
X62300000Y-44850000D03*
X62300000Y-43550000D03*
X64200000Y-44200000D03*
G04 #@! TD*
D35*
G04 #@! TO.C,U4*
X65225000Y-30600000D03*
X65225000Y-23400000D03*
X64575000Y-30600000D03*
X64575000Y-23400000D03*
X63925000Y-30600000D03*
X63925000Y-23400000D03*
X63275000Y-30600000D03*
X63275000Y-23400000D03*
X62625000Y-30600000D03*
X62625000Y-23400000D03*
X61975000Y-30600000D03*
X61975000Y-23400000D03*
X61325000Y-30600000D03*
X61325000Y-23400000D03*
X60675000Y-30600000D03*
X60675000Y-23400000D03*
X60025000Y-30600000D03*
X60025000Y-23400000D03*
X59375000Y-30600000D03*
X59375000Y-23400000D03*
X58725000Y-30600000D03*
X58725000Y-23400000D03*
X58075000Y-30600000D03*
X58075000Y-23400000D03*
X57425000Y-30600000D03*
X57425000Y-23400000D03*
X56775000Y-30600000D03*
X56775000Y-23400000D03*
G04 #@! TD*
D36*
G04 #@! TO.C,U5*
X59800000Y-49900000D03*
X60600000Y-49900000D03*
X61400000Y-49900000D03*
X62200000Y-49900000D03*
X63000000Y-49900000D03*
X63800000Y-49900000D03*
X64600000Y-49900000D03*
X65400000Y-49900000D03*
D37*
X66900000Y-51400000D03*
X66900000Y-52200000D03*
X66900000Y-53000000D03*
X66900000Y-53800000D03*
X66900000Y-54600000D03*
X66900000Y-55400000D03*
X66900000Y-56200000D03*
X66900000Y-57000000D03*
D36*
X65400000Y-58500000D03*
X64600000Y-58500000D03*
X63800000Y-58500000D03*
X63000000Y-58500000D03*
X62200000Y-58500000D03*
X61400000Y-58500000D03*
X60600000Y-58500000D03*
X59800000Y-58500000D03*
D37*
X58300000Y-57000000D03*
X58300000Y-56200000D03*
X58300000Y-55400000D03*
X58300000Y-54600000D03*
X58300000Y-53800000D03*
X58300000Y-53000000D03*
X58300000Y-52200000D03*
X58300000Y-51400000D03*
G04 #@! TD*
D23*
G04 #@! TO.C,U6*
X77200000Y-52850000D03*
X77200000Y-54750000D03*
X77200000Y-53800000D03*
X74800000Y-52850000D03*
X74800000Y-54750000D03*
G04 #@! TD*
D33*
G04 #@! TO.C,U7*
X109695000Y-21900000D03*
X109695000Y-27700000D03*
X110965000Y-21900000D03*
X110965000Y-27700000D03*
X112235000Y-21900000D03*
X112235000Y-27700000D03*
X113505000Y-21900000D03*
X113505000Y-27700000D03*
G04 #@! TD*
G04 #@! TO.C,U8*
X100695000Y-21900000D03*
X100695000Y-27700000D03*
X101965000Y-21900000D03*
X101965000Y-27700000D03*
X103235000Y-21900000D03*
X103235000Y-27700000D03*
X104505000Y-21900000D03*
X104505000Y-27700000D03*
G04 #@! TD*
D38*
G04 #@! TO.C,CN1*
X64360000Y-67200000D03*
X64360000Y-72600000D03*
X66900000Y-67200000D03*
X66900000Y-72600000D03*
X69440000Y-67200000D03*
X69440000Y-72600000D03*
G04 #@! TD*
D14*
G04 #@! TO.C,R62*
X70600000Y-49000000D03*
X72200000Y-49000000D03*
G04 #@! TD*
M02*
