G04 #@! TF.GenerationSoftware,KiCad,Pcbnew,(5.0.0)*
G04 #@! TF.CreationDate,2018-09-01T12:46:00+09:00*
G04 #@! TF.ProjectId,LED_Board,4C45445F426F6172642E6B696361645F,rev?*
G04 #@! TF.SameCoordinates,PX4c4b400PY1312d00*
G04 #@! TF.FileFunction,Soldermask,Bot*
G04 #@! TF.FilePolarity,Negative*
%FSLAX46Y46*%
G04 Gerber Fmt 4.6, Leading zero omitted, Abs format (unit mm)*
G04 Created by KiCad (PCBNEW (5.0.0)) date 09/01/18 12:46:00*
%MOMM*%
%LPD*%
G01*
G04 APERTURE LIST*
%ADD10C,3.400000*%
%ADD11R,2.200000X1.200000*%
%ADD12R,1.200000X1.100000*%
%ADD13C,0.700000*%
%ADD14O,1.250000X1.800000*%
%ADD15O,1.290000X2.200000*%
%ADD16O,5.200000X3.200000*%
%ADD17O,5.700000X3.200000*%
%ADD18O,3.200000X5.200000*%
%ADD19C,2.600000*%
%ADD20C,1.200000*%
%ADD21R,1.100000X1.200000*%
%ADD22C,2.200000*%
%ADD23C,2.800000*%
%ADD24C,1.000000*%
G04 APERTURE END LIST*
D10*
G04 #@! TO.C,*
X5000000Y-135000000D03*
G04 #@! TD*
D11*
G04 #@! TO.C,LED8*
X67300000Y-41600000D03*
X67300000Y-40000000D03*
X67300000Y-38400000D03*
X72700000Y-41600000D03*
X72700000Y-40000000D03*
X72700000Y-38400000D03*
G04 #@! TD*
D12*
G04 #@! TO.C,C26*
X118900000Y-24000000D03*
X117300000Y-24000000D03*
G04 #@! TD*
G04 #@! TO.C,C27*
X93900000Y-24000000D03*
X92300000Y-24000000D03*
G04 #@! TD*
G04 #@! TO.C,C28*
X68900000Y-24000000D03*
X67300000Y-24000000D03*
G04 #@! TD*
G04 #@! TO.C,C29*
X43900000Y-24000000D03*
X42300000Y-24000000D03*
G04 #@! TD*
G04 #@! TO.C,C30*
X18900000Y-24000000D03*
X17300000Y-24000000D03*
G04 #@! TD*
G04 #@! TO.C,C31*
X21100000Y-36000000D03*
X22700000Y-36000000D03*
G04 #@! TD*
G04 #@! TO.C,C32*
X46100000Y-36000000D03*
X47700000Y-36000000D03*
G04 #@! TD*
G04 #@! TO.C,C33*
X71100000Y-36000000D03*
X72700000Y-36000000D03*
G04 #@! TD*
G04 #@! TO.C,C34*
X96100000Y-36000000D03*
X97700000Y-36000000D03*
G04 #@! TD*
G04 #@! TO.C,C35*
X121100000Y-36000000D03*
X122700000Y-36000000D03*
G04 #@! TD*
G04 #@! TO.C,C36*
X118900000Y-69000000D03*
X117300000Y-69000000D03*
G04 #@! TD*
G04 #@! TO.C,C37*
X93900000Y-69000000D03*
X92300000Y-69000000D03*
G04 #@! TD*
G04 #@! TO.C,C38*
X68900000Y-69000000D03*
X67300000Y-69000000D03*
G04 #@! TD*
G04 #@! TO.C,C39*
X43900000Y-69000000D03*
X42300000Y-69000000D03*
G04 #@! TD*
G04 #@! TO.C,C40*
X18900000Y-69000000D03*
X17300000Y-69000000D03*
G04 #@! TD*
G04 #@! TO.C,C41*
X21100000Y-86000000D03*
X22700000Y-86000000D03*
G04 #@! TD*
G04 #@! TO.C,C42*
X46100000Y-86000000D03*
X47700000Y-86000000D03*
G04 #@! TD*
G04 #@! TO.C,C43*
X71100000Y-86000000D03*
X72700000Y-86000000D03*
G04 #@! TD*
G04 #@! TO.C,C44*
X96100000Y-86000000D03*
X97700000Y-86000000D03*
G04 #@! TD*
G04 #@! TO.C,C45*
X121100000Y-86000000D03*
X122700000Y-86000000D03*
G04 #@! TD*
G04 #@! TO.C,C46*
X118900000Y-119000000D03*
X117300000Y-119000000D03*
G04 #@! TD*
G04 #@! TO.C,C47*
X93900000Y-119000000D03*
X92300000Y-119000000D03*
G04 #@! TD*
G04 #@! TO.C,C48*
X68900000Y-119000000D03*
X67300000Y-119000000D03*
G04 #@! TD*
G04 #@! TO.C,C49*
X43900000Y-119000000D03*
X42300000Y-119000000D03*
G04 #@! TD*
G04 #@! TO.C,C50*
X18900000Y-119000000D03*
X17300000Y-119000000D03*
G04 #@! TD*
D13*
G04 #@! TO.C,CN2*
X62000000Y-4650000D03*
X58000000Y-4650000D03*
D14*
X63600000Y-5950000D03*
X56400000Y-5950000D03*
D15*
X63600000Y-2500000D03*
X56400000Y-2500000D03*
G04 #@! TD*
D16*
G04 #@! TO.C,J1*
X25000000Y-8200000D03*
D17*
X25000000Y-14200000D03*
D18*
X20100000Y-11250000D03*
G04 #@! TD*
D19*
G04 #@! TO.C,J2*
X112900000Y-6500000D03*
X107100000Y-6500000D03*
D20*
X112500000Y-10000000D03*
X107500000Y-10000000D03*
D19*
X112250000Y-14000000D03*
X107750000Y-14000000D03*
G04 #@! TD*
D11*
G04 #@! TO.C,LED1*
X122700000Y-18400000D03*
X122700000Y-20000000D03*
X122700000Y-21600000D03*
X117300000Y-18400000D03*
X117300000Y-20000000D03*
X117300000Y-21600000D03*
G04 #@! TD*
G04 #@! TO.C,LED2*
X97700000Y-18400000D03*
X97700000Y-20000000D03*
X97700000Y-21600000D03*
X92300000Y-18400000D03*
X92300000Y-20000000D03*
X92300000Y-21600000D03*
G04 #@! TD*
G04 #@! TO.C,LED3*
X72700000Y-18400000D03*
X72700000Y-20000000D03*
X72700000Y-21600000D03*
X67300000Y-18400000D03*
X67300000Y-20000000D03*
X67300000Y-21600000D03*
G04 #@! TD*
G04 #@! TO.C,LED4*
X47700000Y-18400000D03*
X47700000Y-20000000D03*
X47700000Y-21600000D03*
X42300000Y-18400000D03*
X42300000Y-20000000D03*
X42300000Y-21600000D03*
G04 #@! TD*
G04 #@! TO.C,LED5*
X22700000Y-18400000D03*
X22700000Y-20000000D03*
X22700000Y-21600000D03*
X17300000Y-18400000D03*
X17300000Y-20000000D03*
X17300000Y-21600000D03*
G04 #@! TD*
G04 #@! TO.C,LED6*
X17300000Y-41600000D03*
X17300000Y-40000000D03*
X17300000Y-38400000D03*
X22700000Y-41600000D03*
X22700000Y-40000000D03*
X22700000Y-38400000D03*
G04 #@! TD*
G04 #@! TO.C,LED7*
X42300000Y-41600000D03*
X42300000Y-40000000D03*
X42300000Y-38400000D03*
X47700000Y-41600000D03*
X47700000Y-40000000D03*
X47700000Y-38400000D03*
G04 #@! TD*
G04 #@! TO.C,LED9*
X92300000Y-41600000D03*
X92300000Y-40000000D03*
X92300000Y-38400000D03*
X97700000Y-41600000D03*
X97700000Y-40000000D03*
X97700000Y-38400000D03*
G04 #@! TD*
G04 #@! TO.C,LED10*
X117300000Y-41600000D03*
X117300000Y-40000000D03*
X117300000Y-38400000D03*
X122700000Y-41600000D03*
X122700000Y-40000000D03*
X122700000Y-38400000D03*
G04 #@! TD*
G04 #@! TO.C,LED11*
X122700000Y-63400000D03*
X122700000Y-65000000D03*
X122700000Y-66600000D03*
X117300000Y-63400000D03*
X117300000Y-65000000D03*
X117300000Y-66600000D03*
G04 #@! TD*
G04 #@! TO.C,LED12*
X97700000Y-63400000D03*
X97700000Y-65000000D03*
X97700000Y-66600000D03*
X92300000Y-63400000D03*
X92300000Y-65000000D03*
X92300000Y-66600000D03*
G04 #@! TD*
G04 #@! TO.C,LED13*
X72700000Y-63400000D03*
X72700000Y-65000000D03*
X72700000Y-66600000D03*
X67300000Y-63400000D03*
X67300000Y-65000000D03*
X67300000Y-66600000D03*
G04 #@! TD*
G04 #@! TO.C,LED14*
X47700000Y-63400000D03*
X47700000Y-65000000D03*
X47700000Y-66600000D03*
X42300000Y-63400000D03*
X42300000Y-65000000D03*
X42300000Y-66600000D03*
G04 #@! TD*
G04 #@! TO.C,LED15*
X22700000Y-63400000D03*
X22700000Y-65000000D03*
X22700000Y-66600000D03*
X17300000Y-63400000D03*
X17300000Y-65000000D03*
X17300000Y-66600000D03*
G04 #@! TD*
G04 #@! TO.C,LED16*
X17300000Y-91600000D03*
X17300000Y-90000000D03*
X17300000Y-88400000D03*
X22700000Y-91600000D03*
X22700000Y-90000000D03*
X22700000Y-88400000D03*
G04 #@! TD*
G04 #@! TO.C,LED17*
X42300000Y-91600000D03*
X42300000Y-90000000D03*
X42300000Y-88400000D03*
X47700000Y-91600000D03*
X47700000Y-90000000D03*
X47700000Y-88400000D03*
G04 #@! TD*
G04 #@! TO.C,LED18*
X67300000Y-91600000D03*
X67300000Y-90000000D03*
X67300000Y-88400000D03*
X72700000Y-91600000D03*
X72700000Y-90000000D03*
X72700000Y-88400000D03*
G04 #@! TD*
G04 #@! TO.C,LED19*
X92300000Y-91600000D03*
X92300000Y-90000000D03*
X92300000Y-88400000D03*
X97700000Y-91600000D03*
X97700000Y-90000000D03*
X97700000Y-88400000D03*
G04 #@! TD*
G04 #@! TO.C,LED20*
X117300000Y-91600000D03*
X117300000Y-90000000D03*
X117300000Y-88400000D03*
X122700000Y-91600000D03*
X122700000Y-90000000D03*
X122700000Y-88400000D03*
G04 #@! TD*
G04 #@! TO.C,LED21*
X122700000Y-113400000D03*
X122700000Y-115000000D03*
X122700000Y-116600000D03*
X117300000Y-113400000D03*
X117300000Y-115000000D03*
X117300000Y-116600000D03*
G04 #@! TD*
G04 #@! TO.C,LED22*
X97700000Y-113400000D03*
X97700000Y-115000000D03*
X97700000Y-116600000D03*
X92300000Y-113400000D03*
X92300000Y-115000000D03*
X92300000Y-116600000D03*
G04 #@! TD*
G04 #@! TO.C,LED23*
X72700000Y-113400000D03*
X72700000Y-115000000D03*
X72700000Y-116600000D03*
X67300000Y-113400000D03*
X67300000Y-115000000D03*
X67300000Y-116600000D03*
G04 #@! TD*
G04 #@! TO.C,LED24*
X47700000Y-113400000D03*
X47700000Y-115000000D03*
X47700000Y-116600000D03*
X42300000Y-113400000D03*
X42300000Y-115000000D03*
X42300000Y-116600000D03*
G04 #@! TD*
G04 #@! TO.C,LED25*
X22700000Y-113400000D03*
X22700000Y-115000000D03*
X22700000Y-116600000D03*
X17300000Y-113400000D03*
X17300000Y-115000000D03*
X17300000Y-116600000D03*
G04 #@! TD*
D21*
G04 #@! TO.C,R37*
X115400000Y-24000000D03*
X115400000Y-25600000D03*
G04 #@! TD*
G04 #@! TO.C,R38*
X90400000Y-24000000D03*
X90400000Y-25600000D03*
G04 #@! TD*
G04 #@! TO.C,R39*
X65400000Y-24000000D03*
X65400000Y-25600000D03*
G04 #@! TD*
G04 #@! TO.C,R40*
X40400000Y-24000000D03*
X40400000Y-25600000D03*
G04 #@! TD*
G04 #@! TO.C,R41*
X15400000Y-24000000D03*
X15400000Y-25600000D03*
G04 #@! TD*
G04 #@! TO.C,R42*
X24600000Y-36000000D03*
X24600000Y-34400000D03*
G04 #@! TD*
G04 #@! TO.C,R43*
X49600000Y-36000000D03*
X49600000Y-34400000D03*
G04 #@! TD*
G04 #@! TO.C,R44*
X74600000Y-36000000D03*
X74600000Y-34400000D03*
G04 #@! TD*
G04 #@! TO.C,R45*
X99600000Y-36000000D03*
X99600000Y-34400000D03*
G04 #@! TD*
G04 #@! TO.C,R46*
X124600000Y-36000000D03*
X124600000Y-34400000D03*
G04 #@! TD*
G04 #@! TO.C,R47*
X115400000Y-69000000D03*
X115400000Y-70600000D03*
G04 #@! TD*
G04 #@! TO.C,R48*
X90400000Y-69000000D03*
X90400000Y-70600000D03*
G04 #@! TD*
G04 #@! TO.C,R49*
X65400000Y-69000000D03*
X65400000Y-70600000D03*
G04 #@! TD*
G04 #@! TO.C,R50*
X40400000Y-69000000D03*
X40400000Y-70600000D03*
G04 #@! TD*
G04 #@! TO.C,R51*
X15400000Y-69000000D03*
X15400000Y-70600000D03*
G04 #@! TD*
G04 #@! TO.C,R52*
X24600000Y-86000000D03*
X24600000Y-84400000D03*
G04 #@! TD*
G04 #@! TO.C,R53*
X49600000Y-86000000D03*
X49600000Y-84400000D03*
G04 #@! TD*
G04 #@! TO.C,R54*
X74600000Y-86000000D03*
X74600000Y-84400000D03*
G04 #@! TD*
G04 #@! TO.C,R55*
X99600000Y-86000000D03*
X99600000Y-84400000D03*
G04 #@! TD*
G04 #@! TO.C,R56*
X124600000Y-86000000D03*
X124600000Y-84400000D03*
G04 #@! TD*
G04 #@! TO.C,R57*
X115400000Y-119000000D03*
X115400000Y-120600000D03*
G04 #@! TD*
G04 #@! TO.C,R58*
X90400000Y-119000000D03*
X90400000Y-120600000D03*
G04 #@! TD*
G04 #@! TO.C,R59*
X65400000Y-119000000D03*
X65400000Y-120600000D03*
G04 #@! TD*
G04 #@! TO.C,R60*
X40400000Y-119000000D03*
X40400000Y-120600000D03*
G04 #@! TD*
G04 #@! TO.C,R61*
X15400000Y-119000000D03*
X15400000Y-120600000D03*
G04 #@! TD*
D22*
G04 #@! TO.C,SW1*
X75750000Y-5500000D03*
X80250000Y-5500000D03*
D23*
X74500000Y-3000000D03*
X81500000Y-3000000D03*
G04 #@! TD*
D22*
G04 #@! TO.C,SW2*
X87750000Y-5500000D03*
X92250000Y-5500000D03*
D23*
X86500000Y-3000000D03*
X93500000Y-3000000D03*
G04 #@! TD*
D10*
G04 #@! TO.C,*
X5000000Y-5000000D03*
G04 #@! TD*
G04 #@! TO.C,*
X135000000Y-5000000D03*
G04 #@! TD*
G04 #@! TO.C,*
X135000000Y-135000000D03*
G04 #@! TD*
D22*
G04 #@! TO.C,*
X122750000Y-14000000D03*
G04 #@! TD*
D24*
X27500000Y-76500000D03*
X59000000Y-67000000D03*
X52500000Y-68000000D03*
X53500000Y-34000000D03*
X117000000Y-29000000D03*
X103200000Y-30200000D03*
X69400000Y-76600000D03*
X69440000Y-75100000D03*
X75000000Y-76400000D03*
X75000000Y-75200000D03*
X27500000Y-75000000D03*
X53300000Y-29100000D03*
X53300000Y-27800000D03*
X72500000Y-28500000D03*
X72500000Y-30000000D03*
X9000000Y-123500000D03*
X10500000Y-123500000D03*
X12000000Y-123500000D03*
X9000000Y-125000000D03*
X10500000Y-125000000D03*
X12000000Y-125000000D03*
X12000000Y-126500000D03*
X10500000Y-126500000D03*
X9000000Y-126500000D03*
X85800000Y-28800000D03*
X85800000Y-27800000D03*
X58000000Y-34500000D03*
X60000000Y-56500000D03*
X61500000Y-56500000D03*
X21000000Y-33500000D03*
X19000000Y-33500000D03*
X17000000Y-33500000D03*
X13500000Y-27500000D03*
X13500000Y-29000000D03*
X13500000Y-30500000D03*
X13500000Y-32000000D03*
X14500000Y-33500000D03*
X77000000Y-65000000D03*
X81000000Y-65000000D03*
X84500000Y-65000000D03*
X120000000Y-89000000D03*
X120000000Y-92000000D03*
X48000000Y-80000000D03*
X38000000Y-80000000D03*
X32000000Y-80000000D03*
X26000000Y-80000000D03*
X48000000Y-82000000D03*
X48000000Y-84000000D03*
X28000000Y-88000000D03*
X30000000Y-87000000D03*
X34000000Y-87000000D03*
X39000000Y-87000000D03*
X20000000Y-88000000D03*
X20000000Y-91000000D03*
X15000000Y-89000000D03*
X22000000Y-84000000D03*
X15000000Y-78000000D03*
X60000000Y-52000000D03*
X61500000Y-52000000D03*
X61500000Y-53500000D03*
X61500000Y-55000000D03*
X60000000Y-55000000D03*
X60000000Y-53500000D03*
X65000000Y-52000000D03*
X65000000Y-53500000D03*
X65000000Y-55000000D03*
X65000000Y-56500000D03*
X66000000Y-46500000D03*
X67600000Y-46600000D03*
X67000000Y-48000000D03*
X67000000Y-49500000D03*
X98000000Y-32000000D03*
X98000000Y-34000000D03*
X76500000Y-32500000D03*
X79000000Y-32000000D03*
X81500000Y-32000000D03*
X85000000Y-32000000D03*
X78000000Y-35000000D03*
X78000000Y-37500000D03*
X80500000Y-37000000D03*
X83500000Y-37000000D03*
X87500000Y-37000000D03*
X92000000Y-37000000D03*
X95000000Y-38500000D03*
X95000000Y-41500000D03*
X101500000Y-32500000D03*
X105500000Y-32000000D03*
X120000000Y-39500000D03*
X120000000Y-42500000D03*
X117000000Y-36500000D03*
X113000000Y-37000000D03*
X109500000Y-37000000D03*
X106000000Y-37000000D03*
X103500000Y-37500000D03*
X123000000Y-32500000D03*
X104000000Y-34500000D03*
X122000000Y-23500000D03*
X124500000Y-23500000D03*
X122000000Y-26500000D03*
X124500000Y-26500000D03*
X117500000Y-70500000D03*
X117500000Y-72500000D03*
X127500000Y-72000000D03*
X127500000Y-62000000D03*
X127500000Y-58000000D03*
X127500000Y-54000000D03*
X127500000Y-50000000D03*
X127500000Y-46000000D03*
X128000000Y-40000000D03*
X127500000Y-33000000D03*
X125500000Y-42500000D03*
X120000000Y-64000000D03*
X120000000Y-66000000D03*
X113500000Y-72500000D03*
X95000000Y-63500000D03*
X95000000Y-65500000D03*
X73500000Y-68500000D03*
X72500000Y-70500000D03*
X73500000Y-72500000D03*
X71000000Y-72500000D03*
X71000000Y-68500000D03*
X45000000Y-64000000D03*
X45000000Y-66500000D03*
X49000000Y-68000000D03*
X51000000Y-70500000D03*
X42000000Y-72500000D03*
X46000000Y-72500000D03*
X51000000Y-72500000D03*
X29000000Y-68000000D03*
X33500000Y-68000000D03*
X37000000Y-67000000D03*
X37000000Y-70000000D03*
X29000000Y-70500000D03*
X29000000Y-73000000D03*
X33500000Y-73000000D03*
X37000000Y-73000000D03*
X39000000Y-72500000D03*
X26000000Y-68000000D03*
X24000000Y-70000000D03*
X26000000Y-73000000D03*
X23000000Y-73000000D03*
X17500000Y-71000000D03*
X20000000Y-72500000D03*
X18000000Y-26500000D03*
X20000000Y-26500000D03*
X22000000Y-26500000D03*
X22000000Y-28000000D03*
X22000000Y-24500000D03*
X20000000Y-22000000D03*
X20000000Y-20000000D03*
X20000000Y-18000000D03*
X30500000Y-90000000D03*
X34500000Y-90000000D03*
X39000000Y-90000000D03*
X45000000Y-91500000D03*
X45000000Y-89000000D03*
X55500000Y-90000000D03*
X59500000Y-90000000D03*
X63500000Y-90000000D03*
X70000000Y-89000000D03*
X70000000Y-91500000D03*
X80500000Y-90000000D03*
X84500000Y-90000000D03*
X88500000Y-90000000D03*
X95000000Y-89000000D03*
X95000000Y-91500000D03*
X105500000Y-90000000D03*
X109500000Y-90000000D03*
X113500000Y-90000000D03*
X120000000Y-113500000D03*
X120000000Y-116000000D03*
X117500000Y-121000000D03*
X125500000Y-118000000D03*
X127000000Y-121000000D03*
X123500000Y-121000000D03*
X100500000Y-115000000D03*
X105000000Y-115000000D03*
X109500000Y-115000000D03*
X95000000Y-113500000D03*
X95000000Y-116000000D03*
X93000000Y-121000000D03*
X101000000Y-121000000D03*
X105000000Y-121000000D03*
X109000000Y-121000000D03*
X112000000Y-121000000D03*
X112000000Y-117000000D03*
X109000000Y-118000000D03*
X105000000Y-118000000D03*
X101000000Y-118000000D03*
X75500000Y-115000000D03*
X80500000Y-115000000D03*
X85000000Y-115000000D03*
X70000000Y-113500000D03*
X70000000Y-116000000D03*
X68000000Y-121000000D03*
X76000000Y-121000000D03*
X80000000Y-121000000D03*
X84000000Y-121000000D03*
X87000000Y-121000000D03*
X84000000Y-118000000D03*
X80000000Y-118000000D03*
X76000000Y-118000000D03*
X50500000Y-115000000D03*
X55000000Y-115000000D03*
X59500000Y-115000000D03*
X45000000Y-113500000D03*
X45000000Y-116000000D03*
X43000000Y-121000000D03*
X51000000Y-121000000D03*
X55000000Y-121000000D03*
X59000000Y-121000000D03*
X62000000Y-121000000D03*
X59000000Y-118000000D03*
X55000000Y-118000000D03*
X51000000Y-118000000D03*
X47000000Y-118000000D03*
X25500000Y-115000000D03*
X29500000Y-115000000D03*
X33500000Y-115000000D03*
X18000000Y-121000000D03*
X22000000Y-121000000D03*
X26000000Y-121000000D03*
X31000000Y-121000000D03*
X37000000Y-121000000D03*
X35000000Y-118000000D03*
X26000000Y-118000000D03*
X22000000Y-118000000D03*
X127500000Y-116000000D03*
X127500000Y-110000000D03*
X127500000Y-104000000D03*
X127500000Y-97500000D03*
X127500000Y-91500000D03*
X125500000Y-92000000D03*
X126500000Y-80500000D03*
X127000000Y-83000000D03*
X128000000Y-87000000D03*
X51000000Y-80000000D03*
X57000000Y-80000000D03*
X73000000Y-80000000D03*
X53000000Y-84000000D03*
X63000000Y-80000000D03*
X68000000Y-80000000D03*
X73000000Y-84000000D03*
X64000000Y-87000000D03*
X59500000Y-87000000D03*
X55000000Y-87000000D03*
X53000000Y-88000000D03*
X48500000Y-47000000D03*
X50500000Y-47000000D03*
X63000000Y-37000000D03*
X65500000Y-34500000D03*
X59000000Y-36450000D03*
X57500000Y-46500000D03*
X59000000Y-46500000D03*
X59000000Y-48000000D03*
X57500000Y-48000000D03*
X57500000Y-40000000D03*
X59000000Y-40000000D03*
X62500000Y-40000000D03*
X54000000Y-59500000D03*
X52000000Y-61500000D03*
X57500000Y-60500000D03*
X59500000Y-60500000D03*
X104500000Y-16500000D03*
X104500000Y-14500000D03*
X2500000Y-15000000D03*
X2500000Y-20000000D03*
X2500000Y-25000000D03*
X2500000Y-30000000D03*
X2500000Y-35000000D03*
X2500000Y-40000000D03*
X2500000Y-45000000D03*
X2500000Y-50000000D03*
X2500000Y-55000000D03*
X2500000Y-60000000D03*
X2500000Y-65000000D03*
X2500000Y-70000000D03*
X2500000Y-75000000D03*
X2500000Y-80000000D03*
X2500000Y-85000000D03*
X2500000Y-90000000D03*
X2500000Y-95000000D03*
X2500000Y-100000000D03*
X2500000Y-105000000D03*
X2500000Y-110000000D03*
X2500000Y-115000000D03*
X2500000Y-120000000D03*
X2500000Y-125000000D03*
X15000000Y-137500000D03*
X20000000Y-137500000D03*
X25000000Y-137500000D03*
X30000000Y-137500000D03*
X35000000Y-137500000D03*
X40000000Y-137500000D03*
X45000000Y-137500000D03*
X50000000Y-137500000D03*
X55000000Y-137500000D03*
X60000000Y-137500000D03*
X65000000Y-137500000D03*
X70000000Y-137500000D03*
X75000000Y-137500000D03*
X80000000Y-137500000D03*
X85000000Y-137500000D03*
X90000000Y-137500000D03*
X95000000Y-137500000D03*
X100000000Y-137500000D03*
X105000000Y-137500000D03*
X110000000Y-137500000D03*
X115000000Y-137500000D03*
X120000000Y-137500000D03*
X125000000Y-137500000D03*
X137500000Y-125000000D03*
X137500000Y-120000000D03*
X137500000Y-115000000D03*
X137500000Y-110000000D03*
X137500000Y-105000000D03*
X137500000Y-100000000D03*
X137500000Y-95000000D03*
X137500000Y-90000000D03*
X137500000Y-85000000D03*
X137500000Y-80000000D03*
X137500000Y-75000000D03*
X137500000Y-70000000D03*
X137500000Y-65000000D03*
X137500000Y-60000000D03*
X137500000Y-55000000D03*
X137500000Y-50000000D03*
X137500000Y-45000000D03*
X137500000Y-40000000D03*
X137500000Y-35000000D03*
X137500000Y-30000000D03*
X137500000Y-25000000D03*
X137500000Y-20000000D03*
X137500000Y-15000000D03*
X125000000Y-2500000D03*
X120000000Y-2500000D03*
X115000000Y-2500000D03*
X110000000Y-2500000D03*
X105500000Y-2500000D03*
X97000000Y-2500000D03*
X15000000Y-2500000D03*
X20000000Y-2500000D03*
X25000000Y-2500000D03*
X30000000Y-2500000D03*
X35000000Y-2500000D03*
X40000000Y-2500000D03*
X45000000Y-2500000D03*
X50000000Y-2500000D03*
X67500000Y-2500000D03*
X70000000Y-2500000D03*
X52500000Y-2500000D03*
X7500000Y-15000000D03*
X7500000Y-20000000D03*
X7500000Y-25000000D03*
X7500000Y-30000000D03*
X7500000Y-35000000D03*
X6000000Y-125000000D03*
X6000000Y-120000000D03*
X6000000Y-115000000D03*
X6000000Y-110000000D03*
X6000000Y-105000000D03*
X6000000Y-100000000D03*
X6000000Y-95000000D03*
X6000000Y-90000000D03*
X6000000Y-80000000D03*
X6000000Y-85000000D03*
X6000000Y-75000000D03*
X15000000Y-132500000D03*
X20000000Y-132500000D03*
X25000000Y-132500000D03*
X30000000Y-132500000D03*
X35000000Y-132500000D03*
X40000000Y-132500000D03*
X45000000Y-132500000D03*
X50000000Y-132500000D03*
X55000000Y-132500000D03*
X60000000Y-132500000D03*
X65000000Y-132500000D03*
X70000000Y-132500000D03*
X75000000Y-132500000D03*
X80000000Y-132500000D03*
X85000000Y-132500000D03*
X90000000Y-132500000D03*
X95000000Y-132500000D03*
X100000000Y-132500000D03*
X105000000Y-132500000D03*
X110000000Y-132500000D03*
X115000000Y-132500000D03*
X120000000Y-132500000D03*
X125000000Y-132500000D03*
X132500000Y-15000000D03*
X132500000Y-20000000D03*
X132500000Y-25000000D03*
X125000000Y-7500000D03*
X125000000Y-12500000D03*
X127500000Y-15000000D03*
X120000000Y-7500000D03*
X120000000Y-12500000D03*
X105000000Y-5000000D03*
X97500000Y-5000000D03*
X97500000Y-7500000D03*
X95000000Y-7500000D03*
X95000000Y-10000000D03*
X97500000Y-10000000D03*
X67500000Y-5000000D03*
X70000000Y-5000000D03*
X30000000Y-7500000D03*
X35000000Y-7500000D03*
X40000000Y-7500000D03*
X45000000Y-7500000D03*
X50000000Y-7500000D03*
X52500000Y-7500000D03*
X52500000Y-12500000D03*
X50000000Y-12500000D03*
X40000000Y-12500000D03*
X35000000Y-12500000D03*
X30000000Y-12500000D03*
X15000000Y-7500000D03*
X15000000Y-12500000D03*
X70000000Y-47000000D03*
X15000000Y-94000000D03*
X19000000Y-94000000D03*
X23000000Y-94000000D03*
X27000000Y-94000000D03*
X30000000Y-93000000D03*
X33000000Y-93000000D03*
X36000000Y-93000000D03*
X40000000Y-93000000D03*
X42000000Y-94000000D03*
X44000000Y-94000000D03*
X48000000Y-94000000D03*
X52000000Y-94000000D03*
X55000000Y-93000000D03*
X58000000Y-93000000D03*
X61000000Y-93000000D03*
X65000000Y-93000000D03*
X67000000Y-94000000D03*
X70000000Y-94000000D03*
X73000000Y-94000000D03*
X77000000Y-94000000D03*
X80000000Y-93000000D03*
X83000000Y-93000000D03*
X86000000Y-93000000D03*
X90000000Y-93000000D03*
X92000000Y-94000000D03*
X94000000Y-94000000D03*
X98000000Y-94000000D03*
X102000000Y-94000000D03*
X105000000Y-93000000D03*
X108000000Y-93000000D03*
X111000000Y-93000000D03*
X115000000Y-93000000D03*
X116000000Y-95000000D03*
X119000000Y-96000000D03*
X121000000Y-96000000D03*
X121000000Y-98000000D03*
X121000000Y-102000000D03*
X121000000Y-106000000D03*
X121000000Y-110000000D03*
X120000000Y-111000000D03*
X118000000Y-111000000D03*
X114000000Y-111000000D03*
X110000000Y-112000000D03*
X106000000Y-112000000D03*
X102000000Y-112000000D03*
X99000000Y-112000000D03*
X97000000Y-111000000D03*
X93000000Y-111000000D03*
X89000000Y-111000000D03*
X85000000Y-112000000D03*
X82000000Y-112000000D03*
X78000000Y-112000000D03*
X75000000Y-112000000D03*
X73000000Y-111000000D03*
X69000000Y-111000000D03*
X65000000Y-111000000D03*
X61000000Y-111000000D03*
X60000000Y-112000000D03*
X58000000Y-112000000D03*
X54000000Y-112000000D03*
X50000000Y-112000000D03*
X48000000Y-111000000D03*
X44000000Y-111000000D03*
X40000000Y-111000000D03*
X36000000Y-111000000D03*
X35000000Y-112000000D03*
X31000000Y-112000000D03*
X27000000Y-112000000D03*
X23000000Y-112000000D03*
X31000000Y-44000000D03*
X35000000Y-44000000D03*
X39000000Y-44000000D03*
X41000000Y-44000000D03*
X42000000Y-46000000D03*
X44000000Y-48000000D03*
X44000000Y-53000000D03*
X44000000Y-58000000D03*
X43000000Y-61000000D03*
X39000000Y-61000000D03*
X35000000Y-62000000D03*
X29000000Y-62000000D03*
X23000000Y-47500000D03*
X25000000Y-50000000D03*
X25000000Y-54000000D03*
X25750000Y-47250000D03*
X31000000Y-46000000D03*
X62000000Y-117000000D03*
X37000000Y-117000000D03*
X87000000Y-117000000D03*
X23000000Y-81000000D03*
X44000000Y-80000000D03*
X28000000Y-84000000D03*
X76000000Y-80000000D03*
X78000000Y-84000000D03*
X78000000Y-88000000D03*
X80000000Y-87000000D03*
X85000000Y-87000000D03*
X90000000Y-87000000D03*
X98000000Y-84000000D03*
X98000000Y-80000000D03*
X93000000Y-80000000D03*
X87000000Y-80000000D03*
X82000000Y-80000000D03*
X101000000Y-80000000D03*
X103000000Y-84000000D03*
X103000000Y-88000000D03*
X105000000Y-87000000D03*
X110000000Y-87000000D03*
X115000000Y-87000000D03*
X123000000Y-84000000D03*
X123000000Y-80000000D03*
X118000000Y-80000000D03*
X112000000Y-80000000D03*
X107000000Y-80000000D03*
X97000000Y-121000000D03*
X72000000Y-121000000D03*
X120000000Y-121000000D03*
X47000000Y-121000000D03*
X31000000Y-118000000D03*
X15000000Y-113000000D03*
X17000000Y-112000000D03*
X49000000Y-61000000D03*
X51000000Y-58000000D03*
X46000000Y-56000000D03*
X49000000Y-54000000D03*
X33000000Y-50000000D03*
X33000000Y-56000000D03*
X39000000Y-56000000D03*
X39000000Y-50000000D03*
X60000000Y-83000000D03*
X65000000Y-83000000D03*
X41000000Y-83000000D03*
X35000000Y-83000000D03*
X84000000Y-83000000D03*
X90000000Y-83000000D03*
X109000000Y-83000000D03*
X115000000Y-83000000D03*
X20000000Y-100000000D03*
X27500000Y-100000000D03*
X35000000Y-100000000D03*
X42500000Y-100000000D03*
X50000000Y-100000000D03*
X57500000Y-100000000D03*
X65000000Y-100000000D03*
X72500000Y-100000000D03*
X80000000Y-100000000D03*
X87500000Y-100000000D03*
X95000000Y-100000000D03*
X102500000Y-100000000D03*
X110000000Y-100000000D03*
X117500000Y-100000000D03*
X117500000Y-105000000D03*
X110000000Y-105000000D03*
X102500000Y-105000000D03*
X95000000Y-105000000D03*
X87500000Y-105000000D03*
X80000000Y-105000000D03*
X72500000Y-105000000D03*
X65000000Y-105000000D03*
X57500000Y-105000000D03*
X50000000Y-105000000D03*
X42500000Y-105000000D03*
X35000000Y-105000000D03*
X27500000Y-105000000D03*
X20000000Y-105000000D03*
X15000000Y-103000000D03*
X8500000Y-131500000D03*
X9500000Y-133500000D03*
X9500000Y-135500000D03*
X9500000Y-137500000D03*
X6500000Y-130500000D03*
X4500000Y-130500000D03*
X2500000Y-130500000D03*
X131500000Y-131500000D03*
X133500000Y-130500000D03*
X135500000Y-130500000D03*
X137500000Y-130500000D03*
X130500000Y-133500000D03*
X130500000Y-135500000D03*
X130500000Y-137500000D03*
X131500000Y-8500000D03*
X133500000Y-9500000D03*
X135500000Y-9500000D03*
X137500000Y-9500000D03*
X130500000Y-6500000D03*
X130500000Y-4500000D03*
X130500000Y-2500000D03*
X8500000Y-8500000D03*
X9500000Y-6500000D03*
X9500000Y-4500000D03*
X9500000Y-2500000D03*
X6500000Y-9500000D03*
X4500000Y-9500000D03*
X2500000Y-9500000D03*
X72000000Y-46000000D03*
X77000000Y-46000000D03*
X82000000Y-46000000D03*
X87000000Y-46000000D03*
X92000000Y-46000000D03*
X97000000Y-46000000D03*
X102000000Y-46000000D03*
X107000000Y-46000000D03*
X112000000Y-46000000D03*
X121000000Y-46000000D03*
X121000000Y-50000000D03*
X121000000Y-55000000D03*
X121000000Y-60000000D03*
X119000000Y-61000000D03*
X114000000Y-61000000D03*
X110000000Y-62000000D03*
X105000000Y-62000000D03*
X100000000Y-62000000D03*
X98000000Y-61000000D03*
X93000000Y-61000000D03*
X88000000Y-61000000D03*
X85000000Y-62000000D03*
X81000000Y-62000000D03*
X77000000Y-62000000D03*
X82000000Y-51000000D03*
X87000000Y-51000000D03*
X92000000Y-51000000D03*
X97000000Y-51000000D03*
X102000000Y-51000000D03*
X107000000Y-51000000D03*
X112000000Y-51000000D03*
X117000000Y-51000000D03*
X117000000Y-56000000D03*
X112000000Y-56000000D03*
X107000000Y-56000000D03*
X102000000Y-56000000D03*
X97000000Y-56000000D03*
X92000000Y-56000000D03*
X87000000Y-56000000D03*
X82000000Y-56000000D03*
X88500000Y-72500000D03*
X84500000Y-72500000D03*
X80500000Y-72500000D03*
X76500000Y-72500000D03*
X76500000Y-68000000D03*
X80500000Y-68000000D03*
X84500000Y-68000000D03*
X84500000Y-70000000D03*
X80500000Y-70000000D03*
X76500000Y-70000000D03*
X109500000Y-72500000D03*
X105500000Y-72500000D03*
X101500000Y-72500000D03*
X97500000Y-72500000D03*
X93500000Y-72500000D03*
X92000000Y-70500000D03*
X97500000Y-68000000D03*
X101500000Y-68000000D03*
X105500000Y-68000000D03*
X109500000Y-68000000D03*
X109500000Y-70000000D03*
X105500000Y-70000000D03*
X101500000Y-70000000D03*
X97500000Y-70000000D03*
X121500000Y-72500000D03*
X125500000Y-72500000D03*
X125500000Y-67500000D03*
X123000000Y-68500000D03*
X81500000Y-34500000D03*
X85000000Y-34500000D03*
X113500000Y-34500000D03*
X108500000Y-34000000D03*
X66500000Y-32000000D03*
X63500000Y-32500000D03*
X72500000Y-34000000D03*
X55500000Y-32000000D03*
X44000000Y-43500000D03*
X45500000Y-44500000D03*
X14500000Y-73750000D03*
X113250000Y-64500000D03*
X112000000Y-67000000D03*
X78500000Y-23000000D03*
X87750000Y-19750000D03*
X110500000Y-25750000D03*
X55750000Y-14000000D03*
X55750000Y-16250000D03*
X51750000Y-25750000D03*
X50500000Y-24000000D03*
X40500000Y-34500000D03*
X49000000Y-32000000D03*
X55500000Y-11500000D03*
X68500000Y-11500000D03*
X101965000Y-23565000D03*
X112200000Y-25800000D03*
X69400000Y-61000000D03*
X65400000Y-61000000D03*
X63200000Y-52000000D03*
X63400000Y-60400000D03*
X106000000Y-21000000D03*
X108000000Y-16500000D03*
X52500000Y-52000000D03*
X113500000Y-45000000D03*
X126000000Y-26500000D03*
X79000000Y-21500000D03*
X79000000Y-15000000D03*
X62200000Y-25800000D03*
X67200000Y-25800000D03*
X30000000Y-20000000D03*
X30000000Y-16500000D03*
X13500000Y-36000000D03*
X9500000Y-36000000D03*
X40000000Y-40500000D03*
X40000000Y-43000000D03*
X53500000Y-40000000D03*
X50000000Y-46000000D03*
X78000000Y-40000000D03*
X78000000Y-43000000D03*
X103000000Y-43000000D03*
X103000000Y-40000000D03*
X125500000Y-44500000D03*
X121000000Y-44500000D03*
X112000000Y-65000000D03*
X112000000Y-62000000D03*
X87000000Y-65000000D03*
X87000000Y-62000000D03*
X59000000Y-65000000D03*
X59000000Y-62000000D03*
X37000000Y-65000000D03*
X37000000Y-62000000D03*
X22000000Y-80000000D03*
X25500000Y-65000000D03*
X28000000Y-90000000D03*
X28000000Y-93000000D03*
X53000000Y-93000000D03*
X53000000Y-90000000D03*
X78000000Y-93000000D03*
X78000000Y-90000000D03*
X103000000Y-93000000D03*
X103000000Y-90000000D03*
X120000000Y-94000000D03*
X125000000Y-94000000D03*
X112000000Y-112000000D03*
X112000000Y-115000000D03*
X87000000Y-115000000D03*
X87000000Y-112000000D03*
X62000000Y-115000000D03*
X62000000Y-112000000D03*
X37000000Y-115000000D03*
X37000000Y-112000000D03*
X29800000Y-27600000D03*
X28400000Y-23800000D03*
X56750000Y-37250000D03*
X61500000Y-37500000D03*
X61899999Y-35350001D03*
X53000000Y-38500000D03*
X66750000Y-10000000D03*
X58750000Y-10000000D03*
X59750000Y-8500000D03*
X65750000Y-8500000D03*
M02*
