G04 #@! TF.GenerationSoftware,KiCad,Pcbnew,(5.0.0)*
G04 #@! TF.CreationDate,2018-09-01T12:46:00+09:00*
G04 #@! TF.ProjectId,LED_Board,4C45445F426F6172642E6B696361645F,rev?*
G04 #@! TF.SameCoordinates,PX4c4b400PY1312d00*
G04 #@! TF.FileFunction,Legend,Bot*
G04 #@! TF.FilePolarity,Positive*
%FSLAX46Y46*%
G04 Gerber Fmt 4.6, Leading zero omitted, Abs format (unit mm)*
G04 Created by KiCad (PCBNEW (5.0.0)) date 09/01/18 12:46:00*
%MOMM*%
%LPD*%
G01*
G04 APERTURE LIST*
%ADD10C,0.150000*%
G04 APERTURE END LIST*
D10*
X124154761Y-12285714D02*
X124392857Y-12285714D01*
X124392857Y-10857142D01*
X124154761Y-10857142D01*
X123773809Y-11952380D02*
X123773809Y-10952380D01*
X123535714Y-10952380D01*
X123392857Y-11000000D01*
X123297619Y-11095238D01*
X123250000Y-11190476D01*
X123202380Y-11380952D01*
X123202380Y-11523809D01*
X123250000Y-11714285D01*
X123297619Y-11809523D01*
X123392857Y-11904761D01*
X123535714Y-11952380D01*
X123773809Y-11952380D01*
X122773809Y-11952380D02*
X122773809Y-10952380D01*
X122297619Y-11952380D02*
X122297619Y-10952380D01*
X121726190Y-11952380D01*
X121726190Y-10952380D01*
X121345238Y-12285714D02*
X121107142Y-12285714D01*
X121107142Y-10857142D01*
X121345238Y-10857142D01*
G04 #@! TO.C,LED8*
X74300000Y-38400000D02*
G75*
G03X74300000Y-38400000I-100000J0D01*
G01*
X72500000Y-37500000D02*
X67500000Y-37500000D01*
X72500000Y-42500000D02*
X67500000Y-42500000D01*
G04 #@! TO.C,C26*
X119300000Y-24800000D02*
X116900000Y-24800000D01*
X119300000Y-23200000D02*
X116900000Y-23200000D01*
G04 #@! TO.C,C27*
X94300000Y-24800000D02*
X91900000Y-24800000D01*
X94300000Y-23200000D02*
X91900000Y-23200000D01*
G04 #@! TO.C,C28*
X69300000Y-24800000D02*
X66900000Y-24800000D01*
X69300000Y-23200000D02*
X66900000Y-23200000D01*
G04 #@! TO.C,C29*
X44300000Y-24800000D02*
X41900000Y-24800000D01*
X44300000Y-23200000D02*
X41900000Y-23200000D01*
G04 #@! TO.C,C30*
X19300000Y-24800000D02*
X16900000Y-24800000D01*
X19300000Y-23200000D02*
X16900000Y-23200000D01*
G04 #@! TO.C,C31*
X20700000Y-35200000D02*
X23100000Y-35200000D01*
X20700000Y-36800000D02*
X23100000Y-36800000D01*
G04 #@! TO.C,C32*
X45700000Y-35200000D02*
X48100000Y-35200000D01*
X45700000Y-36800000D02*
X48100000Y-36800000D01*
G04 #@! TO.C,C33*
X70700000Y-35200000D02*
X73100000Y-35200000D01*
X70700000Y-36800000D02*
X73100000Y-36800000D01*
G04 #@! TO.C,C34*
X95700000Y-35200000D02*
X98100000Y-35200000D01*
X95700000Y-36800000D02*
X98100000Y-36800000D01*
G04 #@! TO.C,C35*
X120700000Y-35200000D02*
X123100000Y-35200000D01*
X120700000Y-36800000D02*
X123100000Y-36800000D01*
G04 #@! TO.C,C36*
X119300000Y-69800000D02*
X116900000Y-69800000D01*
X119300000Y-68200000D02*
X116900000Y-68200000D01*
G04 #@! TO.C,C37*
X94300000Y-69800000D02*
X91900000Y-69800000D01*
X94300000Y-68200000D02*
X91900000Y-68200000D01*
G04 #@! TO.C,C38*
X69300000Y-69800000D02*
X66900000Y-69800000D01*
X69300000Y-68200000D02*
X66900000Y-68200000D01*
G04 #@! TO.C,C39*
X44300000Y-69800000D02*
X41900000Y-69800000D01*
X44300000Y-68200000D02*
X41900000Y-68200000D01*
G04 #@! TO.C,C40*
X19300000Y-69800000D02*
X16900000Y-69800000D01*
X19300000Y-68200000D02*
X16900000Y-68200000D01*
G04 #@! TO.C,C41*
X20700000Y-85200000D02*
X23100000Y-85200000D01*
X20700000Y-86800000D02*
X23100000Y-86800000D01*
G04 #@! TO.C,C42*
X45700000Y-85200000D02*
X48100000Y-85200000D01*
X45700000Y-86800000D02*
X48100000Y-86800000D01*
G04 #@! TO.C,C43*
X70700000Y-85200000D02*
X73100000Y-85200000D01*
X70700000Y-86800000D02*
X73100000Y-86800000D01*
G04 #@! TO.C,C44*
X95700000Y-85200000D02*
X98100000Y-85200000D01*
X95700000Y-86800000D02*
X98100000Y-86800000D01*
G04 #@! TO.C,C45*
X120700000Y-85200000D02*
X123100000Y-85200000D01*
X120700000Y-86800000D02*
X123100000Y-86800000D01*
G04 #@! TO.C,C46*
X119300000Y-119800000D02*
X116900000Y-119800000D01*
X119300000Y-118200000D02*
X116900000Y-118200000D01*
G04 #@! TO.C,C47*
X94300000Y-119800000D02*
X91900000Y-119800000D01*
X94300000Y-118200000D02*
X91900000Y-118200000D01*
G04 #@! TO.C,C48*
X69300000Y-119800000D02*
X66900000Y-119800000D01*
X69300000Y-118200000D02*
X66900000Y-118200000D01*
G04 #@! TO.C,C49*
X44300000Y-119800000D02*
X41900000Y-119800000D01*
X44300000Y-118200000D02*
X41900000Y-118200000D01*
G04 #@! TO.C,C50*
X19300000Y-119800000D02*
X16900000Y-119800000D01*
X19300000Y-118200000D02*
X16900000Y-118200000D01*
G04 #@! TO.C,LED1*
X115900000Y-21600000D02*
G75*
G03X115900000Y-21600000I-100000J0D01*
G01*
X117500000Y-22500000D02*
X122500000Y-22500000D01*
X117500000Y-17500000D02*
X122500000Y-17500000D01*
G04 #@! TO.C,LED2*
X90900000Y-21600000D02*
G75*
G03X90900000Y-21600000I-100000J0D01*
G01*
X92500000Y-22500000D02*
X97500000Y-22500000D01*
X92500000Y-17500000D02*
X97500000Y-17500000D01*
G04 #@! TO.C,LED3*
X65900000Y-21600000D02*
G75*
G03X65900000Y-21600000I-100000J0D01*
G01*
X67500000Y-22500000D02*
X72500000Y-22500000D01*
X67500000Y-17500000D02*
X72500000Y-17500000D01*
G04 #@! TO.C,LED4*
X40900000Y-21600000D02*
G75*
G03X40900000Y-21600000I-100000J0D01*
G01*
X42500000Y-22500000D02*
X47500000Y-22500000D01*
X42500000Y-17500000D02*
X47500000Y-17500000D01*
G04 #@! TO.C,LED5*
X15900000Y-21600000D02*
G75*
G03X15900000Y-21600000I-100000J0D01*
G01*
X17500000Y-22500000D02*
X22500000Y-22500000D01*
X17500000Y-17500000D02*
X22500000Y-17500000D01*
G04 #@! TO.C,LED6*
X24300000Y-38400000D02*
G75*
G03X24300000Y-38400000I-100000J0D01*
G01*
X22500000Y-37500000D02*
X17500000Y-37500000D01*
X22500000Y-42500000D02*
X17500000Y-42500000D01*
G04 #@! TO.C,LED7*
X49300000Y-38400000D02*
G75*
G03X49300000Y-38400000I-100000J0D01*
G01*
X47500000Y-37500000D02*
X42500000Y-37500000D01*
X47500000Y-42500000D02*
X42500000Y-42500000D01*
G04 #@! TO.C,LED9*
X99300000Y-38400000D02*
G75*
G03X99300000Y-38400000I-100000J0D01*
G01*
X97500000Y-37500000D02*
X92500000Y-37500000D01*
X97500000Y-42500000D02*
X92500000Y-42500000D01*
G04 #@! TO.C,LED10*
X124300000Y-38400000D02*
G75*
G03X124300000Y-38400000I-100000J0D01*
G01*
X122500000Y-37500000D02*
X117500000Y-37500000D01*
X122500000Y-42500000D02*
X117500000Y-42500000D01*
G04 #@! TO.C,LED11*
X115900000Y-66600000D02*
G75*
G03X115900000Y-66600000I-100000J0D01*
G01*
X117500000Y-67500000D02*
X122500000Y-67500000D01*
X117500000Y-62500000D02*
X122500000Y-62500000D01*
G04 #@! TO.C,LED12*
X90900000Y-66600000D02*
G75*
G03X90900000Y-66600000I-100000J0D01*
G01*
X92500000Y-67500000D02*
X97500000Y-67500000D01*
X92500000Y-62500000D02*
X97500000Y-62500000D01*
G04 #@! TO.C,LED13*
X65900000Y-66600000D02*
G75*
G03X65900000Y-66600000I-100000J0D01*
G01*
X67500000Y-67500000D02*
X72500000Y-67500000D01*
X67500000Y-62500000D02*
X72500000Y-62500000D01*
G04 #@! TO.C,LED14*
X40900000Y-66600000D02*
G75*
G03X40900000Y-66600000I-100000J0D01*
G01*
X42500000Y-67500000D02*
X47500000Y-67500000D01*
X42500000Y-62500000D02*
X47500000Y-62500000D01*
G04 #@! TO.C,LED15*
X15900000Y-66600000D02*
G75*
G03X15900000Y-66600000I-100000J0D01*
G01*
X17500000Y-67500000D02*
X22500000Y-67500000D01*
X17500000Y-62500000D02*
X22500000Y-62500000D01*
G04 #@! TO.C,LED16*
X24300000Y-88400000D02*
G75*
G03X24300000Y-88400000I-100000J0D01*
G01*
X22500000Y-87500000D02*
X17500000Y-87500000D01*
X22500000Y-92500000D02*
X17500000Y-92500000D01*
G04 #@! TO.C,LED17*
X49300000Y-88400000D02*
G75*
G03X49300000Y-88400000I-100000J0D01*
G01*
X47500000Y-87500000D02*
X42500000Y-87500000D01*
X47500000Y-92500000D02*
X42500000Y-92500000D01*
G04 #@! TO.C,LED18*
X74300000Y-88400000D02*
G75*
G03X74300000Y-88400000I-100000J0D01*
G01*
X72500000Y-87500000D02*
X67500000Y-87500000D01*
X72500000Y-92500000D02*
X67500000Y-92500000D01*
G04 #@! TO.C,LED19*
X99300000Y-88400000D02*
G75*
G03X99300000Y-88400000I-100000J0D01*
G01*
X97500000Y-87500000D02*
X92500000Y-87500000D01*
X97500000Y-92500000D02*
X92500000Y-92500000D01*
G04 #@! TO.C,LED20*
X124300000Y-88400000D02*
G75*
G03X124300000Y-88400000I-100000J0D01*
G01*
X122500000Y-87500000D02*
X117500000Y-87500000D01*
X122500000Y-92500000D02*
X117500000Y-92500000D01*
G04 #@! TO.C,LED21*
X115900000Y-116600000D02*
G75*
G03X115900000Y-116600000I-100000J0D01*
G01*
X117500000Y-117500000D02*
X122500000Y-117500000D01*
X117500000Y-112500000D02*
X122500000Y-112500000D01*
G04 #@! TO.C,LED22*
X90900000Y-116600000D02*
G75*
G03X90900000Y-116600000I-100000J0D01*
G01*
X92500000Y-117500000D02*
X97500000Y-117500000D01*
X92500000Y-112500000D02*
X97500000Y-112500000D01*
G04 #@! TO.C,LED23*
X65900000Y-116600000D02*
G75*
G03X65900000Y-116600000I-100000J0D01*
G01*
X67500000Y-117500000D02*
X72500000Y-117500000D01*
X67500000Y-112500000D02*
X72500000Y-112500000D01*
G04 #@! TO.C,LED24*
X40900000Y-116600000D02*
G75*
G03X40900000Y-116600000I-100000J0D01*
G01*
X42500000Y-117500000D02*
X47500000Y-117500000D01*
X42500000Y-112500000D02*
X47500000Y-112500000D01*
G04 #@! TO.C,LED25*
X15900000Y-116600000D02*
G75*
G03X15900000Y-116600000I-100000J0D01*
G01*
X17500000Y-117500000D02*
X22500000Y-117500000D01*
X17500000Y-112500000D02*
X22500000Y-112500000D01*
G04 #@! TO.C,R37*
X114600000Y-23200000D02*
X114600000Y-24800000D01*
X116200000Y-23200000D02*
X114600000Y-23200000D01*
X116200000Y-26400000D02*
X116200000Y-23200000D01*
X114600000Y-26400000D02*
X116200000Y-26400000D01*
X114600000Y-24800000D02*
X114600000Y-26400000D01*
G04 #@! TO.C,R38*
X89600000Y-23200000D02*
X89600000Y-24800000D01*
X91200000Y-23200000D02*
X89600000Y-23200000D01*
X91200000Y-26400000D02*
X91200000Y-23200000D01*
X89600000Y-26400000D02*
X91200000Y-26400000D01*
X89600000Y-24800000D02*
X89600000Y-26400000D01*
G04 #@! TO.C,R39*
X64600000Y-23200000D02*
X64600000Y-24800000D01*
X66200000Y-23200000D02*
X64600000Y-23200000D01*
X66200000Y-26400000D02*
X66200000Y-23200000D01*
X64600000Y-26400000D02*
X66200000Y-26400000D01*
X64600000Y-24800000D02*
X64600000Y-26400000D01*
G04 #@! TO.C,R40*
X39600000Y-23200000D02*
X39600000Y-24800000D01*
X41200000Y-23200000D02*
X39600000Y-23200000D01*
X41200000Y-26400000D02*
X41200000Y-23200000D01*
X39600000Y-26400000D02*
X41200000Y-26400000D01*
X39600000Y-24800000D02*
X39600000Y-26400000D01*
G04 #@! TO.C,R41*
X14600000Y-23200000D02*
X14600000Y-24800000D01*
X16200000Y-23200000D02*
X14600000Y-23200000D01*
X16200000Y-26400000D02*
X16200000Y-23200000D01*
X14600000Y-26400000D02*
X16200000Y-26400000D01*
X14600000Y-24800000D02*
X14600000Y-26400000D01*
G04 #@! TO.C,R42*
X25400000Y-36800000D02*
X25400000Y-35200000D01*
X23800000Y-36800000D02*
X25400000Y-36800000D01*
X23800000Y-33600000D02*
X23800000Y-36800000D01*
X25400000Y-33600000D02*
X23800000Y-33600000D01*
X25400000Y-35200000D02*
X25400000Y-33600000D01*
G04 #@! TO.C,R43*
X50400000Y-36800000D02*
X50400000Y-35200000D01*
X48800000Y-36800000D02*
X50400000Y-36800000D01*
X48800000Y-33600000D02*
X48800000Y-36800000D01*
X50400000Y-33600000D02*
X48800000Y-33600000D01*
X50400000Y-35200000D02*
X50400000Y-33600000D01*
G04 #@! TO.C,R44*
X75400000Y-36800000D02*
X75400000Y-35200000D01*
X73800000Y-36800000D02*
X75400000Y-36800000D01*
X73800000Y-33600000D02*
X73800000Y-36800000D01*
X75400000Y-33600000D02*
X73800000Y-33600000D01*
X75400000Y-35200000D02*
X75400000Y-33600000D01*
G04 #@! TO.C,R45*
X100400000Y-36800000D02*
X100400000Y-35200000D01*
X98800000Y-36800000D02*
X100400000Y-36800000D01*
X98800000Y-33600000D02*
X98800000Y-36800000D01*
X100400000Y-33600000D02*
X98800000Y-33600000D01*
X100400000Y-35200000D02*
X100400000Y-33600000D01*
G04 #@! TO.C,R46*
X125400000Y-36800000D02*
X125400000Y-35200000D01*
X123800000Y-36800000D02*
X125400000Y-36800000D01*
X123800000Y-33600000D02*
X123800000Y-36800000D01*
X125400000Y-33600000D02*
X123800000Y-33600000D01*
X125400000Y-35200000D02*
X125400000Y-33600000D01*
G04 #@! TO.C,R47*
X114600000Y-68200000D02*
X114600000Y-69800000D01*
X116200000Y-68200000D02*
X114600000Y-68200000D01*
X116200000Y-71400000D02*
X116200000Y-68200000D01*
X114600000Y-71400000D02*
X116200000Y-71400000D01*
X114600000Y-69800000D02*
X114600000Y-71400000D01*
G04 #@! TO.C,R48*
X89600000Y-68200000D02*
X89600000Y-69800000D01*
X91200000Y-68200000D02*
X89600000Y-68200000D01*
X91200000Y-71400000D02*
X91200000Y-68200000D01*
X89600000Y-71400000D02*
X91200000Y-71400000D01*
X89600000Y-69800000D02*
X89600000Y-71400000D01*
G04 #@! TO.C,R49*
X64600000Y-68200000D02*
X64600000Y-69800000D01*
X66200000Y-68200000D02*
X64600000Y-68200000D01*
X66200000Y-71400000D02*
X66200000Y-68200000D01*
X64600000Y-71400000D02*
X66200000Y-71400000D01*
X64600000Y-69800000D02*
X64600000Y-71400000D01*
G04 #@! TO.C,R50*
X39600000Y-68200000D02*
X39600000Y-69800000D01*
X41200000Y-68200000D02*
X39600000Y-68200000D01*
X41200000Y-71400000D02*
X41200000Y-68200000D01*
X39600000Y-71400000D02*
X41200000Y-71400000D01*
X39600000Y-69800000D02*
X39600000Y-71400000D01*
G04 #@! TO.C,R51*
X14600000Y-68200000D02*
X14600000Y-69800000D01*
X16200000Y-68200000D02*
X14600000Y-68200000D01*
X16200000Y-71400000D02*
X16200000Y-68200000D01*
X14600000Y-71400000D02*
X16200000Y-71400000D01*
X14600000Y-69800000D02*
X14600000Y-71400000D01*
G04 #@! TO.C,R52*
X25400000Y-86800000D02*
X25400000Y-85200000D01*
X23800000Y-86800000D02*
X25400000Y-86800000D01*
X23800000Y-83600000D02*
X23800000Y-86800000D01*
X25400000Y-83600000D02*
X23800000Y-83600000D01*
X25400000Y-85200000D02*
X25400000Y-83600000D01*
G04 #@! TO.C,R53*
X50400000Y-86800000D02*
X50400000Y-85200000D01*
X48800000Y-86800000D02*
X50400000Y-86800000D01*
X48800000Y-83600000D02*
X48800000Y-86800000D01*
X50400000Y-83600000D02*
X48800000Y-83600000D01*
X50400000Y-85200000D02*
X50400000Y-83600000D01*
G04 #@! TO.C,R54*
X75400000Y-86800000D02*
X75400000Y-85200000D01*
X73800000Y-86800000D02*
X75400000Y-86800000D01*
X73800000Y-83600000D02*
X73800000Y-86800000D01*
X75400000Y-83600000D02*
X73800000Y-83600000D01*
X75400000Y-85200000D02*
X75400000Y-83600000D01*
G04 #@! TO.C,R55*
X100400000Y-86800000D02*
X100400000Y-85200000D01*
X98800000Y-86800000D02*
X100400000Y-86800000D01*
X98800000Y-83600000D02*
X98800000Y-86800000D01*
X100400000Y-83600000D02*
X98800000Y-83600000D01*
X100400000Y-85200000D02*
X100400000Y-83600000D01*
G04 #@! TO.C,R56*
X125400000Y-86800000D02*
X125400000Y-85200000D01*
X123800000Y-86800000D02*
X125400000Y-86800000D01*
X123800000Y-83600000D02*
X123800000Y-86800000D01*
X125400000Y-83600000D02*
X123800000Y-83600000D01*
X125400000Y-85200000D02*
X125400000Y-83600000D01*
G04 #@! TO.C,R57*
X114600000Y-118200000D02*
X114600000Y-119800000D01*
X116200000Y-118200000D02*
X114600000Y-118200000D01*
X116200000Y-121400000D02*
X116200000Y-118200000D01*
X114600000Y-121400000D02*
X116200000Y-121400000D01*
X114600000Y-119800000D02*
X114600000Y-121400000D01*
G04 #@! TO.C,R58*
X89600000Y-118200000D02*
X89600000Y-119800000D01*
X91200000Y-118200000D02*
X89600000Y-118200000D01*
X91200000Y-121400000D02*
X91200000Y-118200000D01*
X89600000Y-121400000D02*
X91200000Y-121400000D01*
X89600000Y-119800000D02*
X89600000Y-121400000D01*
G04 #@! TO.C,R59*
X64600000Y-118200000D02*
X64600000Y-119800000D01*
X66200000Y-118200000D02*
X64600000Y-118200000D01*
X66200000Y-121400000D02*
X66200000Y-118200000D01*
X64600000Y-121400000D02*
X66200000Y-121400000D01*
X64600000Y-119800000D02*
X64600000Y-121400000D01*
G04 #@! TO.C,R60*
X39600000Y-118200000D02*
X39600000Y-119800000D01*
X41200000Y-118200000D02*
X39600000Y-118200000D01*
X41200000Y-121400000D02*
X41200000Y-118200000D01*
X39600000Y-121400000D02*
X41200000Y-121400000D01*
X39600000Y-119800000D02*
X39600000Y-121400000D01*
G04 #@! TO.C,R61*
X14600000Y-118200000D02*
X14600000Y-119800000D01*
X16200000Y-118200000D02*
X14600000Y-118200000D01*
X16200000Y-121400000D02*
X16200000Y-118200000D01*
X14600000Y-121400000D02*
X16200000Y-121400000D01*
X14600000Y-119800000D02*
X14600000Y-121400000D01*
G04 #@! TO.C,*
X124150000Y-14000000D02*
G75*
G03X124150000Y-14000000I-1400000J0D01*
G01*
G04 #@! TO.C,LED8*
X71119047Y-43952380D02*
X71595238Y-43952380D01*
X71595238Y-42952380D01*
X70785714Y-43428571D02*
X70452380Y-43428571D01*
X70309523Y-43952380D02*
X70785714Y-43952380D01*
X70785714Y-42952380D01*
X70309523Y-42952380D01*
X69880952Y-43952380D02*
X69880952Y-42952380D01*
X69642857Y-42952380D01*
X69500000Y-43000000D01*
X69404761Y-43095238D01*
X69357142Y-43190476D01*
X69309523Y-43380952D01*
X69309523Y-43523809D01*
X69357142Y-43714285D01*
X69404761Y-43809523D01*
X69500000Y-43904761D01*
X69642857Y-43952380D01*
X69880952Y-43952380D01*
X68738095Y-43380952D02*
X68833333Y-43333333D01*
X68880952Y-43285714D01*
X68928571Y-43190476D01*
X68928571Y-43142857D01*
X68880952Y-43047619D01*
X68833333Y-43000000D01*
X68738095Y-42952380D01*
X68547619Y-42952380D01*
X68452380Y-43000000D01*
X68404761Y-43047619D01*
X68357142Y-43142857D01*
X68357142Y-43190476D01*
X68404761Y-43285714D01*
X68452380Y-43333333D01*
X68547619Y-43380952D01*
X68738095Y-43380952D01*
X68833333Y-43428571D01*
X68880952Y-43476190D01*
X68928571Y-43571428D01*
X68928571Y-43761904D01*
X68880952Y-43857142D01*
X68833333Y-43904761D01*
X68738095Y-43952380D01*
X68547619Y-43952380D01*
X68452380Y-43904761D01*
X68404761Y-43857142D01*
X68357142Y-43761904D01*
X68357142Y-43571428D01*
X68404761Y-43476190D01*
X68452380Y-43428571D01*
X68547619Y-43380952D01*
G04 #@! TO.C,C26*
X118742857Y-26107142D02*
X118790476Y-26154761D01*
X118933333Y-26202380D01*
X119028571Y-26202380D01*
X119171428Y-26154761D01*
X119266666Y-26059523D01*
X119314285Y-25964285D01*
X119361904Y-25773809D01*
X119361904Y-25630952D01*
X119314285Y-25440476D01*
X119266666Y-25345238D01*
X119171428Y-25250000D01*
X119028571Y-25202380D01*
X118933333Y-25202380D01*
X118790476Y-25250000D01*
X118742857Y-25297619D01*
X118361904Y-25297619D02*
X118314285Y-25250000D01*
X118219047Y-25202380D01*
X117980952Y-25202380D01*
X117885714Y-25250000D01*
X117838095Y-25297619D01*
X117790476Y-25392857D01*
X117790476Y-25488095D01*
X117838095Y-25630952D01*
X118409523Y-26202380D01*
X117790476Y-26202380D01*
X116933333Y-25202380D02*
X117123809Y-25202380D01*
X117219047Y-25250000D01*
X117266666Y-25297619D01*
X117361904Y-25440476D01*
X117409523Y-25630952D01*
X117409523Y-26011904D01*
X117361904Y-26107142D01*
X117314285Y-26154761D01*
X117219047Y-26202380D01*
X117028571Y-26202380D01*
X116933333Y-26154761D01*
X116885714Y-26107142D01*
X116838095Y-26011904D01*
X116838095Y-25773809D01*
X116885714Y-25678571D01*
X116933333Y-25630952D01*
X117028571Y-25583333D01*
X117219047Y-25583333D01*
X117314285Y-25630952D01*
X117361904Y-25678571D01*
X117409523Y-25773809D01*
G04 #@! TO.C,C27*
X93742857Y-26107142D02*
X93790476Y-26154761D01*
X93933333Y-26202380D01*
X94028571Y-26202380D01*
X94171428Y-26154761D01*
X94266666Y-26059523D01*
X94314285Y-25964285D01*
X94361904Y-25773809D01*
X94361904Y-25630952D01*
X94314285Y-25440476D01*
X94266666Y-25345238D01*
X94171428Y-25250000D01*
X94028571Y-25202380D01*
X93933333Y-25202380D01*
X93790476Y-25250000D01*
X93742857Y-25297619D01*
X93361904Y-25297619D02*
X93314285Y-25250000D01*
X93219047Y-25202380D01*
X92980952Y-25202380D01*
X92885714Y-25250000D01*
X92838095Y-25297619D01*
X92790476Y-25392857D01*
X92790476Y-25488095D01*
X92838095Y-25630952D01*
X93409523Y-26202380D01*
X92790476Y-26202380D01*
X92457142Y-25202380D02*
X91790476Y-25202380D01*
X92219047Y-26202380D01*
G04 #@! TO.C,C28*
X68892857Y-26107142D02*
X68940476Y-26154761D01*
X69083333Y-26202380D01*
X69178571Y-26202380D01*
X69321428Y-26154761D01*
X69416666Y-26059523D01*
X69464285Y-25964285D01*
X69511904Y-25773809D01*
X69511904Y-25630952D01*
X69464285Y-25440476D01*
X69416666Y-25345238D01*
X69321428Y-25250000D01*
X69178571Y-25202380D01*
X69083333Y-25202380D01*
X68940476Y-25250000D01*
X68892857Y-25297619D01*
X68511904Y-25297619D02*
X68464285Y-25250000D01*
X68369047Y-25202380D01*
X68130952Y-25202380D01*
X68035714Y-25250000D01*
X67988095Y-25297619D01*
X67940476Y-25392857D01*
X67940476Y-25488095D01*
X67988095Y-25630952D01*
X68559523Y-26202380D01*
X67940476Y-26202380D01*
X67369047Y-25630952D02*
X67464285Y-25583333D01*
X67511904Y-25535714D01*
X67559523Y-25440476D01*
X67559523Y-25392857D01*
X67511904Y-25297619D01*
X67464285Y-25250000D01*
X67369047Y-25202380D01*
X67178571Y-25202380D01*
X67083333Y-25250000D01*
X67035714Y-25297619D01*
X66988095Y-25392857D01*
X66988095Y-25440476D01*
X67035714Y-25535714D01*
X67083333Y-25583333D01*
X67178571Y-25630952D01*
X67369047Y-25630952D01*
X67464285Y-25678571D01*
X67511904Y-25726190D01*
X67559523Y-25821428D01*
X67559523Y-26011904D01*
X67511904Y-26107142D01*
X67464285Y-26154761D01*
X67369047Y-26202380D01*
X67178571Y-26202380D01*
X67083333Y-26154761D01*
X67035714Y-26107142D01*
X66988095Y-26011904D01*
X66988095Y-25821428D01*
X67035714Y-25726190D01*
X67083333Y-25678571D01*
X67178571Y-25630952D01*
G04 #@! TO.C,C29*
X43742857Y-26107142D02*
X43790476Y-26154761D01*
X43933333Y-26202380D01*
X44028571Y-26202380D01*
X44171428Y-26154761D01*
X44266666Y-26059523D01*
X44314285Y-25964285D01*
X44361904Y-25773809D01*
X44361904Y-25630952D01*
X44314285Y-25440476D01*
X44266666Y-25345238D01*
X44171428Y-25250000D01*
X44028571Y-25202380D01*
X43933333Y-25202380D01*
X43790476Y-25250000D01*
X43742857Y-25297619D01*
X43361904Y-25297619D02*
X43314285Y-25250000D01*
X43219047Y-25202380D01*
X42980952Y-25202380D01*
X42885714Y-25250000D01*
X42838095Y-25297619D01*
X42790476Y-25392857D01*
X42790476Y-25488095D01*
X42838095Y-25630952D01*
X43409523Y-26202380D01*
X42790476Y-26202380D01*
X42314285Y-26202380D02*
X42123809Y-26202380D01*
X42028571Y-26154761D01*
X41980952Y-26107142D01*
X41885714Y-25964285D01*
X41838095Y-25773809D01*
X41838095Y-25392857D01*
X41885714Y-25297619D01*
X41933333Y-25250000D01*
X42028571Y-25202380D01*
X42219047Y-25202380D01*
X42314285Y-25250000D01*
X42361904Y-25297619D01*
X42409523Y-25392857D01*
X42409523Y-25630952D01*
X42361904Y-25726190D01*
X42314285Y-25773809D01*
X42219047Y-25821428D01*
X42028571Y-25821428D01*
X41933333Y-25773809D01*
X41885714Y-25726190D01*
X41838095Y-25630952D01*
G04 #@! TO.C,C30*
X18742857Y-26107142D02*
X18790476Y-26154761D01*
X18933333Y-26202380D01*
X19028571Y-26202380D01*
X19171428Y-26154761D01*
X19266666Y-26059523D01*
X19314285Y-25964285D01*
X19361904Y-25773809D01*
X19361904Y-25630952D01*
X19314285Y-25440476D01*
X19266666Y-25345238D01*
X19171428Y-25250000D01*
X19028571Y-25202380D01*
X18933333Y-25202380D01*
X18790476Y-25250000D01*
X18742857Y-25297619D01*
X18409523Y-25202380D02*
X17790476Y-25202380D01*
X18123809Y-25583333D01*
X17980952Y-25583333D01*
X17885714Y-25630952D01*
X17838095Y-25678571D01*
X17790476Y-25773809D01*
X17790476Y-26011904D01*
X17838095Y-26107142D01*
X17885714Y-26154761D01*
X17980952Y-26202380D01*
X18266666Y-26202380D01*
X18361904Y-26154761D01*
X18409523Y-26107142D01*
X17171428Y-25202380D02*
X17076190Y-25202380D01*
X16980952Y-25250000D01*
X16933333Y-25297619D01*
X16885714Y-25392857D01*
X16838095Y-25583333D01*
X16838095Y-25821428D01*
X16885714Y-26011904D01*
X16933333Y-26107142D01*
X16980952Y-26154761D01*
X17076190Y-26202380D01*
X17171428Y-26202380D01*
X17266666Y-26154761D01*
X17314285Y-26107142D01*
X17361904Y-26011904D01*
X17409523Y-25821428D01*
X17409523Y-25583333D01*
X17361904Y-25392857D01*
X17314285Y-25297619D01*
X17266666Y-25250000D01*
X17171428Y-25202380D01*
G04 #@! TO.C,C31*
X22542857Y-34607142D02*
X22590476Y-34654761D01*
X22733333Y-34702380D01*
X22828571Y-34702380D01*
X22971428Y-34654761D01*
X23066666Y-34559523D01*
X23114285Y-34464285D01*
X23161904Y-34273809D01*
X23161904Y-34130952D01*
X23114285Y-33940476D01*
X23066666Y-33845238D01*
X22971428Y-33750000D01*
X22828571Y-33702380D01*
X22733333Y-33702380D01*
X22590476Y-33750000D01*
X22542857Y-33797619D01*
X22209523Y-33702380D02*
X21590476Y-33702380D01*
X21923809Y-34083333D01*
X21780952Y-34083333D01*
X21685714Y-34130952D01*
X21638095Y-34178571D01*
X21590476Y-34273809D01*
X21590476Y-34511904D01*
X21638095Y-34607142D01*
X21685714Y-34654761D01*
X21780952Y-34702380D01*
X22066666Y-34702380D01*
X22161904Y-34654761D01*
X22209523Y-34607142D01*
X20638095Y-34702380D02*
X21209523Y-34702380D01*
X20923809Y-34702380D02*
X20923809Y-33702380D01*
X21019047Y-33845238D01*
X21114285Y-33940476D01*
X21209523Y-33988095D01*
G04 #@! TO.C,C32*
X47542857Y-34607142D02*
X47590476Y-34654761D01*
X47733333Y-34702380D01*
X47828571Y-34702380D01*
X47971428Y-34654761D01*
X48066666Y-34559523D01*
X48114285Y-34464285D01*
X48161904Y-34273809D01*
X48161904Y-34130952D01*
X48114285Y-33940476D01*
X48066666Y-33845238D01*
X47971428Y-33750000D01*
X47828571Y-33702380D01*
X47733333Y-33702380D01*
X47590476Y-33750000D01*
X47542857Y-33797619D01*
X47209523Y-33702380D02*
X46590476Y-33702380D01*
X46923809Y-34083333D01*
X46780952Y-34083333D01*
X46685714Y-34130952D01*
X46638095Y-34178571D01*
X46590476Y-34273809D01*
X46590476Y-34511904D01*
X46638095Y-34607142D01*
X46685714Y-34654761D01*
X46780952Y-34702380D01*
X47066666Y-34702380D01*
X47161904Y-34654761D01*
X47209523Y-34607142D01*
X46209523Y-33797619D02*
X46161904Y-33750000D01*
X46066666Y-33702380D01*
X45828571Y-33702380D01*
X45733333Y-33750000D01*
X45685714Y-33797619D01*
X45638095Y-33892857D01*
X45638095Y-33988095D01*
X45685714Y-34130952D01*
X46257142Y-34702380D01*
X45638095Y-34702380D01*
G04 #@! TO.C,C33*
X72542857Y-34607142D02*
X72590476Y-34654761D01*
X72733333Y-34702380D01*
X72828571Y-34702380D01*
X72971428Y-34654761D01*
X73066666Y-34559523D01*
X73114285Y-34464285D01*
X73161904Y-34273809D01*
X73161904Y-34130952D01*
X73114285Y-33940476D01*
X73066666Y-33845238D01*
X72971428Y-33750000D01*
X72828571Y-33702380D01*
X72733333Y-33702380D01*
X72590476Y-33750000D01*
X72542857Y-33797619D01*
X72209523Y-33702380D02*
X71590476Y-33702380D01*
X71923809Y-34083333D01*
X71780952Y-34083333D01*
X71685714Y-34130952D01*
X71638095Y-34178571D01*
X71590476Y-34273809D01*
X71590476Y-34511904D01*
X71638095Y-34607142D01*
X71685714Y-34654761D01*
X71780952Y-34702380D01*
X72066666Y-34702380D01*
X72161904Y-34654761D01*
X72209523Y-34607142D01*
X71257142Y-33702380D02*
X70638095Y-33702380D01*
X70971428Y-34083333D01*
X70828571Y-34083333D01*
X70733333Y-34130952D01*
X70685714Y-34178571D01*
X70638095Y-34273809D01*
X70638095Y-34511904D01*
X70685714Y-34607142D01*
X70733333Y-34654761D01*
X70828571Y-34702380D01*
X71114285Y-34702380D01*
X71209523Y-34654761D01*
X71257142Y-34607142D01*
G04 #@! TO.C,C34*
X97392857Y-34607142D02*
X97440476Y-34654761D01*
X97583333Y-34702380D01*
X97678571Y-34702380D01*
X97821428Y-34654761D01*
X97916666Y-34559523D01*
X97964285Y-34464285D01*
X98011904Y-34273809D01*
X98011904Y-34130952D01*
X97964285Y-33940476D01*
X97916666Y-33845238D01*
X97821428Y-33750000D01*
X97678571Y-33702380D01*
X97583333Y-33702380D01*
X97440476Y-33750000D01*
X97392857Y-33797619D01*
X97059523Y-33702380D02*
X96440476Y-33702380D01*
X96773809Y-34083333D01*
X96630952Y-34083333D01*
X96535714Y-34130952D01*
X96488095Y-34178571D01*
X96440476Y-34273809D01*
X96440476Y-34511904D01*
X96488095Y-34607142D01*
X96535714Y-34654761D01*
X96630952Y-34702380D01*
X96916666Y-34702380D01*
X97011904Y-34654761D01*
X97059523Y-34607142D01*
X95583333Y-34035714D02*
X95583333Y-34702380D01*
X95821428Y-33654761D02*
X96059523Y-34369047D01*
X95440476Y-34369047D01*
G04 #@! TO.C,C35*
X122542857Y-34607142D02*
X122590476Y-34654761D01*
X122733333Y-34702380D01*
X122828571Y-34702380D01*
X122971428Y-34654761D01*
X123066666Y-34559523D01*
X123114285Y-34464285D01*
X123161904Y-34273809D01*
X123161904Y-34130952D01*
X123114285Y-33940476D01*
X123066666Y-33845238D01*
X122971428Y-33750000D01*
X122828571Y-33702380D01*
X122733333Y-33702380D01*
X122590476Y-33750000D01*
X122542857Y-33797619D01*
X122209523Y-33702380D02*
X121590476Y-33702380D01*
X121923809Y-34083333D01*
X121780952Y-34083333D01*
X121685714Y-34130952D01*
X121638095Y-34178571D01*
X121590476Y-34273809D01*
X121590476Y-34511904D01*
X121638095Y-34607142D01*
X121685714Y-34654761D01*
X121780952Y-34702380D01*
X122066666Y-34702380D01*
X122161904Y-34654761D01*
X122209523Y-34607142D01*
X120685714Y-33702380D02*
X121161904Y-33702380D01*
X121209523Y-34178571D01*
X121161904Y-34130952D01*
X121066666Y-34083333D01*
X120828571Y-34083333D01*
X120733333Y-34130952D01*
X120685714Y-34178571D01*
X120638095Y-34273809D01*
X120638095Y-34511904D01*
X120685714Y-34607142D01*
X120733333Y-34654761D01*
X120828571Y-34702380D01*
X121066666Y-34702380D01*
X121161904Y-34654761D01*
X121209523Y-34607142D01*
G04 #@! TO.C,C36*
X118742857Y-71107142D02*
X118790476Y-71154761D01*
X118933333Y-71202380D01*
X119028571Y-71202380D01*
X119171428Y-71154761D01*
X119266666Y-71059523D01*
X119314285Y-70964285D01*
X119361904Y-70773809D01*
X119361904Y-70630952D01*
X119314285Y-70440476D01*
X119266666Y-70345238D01*
X119171428Y-70250000D01*
X119028571Y-70202380D01*
X118933333Y-70202380D01*
X118790476Y-70250000D01*
X118742857Y-70297619D01*
X118409523Y-70202380D02*
X117790476Y-70202380D01*
X118123809Y-70583333D01*
X117980952Y-70583333D01*
X117885714Y-70630952D01*
X117838095Y-70678571D01*
X117790476Y-70773809D01*
X117790476Y-71011904D01*
X117838095Y-71107142D01*
X117885714Y-71154761D01*
X117980952Y-71202380D01*
X118266666Y-71202380D01*
X118361904Y-71154761D01*
X118409523Y-71107142D01*
X116933333Y-70202380D02*
X117123809Y-70202380D01*
X117219047Y-70250000D01*
X117266666Y-70297619D01*
X117361904Y-70440476D01*
X117409523Y-70630952D01*
X117409523Y-71011904D01*
X117361904Y-71107142D01*
X117314285Y-71154761D01*
X117219047Y-71202380D01*
X117028571Y-71202380D01*
X116933333Y-71154761D01*
X116885714Y-71107142D01*
X116838095Y-71011904D01*
X116838095Y-70773809D01*
X116885714Y-70678571D01*
X116933333Y-70630952D01*
X117028571Y-70583333D01*
X117219047Y-70583333D01*
X117314285Y-70630952D01*
X117361904Y-70678571D01*
X117409523Y-70773809D01*
G04 #@! TO.C,C37*
X93742857Y-71107142D02*
X93790476Y-71154761D01*
X93933333Y-71202380D01*
X94028571Y-71202380D01*
X94171428Y-71154761D01*
X94266666Y-71059523D01*
X94314285Y-70964285D01*
X94361904Y-70773809D01*
X94361904Y-70630952D01*
X94314285Y-70440476D01*
X94266666Y-70345238D01*
X94171428Y-70250000D01*
X94028571Y-70202380D01*
X93933333Y-70202380D01*
X93790476Y-70250000D01*
X93742857Y-70297619D01*
X93409523Y-70202380D02*
X92790476Y-70202380D01*
X93123809Y-70583333D01*
X92980952Y-70583333D01*
X92885714Y-70630952D01*
X92838095Y-70678571D01*
X92790476Y-70773809D01*
X92790476Y-71011904D01*
X92838095Y-71107142D01*
X92885714Y-71154761D01*
X92980952Y-71202380D01*
X93266666Y-71202380D01*
X93361904Y-71154761D01*
X93409523Y-71107142D01*
X92457142Y-70202380D02*
X91790476Y-70202380D01*
X92219047Y-71202380D01*
G04 #@! TO.C,C38*
X68742857Y-71107142D02*
X68790476Y-71154761D01*
X68933333Y-71202380D01*
X69028571Y-71202380D01*
X69171428Y-71154761D01*
X69266666Y-71059523D01*
X69314285Y-70964285D01*
X69361904Y-70773809D01*
X69361904Y-70630952D01*
X69314285Y-70440476D01*
X69266666Y-70345238D01*
X69171428Y-70250000D01*
X69028571Y-70202380D01*
X68933333Y-70202380D01*
X68790476Y-70250000D01*
X68742857Y-70297619D01*
X68409523Y-70202380D02*
X67790476Y-70202380D01*
X68123809Y-70583333D01*
X67980952Y-70583333D01*
X67885714Y-70630952D01*
X67838095Y-70678571D01*
X67790476Y-70773809D01*
X67790476Y-71011904D01*
X67838095Y-71107142D01*
X67885714Y-71154761D01*
X67980952Y-71202380D01*
X68266666Y-71202380D01*
X68361904Y-71154761D01*
X68409523Y-71107142D01*
X67219047Y-70630952D02*
X67314285Y-70583333D01*
X67361904Y-70535714D01*
X67409523Y-70440476D01*
X67409523Y-70392857D01*
X67361904Y-70297619D01*
X67314285Y-70250000D01*
X67219047Y-70202380D01*
X67028571Y-70202380D01*
X66933333Y-70250000D01*
X66885714Y-70297619D01*
X66838095Y-70392857D01*
X66838095Y-70440476D01*
X66885714Y-70535714D01*
X66933333Y-70583333D01*
X67028571Y-70630952D01*
X67219047Y-70630952D01*
X67314285Y-70678571D01*
X67361904Y-70726190D01*
X67409523Y-70821428D01*
X67409523Y-71011904D01*
X67361904Y-71107142D01*
X67314285Y-71154761D01*
X67219047Y-71202380D01*
X67028571Y-71202380D01*
X66933333Y-71154761D01*
X66885714Y-71107142D01*
X66838095Y-71011904D01*
X66838095Y-70821428D01*
X66885714Y-70726190D01*
X66933333Y-70678571D01*
X67028571Y-70630952D01*
G04 #@! TO.C,C39*
X43742857Y-71107142D02*
X43790476Y-71154761D01*
X43933333Y-71202380D01*
X44028571Y-71202380D01*
X44171428Y-71154761D01*
X44266666Y-71059523D01*
X44314285Y-70964285D01*
X44361904Y-70773809D01*
X44361904Y-70630952D01*
X44314285Y-70440476D01*
X44266666Y-70345238D01*
X44171428Y-70250000D01*
X44028571Y-70202380D01*
X43933333Y-70202380D01*
X43790476Y-70250000D01*
X43742857Y-70297619D01*
X43409523Y-70202380D02*
X42790476Y-70202380D01*
X43123809Y-70583333D01*
X42980952Y-70583333D01*
X42885714Y-70630952D01*
X42838095Y-70678571D01*
X42790476Y-70773809D01*
X42790476Y-71011904D01*
X42838095Y-71107142D01*
X42885714Y-71154761D01*
X42980952Y-71202380D01*
X43266666Y-71202380D01*
X43361904Y-71154761D01*
X43409523Y-71107142D01*
X42314285Y-71202380D02*
X42123809Y-71202380D01*
X42028571Y-71154761D01*
X41980952Y-71107142D01*
X41885714Y-70964285D01*
X41838095Y-70773809D01*
X41838095Y-70392857D01*
X41885714Y-70297619D01*
X41933333Y-70250000D01*
X42028571Y-70202380D01*
X42219047Y-70202380D01*
X42314285Y-70250000D01*
X42361904Y-70297619D01*
X42409523Y-70392857D01*
X42409523Y-70630952D01*
X42361904Y-70726190D01*
X42314285Y-70773809D01*
X42219047Y-70821428D01*
X42028571Y-70821428D01*
X41933333Y-70773809D01*
X41885714Y-70726190D01*
X41838095Y-70630952D01*
G04 #@! TO.C,C40*
X18742857Y-71107142D02*
X18790476Y-71154761D01*
X18933333Y-71202380D01*
X19028571Y-71202380D01*
X19171428Y-71154761D01*
X19266666Y-71059523D01*
X19314285Y-70964285D01*
X19361904Y-70773809D01*
X19361904Y-70630952D01*
X19314285Y-70440476D01*
X19266666Y-70345238D01*
X19171428Y-70250000D01*
X19028571Y-70202380D01*
X18933333Y-70202380D01*
X18790476Y-70250000D01*
X18742857Y-70297619D01*
X17885714Y-70535714D02*
X17885714Y-71202380D01*
X18123809Y-70154761D02*
X18361904Y-70869047D01*
X17742857Y-70869047D01*
X17171428Y-70202380D02*
X17076190Y-70202380D01*
X16980952Y-70250000D01*
X16933333Y-70297619D01*
X16885714Y-70392857D01*
X16838095Y-70583333D01*
X16838095Y-70821428D01*
X16885714Y-71011904D01*
X16933333Y-71107142D01*
X16980952Y-71154761D01*
X17076190Y-71202380D01*
X17171428Y-71202380D01*
X17266666Y-71154761D01*
X17314285Y-71107142D01*
X17361904Y-71011904D01*
X17409523Y-70821428D01*
X17409523Y-70583333D01*
X17361904Y-70392857D01*
X17314285Y-70297619D01*
X17266666Y-70250000D01*
X17171428Y-70202380D01*
G04 #@! TO.C,C41*
X22542857Y-84607142D02*
X22590476Y-84654761D01*
X22733333Y-84702380D01*
X22828571Y-84702380D01*
X22971428Y-84654761D01*
X23066666Y-84559523D01*
X23114285Y-84464285D01*
X23161904Y-84273809D01*
X23161904Y-84130952D01*
X23114285Y-83940476D01*
X23066666Y-83845238D01*
X22971428Y-83750000D01*
X22828571Y-83702380D01*
X22733333Y-83702380D01*
X22590476Y-83750000D01*
X22542857Y-83797619D01*
X21685714Y-84035714D02*
X21685714Y-84702380D01*
X21923809Y-83654761D02*
X22161904Y-84369047D01*
X21542857Y-84369047D01*
X20638095Y-84702380D02*
X21209523Y-84702380D01*
X20923809Y-84702380D02*
X20923809Y-83702380D01*
X21019047Y-83845238D01*
X21114285Y-83940476D01*
X21209523Y-83988095D01*
G04 #@! TO.C,C42*
X47542857Y-84607142D02*
X47590476Y-84654761D01*
X47733333Y-84702380D01*
X47828571Y-84702380D01*
X47971428Y-84654761D01*
X48066666Y-84559523D01*
X48114285Y-84464285D01*
X48161904Y-84273809D01*
X48161904Y-84130952D01*
X48114285Y-83940476D01*
X48066666Y-83845238D01*
X47971428Y-83750000D01*
X47828571Y-83702380D01*
X47733333Y-83702380D01*
X47590476Y-83750000D01*
X47542857Y-83797619D01*
X46685714Y-84035714D02*
X46685714Y-84702380D01*
X46923809Y-83654761D02*
X47161904Y-84369047D01*
X46542857Y-84369047D01*
X46209523Y-83797619D02*
X46161904Y-83750000D01*
X46066666Y-83702380D01*
X45828571Y-83702380D01*
X45733333Y-83750000D01*
X45685714Y-83797619D01*
X45638095Y-83892857D01*
X45638095Y-83988095D01*
X45685714Y-84130952D01*
X46257142Y-84702380D01*
X45638095Y-84702380D01*
G04 #@! TO.C,C43*
X72542857Y-84607142D02*
X72590476Y-84654761D01*
X72733333Y-84702380D01*
X72828571Y-84702380D01*
X72971428Y-84654761D01*
X73066666Y-84559523D01*
X73114285Y-84464285D01*
X73161904Y-84273809D01*
X73161904Y-84130952D01*
X73114285Y-83940476D01*
X73066666Y-83845238D01*
X72971428Y-83750000D01*
X72828571Y-83702380D01*
X72733333Y-83702380D01*
X72590476Y-83750000D01*
X72542857Y-83797619D01*
X71685714Y-84035714D02*
X71685714Y-84702380D01*
X71923809Y-83654761D02*
X72161904Y-84369047D01*
X71542857Y-84369047D01*
X71257142Y-83702380D02*
X70638095Y-83702380D01*
X70971428Y-84083333D01*
X70828571Y-84083333D01*
X70733333Y-84130952D01*
X70685714Y-84178571D01*
X70638095Y-84273809D01*
X70638095Y-84511904D01*
X70685714Y-84607142D01*
X70733333Y-84654761D01*
X70828571Y-84702380D01*
X71114285Y-84702380D01*
X71209523Y-84654761D01*
X71257142Y-84607142D01*
G04 #@! TO.C,C44*
X97542857Y-84607142D02*
X97590476Y-84654761D01*
X97733333Y-84702380D01*
X97828571Y-84702380D01*
X97971428Y-84654761D01*
X98066666Y-84559523D01*
X98114285Y-84464285D01*
X98161904Y-84273809D01*
X98161904Y-84130952D01*
X98114285Y-83940476D01*
X98066666Y-83845238D01*
X97971428Y-83750000D01*
X97828571Y-83702380D01*
X97733333Y-83702380D01*
X97590476Y-83750000D01*
X97542857Y-83797619D01*
X96685714Y-84035714D02*
X96685714Y-84702380D01*
X96923809Y-83654761D02*
X97161904Y-84369047D01*
X96542857Y-84369047D01*
X95733333Y-84035714D02*
X95733333Y-84702380D01*
X95971428Y-83654761D02*
X96209523Y-84369047D01*
X95590476Y-84369047D01*
G04 #@! TO.C,C45*
X122542857Y-84607142D02*
X122590476Y-84654761D01*
X122733333Y-84702380D01*
X122828571Y-84702380D01*
X122971428Y-84654761D01*
X123066666Y-84559523D01*
X123114285Y-84464285D01*
X123161904Y-84273809D01*
X123161904Y-84130952D01*
X123114285Y-83940476D01*
X123066666Y-83845238D01*
X122971428Y-83750000D01*
X122828571Y-83702380D01*
X122733333Y-83702380D01*
X122590476Y-83750000D01*
X122542857Y-83797619D01*
X121685714Y-84035714D02*
X121685714Y-84702380D01*
X121923809Y-83654761D02*
X122161904Y-84369047D01*
X121542857Y-84369047D01*
X120685714Y-83702380D02*
X121161904Y-83702380D01*
X121209523Y-84178571D01*
X121161904Y-84130952D01*
X121066666Y-84083333D01*
X120828571Y-84083333D01*
X120733333Y-84130952D01*
X120685714Y-84178571D01*
X120638095Y-84273809D01*
X120638095Y-84511904D01*
X120685714Y-84607142D01*
X120733333Y-84654761D01*
X120828571Y-84702380D01*
X121066666Y-84702380D01*
X121161904Y-84654761D01*
X121209523Y-84607142D01*
G04 #@! TO.C,C46*
X118742857Y-121107142D02*
X118790476Y-121154761D01*
X118933333Y-121202380D01*
X119028571Y-121202380D01*
X119171428Y-121154761D01*
X119266666Y-121059523D01*
X119314285Y-120964285D01*
X119361904Y-120773809D01*
X119361904Y-120630952D01*
X119314285Y-120440476D01*
X119266666Y-120345238D01*
X119171428Y-120250000D01*
X119028571Y-120202380D01*
X118933333Y-120202380D01*
X118790476Y-120250000D01*
X118742857Y-120297619D01*
X117885714Y-120535714D02*
X117885714Y-121202380D01*
X118123809Y-120154761D02*
X118361904Y-120869047D01*
X117742857Y-120869047D01*
X116933333Y-120202380D02*
X117123809Y-120202380D01*
X117219047Y-120250000D01*
X117266666Y-120297619D01*
X117361904Y-120440476D01*
X117409523Y-120630952D01*
X117409523Y-121011904D01*
X117361904Y-121107142D01*
X117314285Y-121154761D01*
X117219047Y-121202380D01*
X117028571Y-121202380D01*
X116933333Y-121154761D01*
X116885714Y-121107142D01*
X116838095Y-121011904D01*
X116838095Y-120773809D01*
X116885714Y-120678571D01*
X116933333Y-120630952D01*
X117028571Y-120583333D01*
X117219047Y-120583333D01*
X117314285Y-120630952D01*
X117361904Y-120678571D01*
X117409523Y-120773809D01*
G04 #@! TO.C,C47*
X93742857Y-121107142D02*
X93790476Y-121154761D01*
X93933333Y-121202380D01*
X94028571Y-121202380D01*
X94171428Y-121154761D01*
X94266666Y-121059523D01*
X94314285Y-120964285D01*
X94361904Y-120773809D01*
X94361904Y-120630952D01*
X94314285Y-120440476D01*
X94266666Y-120345238D01*
X94171428Y-120250000D01*
X94028571Y-120202380D01*
X93933333Y-120202380D01*
X93790476Y-120250000D01*
X93742857Y-120297619D01*
X92885714Y-120535714D02*
X92885714Y-121202380D01*
X93123809Y-120154761D02*
X93361904Y-120869047D01*
X92742857Y-120869047D01*
X92457142Y-120202380D02*
X91790476Y-120202380D01*
X92219047Y-121202380D01*
G04 #@! TO.C,C48*
X68742857Y-121107142D02*
X68790476Y-121154761D01*
X68933333Y-121202380D01*
X69028571Y-121202380D01*
X69171428Y-121154761D01*
X69266666Y-121059523D01*
X69314285Y-120964285D01*
X69361904Y-120773809D01*
X69361904Y-120630952D01*
X69314285Y-120440476D01*
X69266666Y-120345238D01*
X69171428Y-120250000D01*
X69028571Y-120202380D01*
X68933333Y-120202380D01*
X68790476Y-120250000D01*
X68742857Y-120297619D01*
X67885714Y-120535714D02*
X67885714Y-121202380D01*
X68123809Y-120154761D02*
X68361904Y-120869047D01*
X67742857Y-120869047D01*
X67219047Y-120630952D02*
X67314285Y-120583333D01*
X67361904Y-120535714D01*
X67409523Y-120440476D01*
X67409523Y-120392857D01*
X67361904Y-120297619D01*
X67314285Y-120250000D01*
X67219047Y-120202380D01*
X67028571Y-120202380D01*
X66933333Y-120250000D01*
X66885714Y-120297619D01*
X66838095Y-120392857D01*
X66838095Y-120440476D01*
X66885714Y-120535714D01*
X66933333Y-120583333D01*
X67028571Y-120630952D01*
X67219047Y-120630952D01*
X67314285Y-120678571D01*
X67361904Y-120726190D01*
X67409523Y-120821428D01*
X67409523Y-121011904D01*
X67361904Y-121107142D01*
X67314285Y-121154761D01*
X67219047Y-121202380D01*
X67028571Y-121202380D01*
X66933333Y-121154761D01*
X66885714Y-121107142D01*
X66838095Y-121011904D01*
X66838095Y-120821428D01*
X66885714Y-120726190D01*
X66933333Y-120678571D01*
X67028571Y-120630952D01*
G04 #@! TO.C,C49*
X43742857Y-121107142D02*
X43790476Y-121154761D01*
X43933333Y-121202380D01*
X44028571Y-121202380D01*
X44171428Y-121154761D01*
X44266666Y-121059523D01*
X44314285Y-120964285D01*
X44361904Y-120773809D01*
X44361904Y-120630952D01*
X44314285Y-120440476D01*
X44266666Y-120345238D01*
X44171428Y-120250000D01*
X44028571Y-120202380D01*
X43933333Y-120202380D01*
X43790476Y-120250000D01*
X43742857Y-120297619D01*
X42885714Y-120535714D02*
X42885714Y-121202380D01*
X43123809Y-120154761D02*
X43361904Y-120869047D01*
X42742857Y-120869047D01*
X42314285Y-121202380D02*
X42123809Y-121202380D01*
X42028571Y-121154761D01*
X41980952Y-121107142D01*
X41885714Y-120964285D01*
X41838095Y-120773809D01*
X41838095Y-120392857D01*
X41885714Y-120297619D01*
X41933333Y-120250000D01*
X42028571Y-120202380D01*
X42219047Y-120202380D01*
X42314285Y-120250000D01*
X42361904Y-120297619D01*
X42409523Y-120392857D01*
X42409523Y-120630952D01*
X42361904Y-120726190D01*
X42314285Y-120773809D01*
X42219047Y-120821428D01*
X42028571Y-120821428D01*
X41933333Y-120773809D01*
X41885714Y-120726190D01*
X41838095Y-120630952D01*
G04 #@! TO.C,C50*
X18642857Y-121107142D02*
X18690476Y-121154761D01*
X18833333Y-121202380D01*
X18928571Y-121202380D01*
X19071428Y-121154761D01*
X19166666Y-121059523D01*
X19214285Y-120964285D01*
X19261904Y-120773809D01*
X19261904Y-120630952D01*
X19214285Y-120440476D01*
X19166666Y-120345238D01*
X19071428Y-120250000D01*
X18928571Y-120202380D01*
X18833333Y-120202380D01*
X18690476Y-120250000D01*
X18642857Y-120297619D01*
X17738095Y-120202380D02*
X18214285Y-120202380D01*
X18261904Y-120678571D01*
X18214285Y-120630952D01*
X18119047Y-120583333D01*
X17880952Y-120583333D01*
X17785714Y-120630952D01*
X17738095Y-120678571D01*
X17690476Y-120773809D01*
X17690476Y-121011904D01*
X17738095Y-121107142D01*
X17785714Y-121154761D01*
X17880952Y-121202380D01*
X18119047Y-121202380D01*
X18214285Y-121154761D01*
X18261904Y-121107142D01*
X17071428Y-120202380D02*
X16976190Y-120202380D01*
X16880952Y-120250000D01*
X16833333Y-120297619D01*
X16785714Y-120392857D01*
X16738095Y-120583333D01*
X16738095Y-120821428D01*
X16785714Y-121011904D01*
X16833333Y-121107142D01*
X16880952Y-121154761D01*
X16976190Y-121202380D01*
X17071428Y-121202380D01*
X17166666Y-121154761D01*
X17214285Y-121107142D01*
X17261904Y-121011904D01*
X17309523Y-120821428D01*
X17309523Y-120583333D01*
X17261904Y-120392857D01*
X17214285Y-120297619D01*
X17166666Y-120250000D01*
X17071428Y-120202380D01*
G04 #@! TO.C,LED1*
X121119047Y-16952380D02*
X121595238Y-16952380D01*
X121595238Y-15952380D01*
X120785714Y-16428571D02*
X120452380Y-16428571D01*
X120309523Y-16952380D02*
X120785714Y-16952380D01*
X120785714Y-15952380D01*
X120309523Y-15952380D01*
X119880952Y-16952380D02*
X119880952Y-15952380D01*
X119642857Y-15952380D01*
X119500000Y-16000000D01*
X119404761Y-16095238D01*
X119357142Y-16190476D01*
X119309523Y-16380952D01*
X119309523Y-16523809D01*
X119357142Y-16714285D01*
X119404761Y-16809523D01*
X119500000Y-16904761D01*
X119642857Y-16952380D01*
X119880952Y-16952380D01*
X118357142Y-16952380D02*
X118928571Y-16952380D01*
X118642857Y-16952380D02*
X118642857Y-15952380D01*
X118738095Y-16095238D01*
X118833333Y-16190476D01*
X118928571Y-16238095D01*
G04 #@! TO.C,LED2*
X96119047Y-16952380D02*
X96595238Y-16952380D01*
X96595238Y-15952380D01*
X95785714Y-16428571D02*
X95452380Y-16428571D01*
X95309523Y-16952380D02*
X95785714Y-16952380D01*
X95785714Y-15952380D01*
X95309523Y-15952380D01*
X94880952Y-16952380D02*
X94880952Y-15952380D01*
X94642857Y-15952380D01*
X94500000Y-16000000D01*
X94404761Y-16095238D01*
X94357142Y-16190476D01*
X94309523Y-16380952D01*
X94309523Y-16523809D01*
X94357142Y-16714285D01*
X94404761Y-16809523D01*
X94500000Y-16904761D01*
X94642857Y-16952380D01*
X94880952Y-16952380D01*
X93928571Y-16047619D02*
X93880952Y-16000000D01*
X93785714Y-15952380D01*
X93547619Y-15952380D01*
X93452380Y-16000000D01*
X93404761Y-16047619D01*
X93357142Y-16142857D01*
X93357142Y-16238095D01*
X93404761Y-16380952D01*
X93976190Y-16952380D01*
X93357142Y-16952380D01*
G04 #@! TO.C,LED3*
X71119047Y-16952380D02*
X71595238Y-16952380D01*
X71595238Y-15952380D01*
X70785714Y-16428571D02*
X70452380Y-16428571D01*
X70309523Y-16952380D02*
X70785714Y-16952380D01*
X70785714Y-15952380D01*
X70309523Y-15952380D01*
X69880952Y-16952380D02*
X69880952Y-15952380D01*
X69642857Y-15952380D01*
X69500000Y-16000000D01*
X69404761Y-16095238D01*
X69357142Y-16190476D01*
X69309523Y-16380952D01*
X69309523Y-16523809D01*
X69357142Y-16714285D01*
X69404761Y-16809523D01*
X69500000Y-16904761D01*
X69642857Y-16952380D01*
X69880952Y-16952380D01*
X68976190Y-15952380D02*
X68357142Y-15952380D01*
X68690476Y-16333333D01*
X68547619Y-16333333D01*
X68452380Y-16380952D01*
X68404761Y-16428571D01*
X68357142Y-16523809D01*
X68357142Y-16761904D01*
X68404761Y-16857142D01*
X68452380Y-16904761D01*
X68547619Y-16952380D01*
X68833333Y-16952380D01*
X68928571Y-16904761D01*
X68976190Y-16857142D01*
G04 #@! TO.C,LED4*
X46119047Y-16952380D02*
X46595238Y-16952380D01*
X46595238Y-15952380D01*
X45785714Y-16428571D02*
X45452380Y-16428571D01*
X45309523Y-16952380D02*
X45785714Y-16952380D01*
X45785714Y-15952380D01*
X45309523Y-15952380D01*
X44880952Y-16952380D02*
X44880952Y-15952380D01*
X44642857Y-15952380D01*
X44500000Y-16000000D01*
X44404761Y-16095238D01*
X44357142Y-16190476D01*
X44309523Y-16380952D01*
X44309523Y-16523809D01*
X44357142Y-16714285D01*
X44404761Y-16809523D01*
X44500000Y-16904761D01*
X44642857Y-16952380D01*
X44880952Y-16952380D01*
X43452380Y-16285714D02*
X43452380Y-16952380D01*
X43690476Y-15904761D02*
X43928571Y-16619047D01*
X43309523Y-16619047D01*
G04 #@! TO.C,LED5*
X21119047Y-16952380D02*
X21595238Y-16952380D01*
X21595238Y-15952380D01*
X20785714Y-16428571D02*
X20452380Y-16428571D01*
X20309523Y-16952380D02*
X20785714Y-16952380D01*
X20785714Y-15952380D01*
X20309523Y-15952380D01*
X19880952Y-16952380D02*
X19880952Y-15952380D01*
X19642857Y-15952380D01*
X19500000Y-16000000D01*
X19404761Y-16095238D01*
X19357142Y-16190476D01*
X19309523Y-16380952D01*
X19309523Y-16523809D01*
X19357142Y-16714285D01*
X19404761Y-16809523D01*
X19500000Y-16904761D01*
X19642857Y-16952380D01*
X19880952Y-16952380D01*
X18404761Y-15952380D02*
X18880952Y-15952380D01*
X18928571Y-16428571D01*
X18880952Y-16380952D01*
X18785714Y-16333333D01*
X18547619Y-16333333D01*
X18452380Y-16380952D01*
X18404761Y-16428571D01*
X18357142Y-16523809D01*
X18357142Y-16761904D01*
X18404761Y-16857142D01*
X18452380Y-16904761D01*
X18547619Y-16952380D01*
X18785714Y-16952380D01*
X18880952Y-16904761D01*
X18928571Y-16857142D01*
G04 #@! TO.C,LED6*
X21119047Y-43952380D02*
X21595238Y-43952380D01*
X21595238Y-42952380D01*
X20785714Y-43428571D02*
X20452380Y-43428571D01*
X20309523Y-43952380D02*
X20785714Y-43952380D01*
X20785714Y-42952380D01*
X20309523Y-42952380D01*
X19880952Y-43952380D02*
X19880952Y-42952380D01*
X19642857Y-42952380D01*
X19500000Y-43000000D01*
X19404761Y-43095238D01*
X19357142Y-43190476D01*
X19309523Y-43380952D01*
X19309523Y-43523809D01*
X19357142Y-43714285D01*
X19404761Y-43809523D01*
X19500000Y-43904761D01*
X19642857Y-43952380D01*
X19880952Y-43952380D01*
X18452380Y-42952380D02*
X18642857Y-42952380D01*
X18738095Y-43000000D01*
X18785714Y-43047619D01*
X18880952Y-43190476D01*
X18928571Y-43380952D01*
X18928571Y-43761904D01*
X18880952Y-43857142D01*
X18833333Y-43904761D01*
X18738095Y-43952380D01*
X18547619Y-43952380D01*
X18452380Y-43904761D01*
X18404761Y-43857142D01*
X18357142Y-43761904D01*
X18357142Y-43523809D01*
X18404761Y-43428571D01*
X18452380Y-43380952D01*
X18547619Y-43333333D01*
X18738095Y-43333333D01*
X18833333Y-43380952D01*
X18880952Y-43428571D01*
X18928571Y-43523809D01*
G04 #@! TO.C,LED7*
X46119047Y-43952380D02*
X46595238Y-43952380D01*
X46595238Y-42952380D01*
X45785714Y-43428571D02*
X45452380Y-43428571D01*
X45309523Y-43952380D02*
X45785714Y-43952380D01*
X45785714Y-42952380D01*
X45309523Y-42952380D01*
X44880952Y-43952380D02*
X44880952Y-42952380D01*
X44642857Y-42952380D01*
X44500000Y-43000000D01*
X44404761Y-43095238D01*
X44357142Y-43190476D01*
X44309523Y-43380952D01*
X44309523Y-43523809D01*
X44357142Y-43714285D01*
X44404761Y-43809523D01*
X44500000Y-43904761D01*
X44642857Y-43952380D01*
X44880952Y-43952380D01*
X43976190Y-42952380D02*
X43309523Y-42952380D01*
X43738095Y-43952380D01*
G04 #@! TO.C,LED9*
X96119047Y-43952380D02*
X96595238Y-43952380D01*
X96595238Y-42952380D01*
X95785714Y-43428571D02*
X95452380Y-43428571D01*
X95309523Y-43952380D02*
X95785714Y-43952380D01*
X95785714Y-42952380D01*
X95309523Y-42952380D01*
X94880952Y-43952380D02*
X94880952Y-42952380D01*
X94642857Y-42952380D01*
X94500000Y-43000000D01*
X94404761Y-43095238D01*
X94357142Y-43190476D01*
X94309523Y-43380952D01*
X94309523Y-43523809D01*
X94357142Y-43714285D01*
X94404761Y-43809523D01*
X94500000Y-43904761D01*
X94642857Y-43952380D01*
X94880952Y-43952380D01*
X93833333Y-43952380D02*
X93642857Y-43952380D01*
X93547619Y-43904761D01*
X93500000Y-43857142D01*
X93404761Y-43714285D01*
X93357142Y-43523809D01*
X93357142Y-43142857D01*
X93404761Y-43047619D01*
X93452380Y-43000000D01*
X93547619Y-42952380D01*
X93738095Y-42952380D01*
X93833333Y-43000000D01*
X93880952Y-43047619D01*
X93928571Y-43142857D01*
X93928571Y-43380952D01*
X93880952Y-43476190D01*
X93833333Y-43523809D01*
X93738095Y-43571428D01*
X93547619Y-43571428D01*
X93452380Y-43523809D01*
X93404761Y-43476190D01*
X93357142Y-43380952D01*
G04 #@! TO.C,LED10*
X121595238Y-43952380D02*
X122071428Y-43952380D01*
X122071428Y-42952380D01*
X121261904Y-43428571D02*
X120928571Y-43428571D01*
X120785714Y-43952380D02*
X121261904Y-43952380D01*
X121261904Y-42952380D01*
X120785714Y-42952380D01*
X120357142Y-43952380D02*
X120357142Y-42952380D01*
X120119047Y-42952380D01*
X119976190Y-43000000D01*
X119880952Y-43095238D01*
X119833333Y-43190476D01*
X119785714Y-43380952D01*
X119785714Y-43523809D01*
X119833333Y-43714285D01*
X119880952Y-43809523D01*
X119976190Y-43904761D01*
X120119047Y-43952380D01*
X120357142Y-43952380D01*
X118833333Y-43952380D02*
X119404761Y-43952380D01*
X119119047Y-43952380D02*
X119119047Y-42952380D01*
X119214285Y-43095238D01*
X119309523Y-43190476D01*
X119404761Y-43238095D01*
X118214285Y-42952380D02*
X118119047Y-42952380D01*
X118023809Y-43000000D01*
X117976190Y-43047619D01*
X117928571Y-43142857D01*
X117880952Y-43333333D01*
X117880952Y-43571428D01*
X117928571Y-43761904D01*
X117976190Y-43857142D01*
X118023809Y-43904761D01*
X118119047Y-43952380D01*
X118214285Y-43952380D01*
X118309523Y-43904761D01*
X118357142Y-43857142D01*
X118404761Y-43761904D01*
X118452380Y-43571428D01*
X118452380Y-43333333D01*
X118404761Y-43142857D01*
X118357142Y-43047619D01*
X118309523Y-43000000D01*
X118214285Y-42952380D01*
G04 #@! TO.C,LED11*
X121595238Y-61952380D02*
X122071428Y-61952380D01*
X122071428Y-60952380D01*
X121261904Y-61428571D02*
X120928571Y-61428571D01*
X120785714Y-61952380D02*
X121261904Y-61952380D01*
X121261904Y-60952380D01*
X120785714Y-60952380D01*
X120357142Y-61952380D02*
X120357142Y-60952380D01*
X120119047Y-60952380D01*
X119976190Y-61000000D01*
X119880952Y-61095238D01*
X119833333Y-61190476D01*
X119785714Y-61380952D01*
X119785714Y-61523809D01*
X119833333Y-61714285D01*
X119880952Y-61809523D01*
X119976190Y-61904761D01*
X120119047Y-61952380D01*
X120357142Y-61952380D01*
X118833333Y-61952380D02*
X119404761Y-61952380D01*
X119119047Y-61952380D02*
X119119047Y-60952380D01*
X119214285Y-61095238D01*
X119309523Y-61190476D01*
X119404761Y-61238095D01*
X117880952Y-61952380D02*
X118452380Y-61952380D01*
X118166666Y-61952380D02*
X118166666Y-60952380D01*
X118261904Y-61095238D01*
X118357142Y-61190476D01*
X118452380Y-61238095D01*
G04 #@! TO.C,LED12*
X96595238Y-61952380D02*
X97071428Y-61952380D01*
X97071428Y-60952380D01*
X96261904Y-61428571D02*
X95928571Y-61428571D01*
X95785714Y-61952380D02*
X96261904Y-61952380D01*
X96261904Y-60952380D01*
X95785714Y-60952380D01*
X95357142Y-61952380D02*
X95357142Y-60952380D01*
X95119047Y-60952380D01*
X94976190Y-61000000D01*
X94880952Y-61095238D01*
X94833333Y-61190476D01*
X94785714Y-61380952D01*
X94785714Y-61523809D01*
X94833333Y-61714285D01*
X94880952Y-61809523D01*
X94976190Y-61904761D01*
X95119047Y-61952380D01*
X95357142Y-61952380D01*
X93833333Y-61952380D02*
X94404761Y-61952380D01*
X94119047Y-61952380D02*
X94119047Y-60952380D01*
X94214285Y-61095238D01*
X94309523Y-61190476D01*
X94404761Y-61238095D01*
X93452380Y-61047619D02*
X93404761Y-61000000D01*
X93309523Y-60952380D01*
X93071428Y-60952380D01*
X92976190Y-61000000D01*
X92928571Y-61047619D01*
X92880952Y-61142857D01*
X92880952Y-61238095D01*
X92928571Y-61380952D01*
X93500000Y-61952380D01*
X92880952Y-61952380D01*
G04 #@! TO.C,LED13*
X71595238Y-61952380D02*
X72071428Y-61952380D01*
X72071428Y-60952380D01*
X71261904Y-61428571D02*
X70928571Y-61428571D01*
X70785714Y-61952380D02*
X71261904Y-61952380D01*
X71261904Y-60952380D01*
X70785714Y-60952380D01*
X70357142Y-61952380D02*
X70357142Y-60952380D01*
X70119047Y-60952380D01*
X69976190Y-61000000D01*
X69880952Y-61095238D01*
X69833333Y-61190476D01*
X69785714Y-61380952D01*
X69785714Y-61523809D01*
X69833333Y-61714285D01*
X69880952Y-61809523D01*
X69976190Y-61904761D01*
X70119047Y-61952380D01*
X70357142Y-61952380D01*
X68833333Y-61952380D02*
X69404761Y-61952380D01*
X69119047Y-61952380D02*
X69119047Y-60952380D01*
X69214285Y-61095238D01*
X69309523Y-61190476D01*
X69404761Y-61238095D01*
X68500000Y-60952380D02*
X67880952Y-60952380D01*
X68214285Y-61333333D01*
X68071428Y-61333333D01*
X67976190Y-61380952D01*
X67928571Y-61428571D01*
X67880952Y-61523809D01*
X67880952Y-61761904D01*
X67928571Y-61857142D01*
X67976190Y-61904761D01*
X68071428Y-61952380D01*
X68357142Y-61952380D01*
X68452380Y-61904761D01*
X68500000Y-61857142D01*
G04 #@! TO.C,LED14*
X46595238Y-61952380D02*
X47071428Y-61952380D01*
X47071428Y-60952380D01*
X46261904Y-61428571D02*
X45928571Y-61428571D01*
X45785714Y-61952380D02*
X46261904Y-61952380D01*
X46261904Y-60952380D01*
X45785714Y-60952380D01*
X45357142Y-61952380D02*
X45357142Y-60952380D01*
X45119047Y-60952380D01*
X44976190Y-61000000D01*
X44880952Y-61095238D01*
X44833333Y-61190476D01*
X44785714Y-61380952D01*
X44785714Y-61523809D01*
X44833333Y-61714285D01*
X44880952Y-61809523D01*
X44976190Y-61904761D01*
X45119047Y-61952380D01*
X45357142Y-61952380D01*
X43833333Y-61952380D02*
X44404761Y-61952380D01*
X44119047Y-61952380D02*
X44119047Y-60952380D01*
X44214285Y-61095238D01*
X44309523Y-61190476D01*
X44404761Y-61238095D01*
X42976190Y-61285714D02*
X42976190Y-61952380D01*
X43214285Y-60904761D02*
X43452380Y-61619047D01*
X42833333Y-61619047D01*
G04 #@! TO.C,LED15*
X21595238Y-61952380D02*
X22071428Y-61952380D01*
X22071428Y-60952380D01*
X21261904Y-61428571D02*
X20928571Y-61428571D01*
X20785714Y-61952380D02*
X21261904Y-61952380D01*
X21261904Y-60952380D01*
X20785714Y-60952380D01*
X20357142Y-61952380D02*
X20357142Y-60952380D01*
X20119047Y-60952380D01*
X19976190Y-61000000D01*
X19880952Y-61095238D01*
X19833333Y-61190476D01*
X19785714Y-61380952D01*
X19785714Y-61523809D01*
X19833333Y-61714285D01*
X19880952Y-61809523D01*
X19976190Y-61904761D01*
X20119047Y-61952380D01*
X20357142Y-61952380D01*
X18833333Y-61952380D02*
X19404761Y-61952380D01*
X19119047Y-61952380D02*
X19119047Y-60952380D01*
X19214285Y-61095238D01*
X19309523Y-61190476D01*
X19404761Y-61238095D01*
X17928571Y-60952380D02*
X18404761Y-60952380D01*
X18452380Y-61428571D01*
X18404761Y-61380952D01*
X18309523Y-61333333D01*
X18071428Y-61333333D01*
X17976190Y-61380952D01*
X17928571Y-61428571D01*
X17880952Y-61523809D01*
X17880952Y-61761904D01*
X17928571Y-61857142D01*
X17976190Y-61904761D01*
X18071428Y-61952380D01*
X18309523Y-61952380D01*
X18404761Y-61904761D01*
X18452380Y-61857142D01*
G04 #@! TO.C,LED16*
X21595238Y-93952380D02*
X22071428Y-93952380D01*
X22071428Y-92952380D01*
X21261904Y-93428571D02*
X20928571Y-93428571D01*
X20785714Y-93952380D02*
X21261904Y-93952380D01*
X21261904Y-92952380D01*
X20785714Y-92952380D01*
X20357142Y-93952380D02*
X20357142Y-92952380D01*
X20119047Y-92952380D01*
X19976190Y-93000000D01*
X19880952Y-93095238D01*
X19833333Y-93190476D01*
X19785714Y-93380952D01*
X19785714Y-93523809D01*
X19833333Y-93714285D01*
X19880952Y-93809523D01*
X19976190Y-93904761D01*
X20119047Y-93952380D01*
X20357142Y-93952380D01*
X18833333Y-93952380D02*
X19404761Y-93952380D01*
X19119047Y-93952380D02*
X19119047Y-92952380D01*
X19214285Y-93095238D01*
X19309523Y-93190476D01*
X19404761Y-93238095D01*
X17976190Y-92952380D02*
X18166666Y-92952380D01*
X18261904Y-93000000D01*
X18309523Y-93047619D01*
X18404761Y-93190476D01*
X18452380Y-93380952D01*
X18452380Y-93761904D01*
X18404761Y-93857142D01*
X18357142Y-93904761D01*
X18261904Y-93952380D01*
X18071428Y-93952380D01*
X17976190Y-93904761D01*
X17928571Y-93857142D01*
X17880952Y-93761904D01*
X17880952Y-93523809D01*
X17928571Y-93428571D01*
X17976190Y-93380952D01*
X18071428Y-93333333D01*
X18261904Y-93333333D01*
X18357142Y-93380952D01*
X18404761Y-93428571D01*
X18452380Y-93523809D01*
G04 #@! TO.C,LED17*
X46595238Y-93952380D02*
X47071428Y-93952380D01*
X47071428Y-92952380D01*
X46261904Y-93428571D02*
X45928571Y-93428571D01*
X45785714Y-93952380D02*
X46261904Y-93952380D01*
X46261904Y-92952380D01*
X45785714Y-92952380D01*
X45357142Y-93952380D02*
X45357142Y-92952380D01*
X45119047Y-92952380D01*
X44976190Y-93000000D01*
X44880952Y-93095238D01*
X44833333Y-93190476D01*
X44785714Y-93380952D01*
X44785714Y-93523809D01*
X44833333Y-93714285D01*
X44880952Y-93809523D01*
X44976190Y-93904761D01*
X45119047Y-93952380D01*
X45357142Y-93952380D01*
X43833333Y-93952380D02*
X44404761Y-93952380D01*
X44119047Y-93952380D02*
X44119047Y-92952380D01*
X44214285Y-93095238D01*
X44309523Y-93190476D01*
X44404761Y-93238095D01*
X43500000Y-92952380D02*
X42833333Y-92952380D01*
X43261904Y-93952380D01*
G04 #@! TO.C,LED18*
X71595238Y-93952380D02*
X72071428Y-93952380D01*
X72071428Y-92952380D01*
X71261904Y-93428571D02*
X70928571Y-93428571D01*
X70785714Y-93952380D02*
X71261904Y-93952380D01*
X71261904Y-92952380D01*
X70785714Y-92952380D01*
X70357142Y-93952380D02*
X70357142Y-92952380D01*
X70119047Y-92952380D01*
X69976190Y-93000000D01*
X69880952Y-93095238D01*
X69833333Y-93190476D01*
X69785714Y-93380952D01*
X69785714Y-93523809D01*
X69833333Y-93714285D01*
X69880952Y-93809523D01*
X69976190Y-93904761D01*
X70119047Y-93952380D01*
X70357142Y-93952380D01*
X68833333Y-93952380D02*
X69404761Y-93952380D01*
X69119047Y-93952380D02*
X69119047Y-92952380D01*
X69214285Y-93095238D01*
X69309523Y-93190476D01*
X69404761Y-93238095D01*
X68261904Y-93380952D02*
X68357142Y-93333333D01*
X68404761Y-93285714D01*
X68452380Y-93190476D01*
X68452380Y-93142857D01*
X68404761Y-93047619D01*
X68357142Y-93000000D01*
X68261904Y-92952380D01*
X68071428Y-92952380D01*
X67976190Y-93000000D01*
X67928571Y-93047619D01*
X67880952Y-93142857D01*
X67880952Y-93190476D01*
X67928571Y-93285714D01*
X67976190Y-93333333D01*
X68071428Y-93380952D01*
X68261904Y-93380952D01*
X68357142Y-93428571D01*
X68404761Y-93476190D01*
X68452380Y-93571428D01*
X68452380Y-93761904D01*
X68404761Y-93857142D01*
X68357142Y-93904761D01*
X68261904Y-93952380D01*
X68071428Y-93952380D01*
X67976190Y-93904761D01*
X67928571Y-93857142D01*
X67880952Y-93761904D01*
X67880952Y-93571428D01*
X67928571Y-93476190D01*
X67976190Y-93428571D01*
X68071428Y-93380952D01*
G04 #@! TO.C,LED19*
X96595238Y-93952380D02*
X97071428Y-93952380D01*
X97071428Y-92952380D01*
X96261904Y-93428571D02*
X95928571Y-93428571D01*
X95785714Y-93952380D02*
X96261904Y-93952380D01*
X96261904Y-92952380D01*
X95785714Y-92952380D01*
X95357142Y-93952380D02*
X95357142Y-92952380D01*
X95119047Y-92952380D01*
X94976190Y-93000000D01*
X94880952Y-93095238D01*
X94833333Y-93190476D01*
X94785714Y-93380952D01*
X94785714Y-93523809D01*
X94833333Y-93714285D01*
X94880952Y-93809523D01*
X94976190Y-93904761D01*
X95119047Y-93952380D01*
X95357142Y-93952380D01*
X93833333Y-93952380D02*
X94404761Y-93952380D01*
X94119047Y-93952380D02*
X94119047Y-92952380D01*
X94214285Y-93095238D01*
X94309523Y-93190476D01*
X94404761Y-93238095D01*
X93357142Y-93952380D02*
X93166666Y-93952380D01*
X93071428Y-93904761D01*
X93023809Y-93857142D01*
X92928571Y-93714285D01*
X92880952Y-93523809D01*
X92880952Y-93142857D01*
X92928571Y-93047619D01*
X92976190Y-93000000D01*
X93071428Y-92952380D01*
X93261904Y-92952380D01*
X93357142Y-93000000D01*
X93404761Y-93047619D01*
X93452380Y-93142857D01*
X93452380Y-93380952D01*
X93404761Y-93476190D01*
X93357142Y-93523809D01*
X93261904Y-93571428D01*
X93071428Y-93571428D01*
X92976190Y-93523809D01*
X92928571Y-93476190D01*
X92880952Y-93380952D01*
G04 #@! TO.C,LED20*
X121595238Y-93952380D02*
X122071428Y-93952380D01*
X122071428Y-92952380D01*
X121261904Y-93428571D02*
X120928571Y-93428571D01*
X120785714Y-93952380D02*
X121261904Y-93952380D01*
X121261904Y-92952380D01*
X120785714Y-92952380D01*
X120357142Y-93952380D02*
X120357142Y-92952380D01*
X120119047Y-92952380D01*
X119976190Y-93000000D01*
X119880952Y-93095238D01*
X119833333Y-93190476D01*
X119785714Y-93380952D01*
X119785714Y-93523809D01*
X119833333Y-93714285D01*
X119880952Y-93809523D01*
X119976190Y-93904761D01*
X120119047Y-93952380D01*
X120357142Y-93952380D01*
X119404761Y-93047619D02*
X119357142Y-93000000D01*
X119261904Y-92952380D01*
X119023809Y-92952380D01*
X118928571Y-93000000D01*
X118880952Y-93047619D01*
X118833333Y-93142857D01*
X118833333Y-93238095D01*
X118880952Y-93380952D01*
X119452380Y-93952380D01*
X118833333Y-93952380D01*
X118214285Y-92952380D02*
X118119047Y-92952380D01*
X118023809Y-93000000D01*
X117976190Y-93047619D01*
X117928571Y-93142857D01*
X117880952Y-93333333D01*
X117880952Y-93571428D01*
X117928571Y-93761904D01*
X117976190Y-93857142D01*
X118023809Y-93904761D01*
X118119047Y-93952380D01*
X118214285Y-93952380D01*
X118309523Y-93904761D01*
X118357142Y-93857142D01*
X118404761Y-93761904D01*
X118452380Y-93571428D01*
X118452380Y-93333333D01*
X118404761Y-93142857D01*
X118357142Y-93047619D01*
X118309523Y-93000000D01*
X118214285Y-92952380D01*
G04 #@! TO.C,LED21*
X121595238Y-111952380D02*
X122071428Y-111952380D01*
X122071428Y-110952380D01*
X121261904Y-111428571D02*
X120928571Y-111428571D01*
X120785714Y-111952380D02*
X121261904Y-111952380D01*
X121261904Y-110952380D01*
X120785714Y-110952380D01*
X120357142Y-111952380D02*
X120357142Y-110952380D01*
X120119047Y-110952380D01*
X119976190Y-111000000D01*
X119880952Y-111095238D01*
X119833333Y-111190476D01*
X119785714Y-111380952D01*
X119785714Y-111523809D01*
X119833333Y-111714285D01*
X119880952Y-111809523D01*
X119976190Y-111904761D01*
X120119047Y-111952380D01*
X120357142Y-111952380D01*
X119404761Y-111047619D02*
X119357142Y-111000000D01*
X119261904Y-110952380D01*
X119023809Y-110952380D01*
X118928571Y-111000000D01*
X118880952Y-111047619D01*
X118833333Y-111142857D01*
X118833333Y-111238095D01*
X118880952Y-111380952D01*
X119452380Y-111952380D01*
X118833333Y-111952380D01*
X117880952Y-111952380D02*
X118452380Y-111952380D01*
X118166666Y-111952380D02*
X118166666Y-110952380D01*
X118261904Y-111095238D01*
X118357142Y-111190476D01*
X118452380Y-111238095D01*
G04 #@! TO.C,LED22*
X96595238Y-111952380D02*
X97071428Y-111952380D01*
X97071428Y-110952380D01*
X96261904Y-111428571D02*
X95928571Y-111428571D01*
X95785714Y-111952380D02*
X96261904Y-111952380D01*
X96261904Y-110952380D01*
X95785714Y-110952380D01*
X95357142Y-111952380D02*
X95357142Y-110952380D01*
X95119047Y-110952380D01*
X94976190Y-111000000D01*
X94880952Y-111095238D01*
X94833333Y-111190476D01*
X94785714Y-111380952D01*
X94785714Y-111523809D01*
X94833333Y-111714285D01*
X94880952Y-111809523D01*
X94976190Y-111904761D01*
X95119047Y-111952380D01*
X95357142Y-111952380D01*
X94404761Y-111047619D02*
X94357142Y-111000000D01*
X94261904Y-110952380D01*
X94023809Y-110952380D01*
X93928571Y-111000000D01*
X93880952Y-111047619D01*
X93833333Y-111142857D01*
X93833333Y-111238095D01*
X93880952Y-111380952D01*
X94452380Y-111952380D01*
X93833333Y-111952380D01*
X93452380Y-111047619D02*
X93404761Y-111000000D01*
X93309523Y-110952380D01*
X93071428Y-110952380D01*
X92976190Y-111000000D01*
X92928571Y-111047619D01*
X92880952Y-111142857D01*
X92880952Y-111238095D01*
X92928571Y-111380952D01*
X93500000Y-111952380D01*
X92880952Y-111952380D01*
G04 #@! TO.C,LED23*
X71595238Y-111952380D02*
X72071428Y-111952380D01*
X72071428Y-110952380D01*
X71261904Y-111428571D02*
X70928571Y-111428571D01*
X70785714Y-111952380D02*
X71261904Y-111952380D01*
X71261904Y-110952380D01*
X70785714Y-110952380D01*
X70357142Y-111952380D02*
X70357142Y-110952380D01*
X70119047Y-110952380D01*
X69976190Y-111000000D01*
X69880952Y-111095238D01*
X69833333Y-111190476D01*
X69785714Y-111380952D01*
X69785714Y-111523809D01*
X69833333Y-111714285D01*
X69880952Y-111809523D01*
X69976190Y-111904761D01*
X70119047Y-111952380D01*
X70357142Y-111952380D01*
X69404761Y-111047619D02*
X69357142Y-111000000D01*
X69261904Y-110952380D01*
X69023809Y-110952380D01*
X68928571Y-111000000D01*
X68880952Y-111047619D01*
X68833333Y-111142857D01*
X68833333Y-111238095D01*
X68880952Y-111380952D01*
X69452380Y-111952380D01*
X68833333Y-111952380D01*
X68500000Y-110952380D02*
X67880952Y-110952380D01*
X68214285Y-111333333D01*
X68071428Y-111333333D01*
X67976190Y-111380952D01*
X67928571Y-111428571D01*
X67880952Y-111523809D01*
X67880952Y-111761904D01*
X67928571Y-111857142D01*
X67976190Y-111904761D01*
X68071428Y-111952380D01*
X68357142Y-111952380D01*
X68452380Y-111904761D01*
X68500000Y-111857142D01*
G04 #@! TO.C,LED24*
X46595238Y-111952380D02*
X47071428Y-111952380D01*
X47071428Y-110952380D01*
X46261904Y-111428571D02*
X45928571Y-111428571D01*
X45785714Y-111952380D02*
X46261904Y-111952380D01*
X46261904Y-110952380D01*
X45785714Y-110952380D01*
X45357142Y-111952380D02*
X45357142Y-110952380D01*
X45119047Y-110952380D01*
X44976190Y-111000000D01*
X44880952Y-111095238D01*
X44833333Y-111190476D01*
X44785714Y-111380952D01*
X44785714Y-111523809D01*
X44833333Y-111714285D01*
X44880952Y-111809523D01*
X44976190Y-111904761D01*
X45119047Y-111952380D01*
X45357142Y-111952380D01*
X44404761Y-111047619D02*
X44357142Y-111000000D01*
X44261904Y-110952380D01*
X44023809Y-110952380D01*
X43928571Y-111000000D01*
X43880952Y-111047619D01*
X43833333Y-111142857D01*
X43833333Y-111238095D01*
X43880952Y-111380952D01*
X44452380Y-111952380D01*
X43833333Y-111952380D01*
X42976190Y-111285714D02*
X42976190Y-111952380D01*
X43214285Y-110904761D02*
X43452380Y-111619047D01*
X42833333Y-111619047D01*
G04 #@! TO.C,LED25*
X21595238Y-111952380D02*
X22071428Y-111952380D01*
X22071428Y-110952380D01*
X21261904Y-111428571D02*
X20928571Y-111428571D01*
X20785714Y-111952380D02*
X21261904Y-111952380D01*
X21261904Y-110952380D01*
X20785714Y-110952380D01*
X20357142Y-111952380D02*
X20357142Y-110952380D01*
X20119047Y-110952380D01*
X19976190Y-111000000D01*
X19880952Y-111095238D01*
X19833333Y-111190476D01*
X19785714Y-111380952D01*
X19785714Y-111523809D01*
X19833333Y-111714285D01*
X19880952Y-111809523D01*
X19976190Y-111904761D01*
X20119047Y-111952380D01*
X20357142Y-111952380D01*
X19404761Y-111047619D02*
X19357142Y-111000000D01*
X19261904Y-110952380D01*
X19023809Y-110952380D01*
X18928571Y-111000000D01*
X18880952Y-111047619D01*
X18833333Y-111142857D01*
X18833333Y-111238095D01*
X18880952Y-111380952D01*
X19452380Y-111952380D01*
X18833333Y-111952380D01*
X17928571Y-110952380D02*
X18404761Y-110952380D01*
X18452380Y-111428571D01*
X18404761Y-111380952D01*
X18309523Y-111333333D01*
X18071428Y-111333333D01*
X17976190Y-111380952D01*
X17928571Y-111428571D01*
X17880952Y-111523809D01*
X17880952Y-111761904D01*
X17928571Y-111857142D01*
X17976190Y-111904761D01*
X18071428Y-111952380D01*
X18309523Y-111952380D01*
X18404761Y-111904761D01*
X18452380Y-111857142D01*
G04 #@! TO.C,R37*
X114252380Y-24157142D02*
X113776190Y-23823809D01*
X114252380Y-23585714D02*
X113252380Y-23585714D01*
X113252380Y-23966666D01*
X113300000Y-24061904D01*
X113347619Y-24109523D01*
X113442857Y-24157142D01*
X113585714Y-24157142D01*
X113680952Y-24109523D01*
X113728571Y-24061904D01*
X113776190Y-23966666D01*
X113776190Y-23585714D01*
X113252380Y-24490476D02*
X113252380Y-25109523D01*
X113633333Y-24776190D01*
X113633333Y-24919047D01*
X113680952Y-25014285D01*
X113728571Y-25061904D01*
X113823809Y-25109523D01*
X114061904Y-25109523D01*
X114157142Y-25061904D01*
X114204761Y-25014285D01*
X114252380Y-24919047D01*
X114252380Y-24633333D01*
X114204761Y-24538095D01*
X114157142Y-24490476D01*
X113252380Y-25442857D02*
X113252380Y-26109523D01*
X114252380Y-25680952D01*
G04 #@! TO.C,R38*
X89252380Y-24157142D02*
X88776190Y-23823809D01*
X89252380Y-23585714D02*
X88252380Y-23585714D01*
X88252380Y-23966666D01*
X88300000Y-24061904D01*
X88347619Y-24109523D01*
X88442857Y-24157142D01*
X88585714Y-24157142D01*
X88680952Y-24109523D01*
X88728571Y-24061904D01*
X88776190Y-23966666D01*
X88776190Y-23585714D01*
X88252380Y-24490476D02*
X88252380Y-25109523D01*
X88633333Y-24776190D01*
X88633333Y-24919047D01*
X88680952Y-25014285D01*
X88728571Y-25061904D01*
X88823809Y-25109523D01*
X89061904Y-25109523D01*
X89157142Y-25061904D01*
X89204761Y-25014285D01*
X89252380Y-24919047D01*
X89252380Y-24633333D01*
X89204761Y-24538095D01*
X89157142Y-24490476D01*
X88680952Y-25680952D02*
X88633333Y-25585714D01*
X88585714Y-25538095D01*
X88490476Y-25490476D01*
X88442857Y-25490476D01*
X88347619Y-25538095D01*
X88300000Y-25585714D01*
X88252380Y-25680952D01*
X88252380Y-25871428D01*
X88300000Y-25966666D01*
X88347619Y-26014285D01*
X88442857Y-26061904D01*
X88490476Y-26061904D01*
X88585714Y-26014285D01*
X88633333Y-25966666D01*
X88680952Y-25871428D01*
X88680952Y-25680952D01*
X88728571Y-25585714D01*
X88776190Y-25538095D01*
X88871428Y-25490476D01*
X89061904Y-25490476D01*
X89157142Y-25538095D01*
X89204761Y-25585714D01*
X89252380Y-25680952D01*
X89252380Y-25871428D01*
X89204761Y-25966666D01*
X89157142Y-26014285D01*
X89061904Y-26061904D01*
X88871428Y-26061904D01*
X88776190Y-26014285D01*
X88728571Y-25966666D01*
X88680952Y-25871428D01*
G04 #@! TO.C,R39*
X64252380Y-24157142D02*
X63776190Y-23823809D01*
X64252380Y-23585714D02*
X63252380Y-23585714D01*
X63252380Y-23966666D01*
X63300000Y-24061904D01*
X63347619Y-24109523D01*
X63442857Y-24157142D01*
X63585714Y-24157142D01*
X63680952Y-24109523D01*
X63728571Y-24061904D01*
X63776190Y-23966666D01*
X63776190Y-23585714D01*
X63252380Y-24490476D02*
X63252380Y-25109523D01*
X63633333Y-24776190D01*
X63633333Y-24919047D01*
X63680952Y-25014285D01*
X63728571Y-25061904D01*
X63823809Y-25109523D01*
X64061904Y-25109523D01*
X64157142Y-25061904D01*
X64204761Y-25014285D01*
X64252380Y-24919047D01*
X64252380Y-24633333D01*
X64204761Y-24538095D01*
X64157142Y-24490476D01*
X64252380Y-25585714D02*
X64252380Y-25776190D01*
X64204761Y-25871428D01*
X64157142Y-25919047D01*
X64014285Y-26014285D01*
X63823809Y-26061904D01*
X63442857Y-26061904D01*
X63347619Y-26014285D01*
X63300000Y-25966666D01*
X63252380Y-25871428D01*
X63252380Y-25680952D01*
X63300000Y-25585714D01*
X63347619Y-25538095D01*
X63442857Y-25490476D01*
X63680952Y-25490476D01*
X63776190Y-25538095D01*
X63823809Y-25585714D01*
X63871428Y-25680952D01*
X63871428Y-25871428D01*
X63823809Y-25966666D01*
X63776190Y-26014285D01*
X63680952Y-26061904D01*
G04 #@! TO.C,R40*
X39252380Y-24157142D02*
X38776190Y-23823809D01*
X39252380Y-23585714D02*
X38252380Y-23585714D01*
X38252380Y-23966666D01*
X38300000Y-24061904D01*
X38347619Y-24109523D01*
X38442857Y-24157142D01*
X38585714Y-24157142D01*
X38680952Y-24109523D01*
X38728571Y-24061904D01*
X38776190Y-23966666D01*
X38776190Y-23585714D01*
X38585714Y-25014285D02*
X39252380Y-25014285D01*
X38204761Y-24776190D02*
X38919047Y-24538095D01*
X38919047Y-25157142D01*
X38252380Y-25728571D02*
X38252380Y-25823809D01*
X38300000Y-25919047D01*
X38347619Y-25966666D01*
X38442857Y-26014285D01*
X38633333Y-26061904D01*
X38871428Y-26061904D01*
X39061904Y-26014285D01*
X39157142Y-25966666D01*
X39204761Y-25919047D01*
X39252380Y-25823809D01*
X39252380Y-25728571D01*
X39204761Y-25633333D01*
X39157142Y-25585714D01*
X39061904Y-25538095D01*
X38871428Y-25490476D01*
X38633333Y-25490476D01*
X38442857Y-25538095D01*
X38347619Y-25585714D01*
X38300000Y-25633333D01*
X38252380Y-25728571D01*
G04 #@! TO.C,R41*
X14252380Y-24157142D02*
X13776190Y-23823809D01*
X14252380Y-23585714D02*
X13252380Y-23585714D01*
X13252380Y-23966666D01*
X13300000Y-24061904D01*
X13347619Y-24109523D01*
X13442857Y-24157142D01*
X13585714Y-24157142D01*
X13680952Y-24109523D01*
X13728571Y-24061904D01*
X13776190Y-23966666D01*
X13776190Y-23585714D01*
X13585714Y-25014285D02*
X14252380Y-25014285D01*
X13204761Y-24776190D02*
X13919047Y-24538095D01*
X13919047Y-25157142D01*
X14252380Y-26061904D02*
X14252380Y-25490476D01*
X14252380Y-25776190D02*
X13252380Y-25776190D01*
X13395238Y-25680952D01*
X13490476Y-25585714D01*
X13538095Y-25490476D01*
G04 #@! TO.C,R42*
X26652380Y-34557142D02*
X26176190Y-34223809D01*
X26652380Y-33985714D02*
X25652380Y-33985714D01*
X25652380Y-34366666D01*
X25700000Y-34461904D01*
X25747619Y-34509523D01*
X25842857Y-34557142D01*
X25985714Y-34557142D01*
X26080952Y-34509523D01*
X26128571Y-34461904D01*
X26176190Y-34366666D01*
X26176190Y-33985714D01*
X25985714Y-35414285D02*
X26652380Y-35414285D01*
X25604761Y-35176190D02*
X26319047Y-34938095D01*
X26319047Y-35557142D01*
X25747619Y-35890476D02*
X25700000Y-35938095D01*
X25652380Y-36033333D01*
X25652380Y-36271428D01*
X25700000Y-36366666D01*
X25747619Y-36414285D01*
X25842857Y-36461904D01*
X25938095Y-36461904D01*
X26080952Y-36414285D01*
X26652380Y-35842857D01*
X26652380Y-36461904D01*
G04 #@! TO.C,R43*
X51652380Y-34557142D02*
X51176190Y-34223809D01*
X51652380Y-33985714D02*
X50652380Y-33985714D01*
X50652380Y-34366666D01*
X50700000Y-34461904D01*
X50747619Y-34509523D01*
X50842857Y-34557142D01*
X50985714Y-34557142D01*
X51080952Y-34509523D01*
X51128571Y-34461904D01*
X51176190Y-34366666D01*
X51176190Y-33985714D01*
X50985714Y-35414285D02*
X51652380Y-35414285D01*
X50604761Y-35176190D02*
X51319047Y-34938095D01*
X51319047Y-35557142D01*
X50652380Y-35842857D02*
X50652380Y-36461904D01*
X51033333Y-36128571D01*
X51033333Y-36271428D01*
X51080952Y-36366666D01*
X51128571Y-36414285D01*
X51223809Y-36461904D01*
X51461904Y-36461904D01*
X51557142Y-36414285D01*
X51604761Y-36366666D01*
X51652380Y-36271428D01*
X51652380Y-35985714D01*
X51604761Y-35890476D01*
X51557142Y-35842857D01*
G04 #@! TO.C,R44*
X76652380Y-34557142D02*
X76176190Y-34223809D01*
X76652380Y-33985714D02*
X75652380Y-33985714D01*
X75652380Y-34366666D01*
X75700000Y-34461904D01*
X75747619Y-34509523D01*
X75842857Y-34557142D01*
X75985714Y-34557142D01*
X76080952Y-34509523D01*
X76128571Y-34461904D01*
X76176190Y-34366666D01*
X76176190Y-33985714D01*
X75985714Y-35414285D02*
X76652380Y-35414285D01*
X75604761Y-35176190D02*
X76319047Y-34938095D01*
X76319047Y-35557142D01*
X75985714Y-36366666D02*
X76652380Y-36366666D01*
X75604761Y-36128571D02*
X76319047Y-35890476D01*
X76319047Y-36509523D01*
G04 #@! TO.C,R45*
X101652380Y-34557142D02*
X101176190Y-34223809D01*
X101652380Y-33985714D02*
X100652380Y-33985714D01*
X100652380Y-34366666D01*
X100700000Y-34461904D01*
X100747619Y-34509523D01*
X100842857Y-34557142D01*
X100985714Y-34557142D01*
X101080952Y-34509523D01*
X101128571Y-34461904D01*
X101176190Y-34366666D01*
X101176190Y-33985714D01*
X100985714Y-35414285D02*
X101652380Y-35414285D01*
X100604761Y-35176190D02*
X101319047Y-34938095D01*
X101319047Y-35557142D01*
X100652380Y-36414285D02*
X100652380Y-35938095D01*
X101128571Y-35890476D01*
X101080952Y-35938095D01*
X101033333Y-36033333D01*
X101033333Y-36271428D01*
X101080952Y-36366666D01*
X101128571Y-36414285D01*
X101223809Y-36461904D01*
X101461904Y-36461904D01*
X101557142Y-36414285D01*
X101604761Y-36366666D01*
X101652380Y-36271428D01*
X101652380Y-36033333D01*
X101604761Y-35938095D01*
X101557142Y-35890476D01*
G04 #@! TO.C,R46*
X126652380Y-34557142D02*
X126176190Y-34223809D01*
X126652380Y-33985714D02*
X125652380Y-33985714D01*
X125652380Y-34366666D01*
X125700000Y-34461904D01*
X125747619Y-34509523D01*
X125842857Y-34557142D01*
X125985714Y-34557142D01*
X126080952Y-34509523D01*
X126128571Y-34461904D01*
X126176190Y-34366666D01*
X126176190Y-33985714D01*
X125985714Y-35414285D02*
X126652380Y-35414285D01*
X125604761Y-35176190D02*
X126319047Y-34938095D01*
X126319047Y-35557142D01*
X125652380Y-36366666D02*
X125652380Y-36176190D01*
X125700000Y-36080952D01*
X125747619Y-36033333D01*
X125890476Y-35938095D01*
X126080952Y-35890476D01*
X126461904Y-35890476D01*
X126557142Y-35938095D01*
X126604761Y-35985714D01*
X126652380Y-36080952D01*
X126652380Y-36271428D01*
X126604761Y-36366666D01*
X126557142Y-36414285D01*
X126461904Y-36461904D01*
X126223809Y-36461904D01*
X126128571Y-36414285D01*
X126080952Y-36366666D01*
X126033333Y-36271428D01*
X126033333Y-36080952D01*
X126080952Y-35985714D01*
X126128571Y-35938095D01*
X126223809Y-35890476D01*
G04 #@! TO.C,R47*
X114252380Y-69157142D02*
X113776190Y-68823809D01*
X114252380Y-68585714D02*
X113252380Y-68585714D01*
X113252380Y-68966666D01*
X113300000Y-69061904D01*
X113347619Y-69109523D01*
X113442857Y-69157142D01*
X113585714Y-69157142D01*
X113680952Y-69109523D01*
X113728571Y-69061904D01*
X113776190Y-68966666D01*
X113776190Y-68585714D01*
X113585714Y-70014285D02*
X114252380Y-70014285D01*
X113204761Y-69776190D02*
X113919047Y-69538095D01*
X113919047Y-70157142D01*
X113252380Y-70442857D02*
X113252380Y-71109523D01*
X114252380Y-70680952D01*
G04 #@! TO.C,R48*
X89252380Y-69157142D02*
X88776190Y-68823809D01*
X89252380Y-68585714D02*
X88252380Y-68585714D01*
X88252380Y-68966666D01*
X88300000Y-69061904D01*
X88347619Y-69109523D01*
X88442857Y-69157142D01*
X88585714Y-69157142D01*
X88680952Y-69109523D01*
X88728571Y-69061904D01*
X88776190Y-68966666D01*
X88776190Y-68585714D01*
X88585714Y-70014285D02*
X89252380Y-70014285D01*
X88204761Y-69776190D02*
X88919047Y-69538095D01*
X88919047Y-70157142D01*
X88680952Y-70680952D02*
X88633333Y-70585714D01*
X88585714Y-70538095D01*
X88490476Y-70490476D01*
X88442857Y-70490476D01*
X88347619Y-70538095D01*
X88300000Y-70585714D01*
X88252380Y-70680952D01*
X88252380Y-70871428D01*
X88300000Y-70966666D01*
X88347619Y-71014285D01*
X88442857Y-71061904D01*
X88490476Y-71061904D01*
X88585714Y-71014285D01*
X88633333Y-70966666D01*
X88680952Y-70871428D01*
X88680952Y-70680952D01*
X88728571Y-70585714D01*
X88776190Y-70538095D01*
X88871428Y-70490476D01*
X89061904Y-70490476D01*
X89157142Y-70538095D01*
X89204761Y-70585714D01*
X89252380Y-70680952D01*
X89252380Y-70871428D01*
X89204761Y-70966666D01*
X89157142Y-71014285D01*
X89061904Y-71061904D01*
X88871428Y-71061904D01*
X88776190Y-71014285D01*
X88728571Y-70966666D01*
X88680952Y-70871428D01*
G04 #@! TO.C,R49*
X64252380Y-69157142D02*
X63776190Y-68823809D01*
X64252380Y-68585714D02*
X63252380Y-68585714D01*
X63252380Y-68966666D01*
X63300000Y-69061904D01*
X63347619Y-69109523D01*
X63442857Y-69157142D01*
X63585714Y-69157142D01*
X63680952Y-69109523D01*
X63728571Y-69061904D01*
X63776190Y-68966666D01*
X63776190Y-68585714D01*
X63585714Y-70014285D02*
X64252380Y-70014285D01*
X63204761Y-69776190D02*
X63919047Y-69538095D01*
X63919047Y-70157142D01*
X64252380Y-70585714D02*
X64252380Y-70776190D01*
X64204761Y-70871428D01*
X64157142Y-70919047D01*
X64014285Y-71014285D01*
X63823809Y-71061904D01*
X63442857Y-71061904D01*
X63347619Y-71014285D01*
X63300000Y-70966666D01*
X63252380Y-70871428D01*
X63252380Y-70680952D01*
X63300000Y-70585714D01*
X63347619Y-70538095D01*
X63442857Y-70490476D01*
X63680952Y-70490476D01*
X63776190Y-70538095D01*
X63823809Y-70585714D01*
X63871428Y-70680952D01*
X63871428Y-70871428D01*
X63823809Y-70966666D01*
X63776190Y-71014285D01*
X63680952Y-71061904D01*
G04 #@! TO.C,R50*
X39252380Y-69157142D02*
X38776190Y-68823809D01*
X39252380Y-68585714D02*
X38252380Y-68585714D01*
X38252380Y-68966666D01*
X38300000Y-69061904D01*
X38347619Y-69109523D01*
X38442857Y-69157142D01*
X38585714Y-69157142D01*
X38680952Y-69109523D01*
X38728571Y-69061904D01*
X38776190Y-68966666D01*
X38776190Y-68585714D01*
X38252380Y-70061904D02*
X38252380Y-69585714D01*
X38728571Y-69538095D01*
X38680952Y-69585714D01*
X38633333Y-69680952D01*
X38633333Y-69919047D01*
X38680952Y-70014285D01*
X38728571Y-70061904D01*
X38823809Y-70109523D01*
X39061904Y-70109523D01*
X39157142Y-70061904D01*
X39204761Y-70014285D01*
X39252380Y-69919047D01*
X39252380Y-69680952D01*
X39204761Y-69585714D01*
X39157142Y-69538095D01*
X38252380Y-70728571D02*
X38252380Y-70823809D01*
X38300000Y-70919047D01*
X38347619Y-70966666D01*
X38442857Y-71014285D01*
X38633333Y-71061904D01*
X38871428Y-71061904D01*
X39061904Y-71014285D01*
X39157142Y-70966666D01*
X39204761Y-70919047D01*
X39252380Y-70823809D01*
X39252380Y-70728571D01*
X39204761Y-70633333D01*
X39157142Y-70585714D01*
X39061904Y-70538095D01*
X38871428Y-70490476D01*
X38633333Y-70490476D01*
X38442857Y-70538095D01*
X38347619Y-70585714D01*
X38300000Y-70633333D01*
X38252380Y-70728571D01*
G04 #@! TO.C,R51*
X14252380Y-69157142D02*
X13776190Y-68823809D01*
X14252380Y-68585714D02*
X13252380Y-68585714D01*
X13252380Y-68966666D01*
X13300000Y-69061904D01*
X13347619Y-69109523D01*
X13442857Y-69157142D01*
X13585714Y-69157142D01*
X13680952Y-69109523D01*
X13728571Y-69061904D01*
X13776190Y-68966666D01*
X13776190Y-68585714D01*
X13252380Y-70061904D02*
X13252380Y-69585714D01*
X13728571Y-69538095D01*
X13680952Y-69585714D01*
X13633333Y-69680952D01*
X13633333Y-69919047D01*
X13680952Y-70014285D01*
X13728571Y-70061904D01*
X13823809Y-70109523D01*
X14061904Y-70109523D01*
X14157142Y-70061904D01*
X14204761Y-70014285D01*
X14252380Y-69919047D01*
X14252380Y-69680952D01*
X14204761Y-69585714D01*
X14157142Y-69538095D01*
X14252380Y-71061904D02*
X14252380Y-70490476D01*
X14252380Y-70776190D02*
X13252380Y-70776190D01*
X13395238Y-70680952D01*
X13490476Y-70585714D01*
X13538095Y-70490476D01*
G04 #@! TO.C,R52*
X26652380Y-84557142D02*
X26176190Y-84223809D01*
X26652380Y-83985714D02*
X25652380Y-83985714D01*
X25652380Y-84366666D01*
X25700000Y-84461904D01*
X25747619Y-84509523D01*
X25842857Y-84557142D01*
X25985714Y-84557142D01*
X26080952Y-84509523D01*
X26128571Y-84461904D01*
X26176190Y-84366666D01*
X26176190Y-83985714D01*
X25652380Y-85461904D02*
X25652380Y-84985714D01*
X26128571Y-84938095D01*
X26080952Y-84985714D01*
X26033333Y-85080952D01*
X26033333Y-85319047D01*
X26080952Y-85414285D01*
X26128571Y-85461904D01*
X26223809Y-85509523D01*
X26461904Y-85509523D01*
X26557142Y-85461904D01*
X26604761Y-85414285D01*
X26652380Y-85319047D01*
X26652380Y-85080952D01*
X26604761Y-84985714D01*
X26557142Y-84938095D01*
X25747619Y-85890476D02*
X25700000Y-85938095D01*
X25652380Y-86033333D01*
X25652380Y-86271428D01*
X25700000Y-86366666D01*
X25747619Y-86414285D01*
X25842857Y-86461904D01*
X25938095Y-86461904D01*
X26080952Y-86414285D01*
X26652380Y-85842857D01*
X26652380Y-86461904D01*
G04 #@! TO.C,R53*
X51652380Y-84557142D02*
X51176190Y-84223809D01*
X51652380Y-83985714D02*
X50652380Y-83985714D01*
X50652380Y-84366666D01*
X50700000Y-84461904D01*
X50747619Y-84509523D01*
X50842857Y-84557142D01*
X50985714Y-84557142D01*
X51080952Y-84509523D01*
X51128571Y-84461904D01*
X51176190Y-84366666D01*
X51176190Y-83985714D01*
X50652380Y-85461904D02*
X50652380Y-84985714D01*
X51128571Y-84938095D01*
X51080952Y-84985714D01*
X51033333Y-85080952D01*
X51033333Y-85319047D01*
X51080952Y-85414285D01*
X51128571Y-85461904D01*
X51223809Y-85509523D01*
X51461904Y-85509523D01*
X51557142Y-85461904D01*
X51604761Y-85414285D01*
X51652380Y-85319047D01*
X51652380Y-85080952D01*
X51604761Y-84985714D01*
X51557142Y-84938095D01*
X50652380Y-85842857D02*
X50652380Y-86461904D01*
X51033333Y-86128571D01*
X51033333Y-86271428D01*
X51080952Y-86366666D01*
X51128571Y-86414285D01*
X51223809Y-86461904D01*
X51461904Y-86461904D01*
X51557142Y-86414285D01*
X51604761Y-86366666D01*
X51652380Y-86271428D01*
X51652380Y-85985714D01*
X51604761Y-85890476D01*
X51557142Y-85842857D01*
G04 #@! TO.C,R54*
X76652380Y-84557142D02*
X76176190Y-84223809D01*
X76652380Y-83985714D02*
X75652380Y-83985714D01*
X75652380Y-84366666D01*
X75700000Y-84461904D01*
X75747619Y-84509523D01*
X75842857Y-84557142D01*
X75985714Y-84557142D01*
X76080952Y-84509523D01*
X76128571Y-84461904D01*
X76176190Y-84366666D01*
X76176190Y-83985714D01*
X75652380Y-85461904D02*
X75652380Y-84985714D01*
X76128571Y-84938095D01*
X76080952Y-84985714D01*
X76033333Y-85080952D01*
X76033333Y-85319047D01*
X76080952Y-85414285D01*
X76128571Y-85461904D01*
X76223809Y-85509523D01*
X76461904Y-85509523D01*
X76557142Y-85461904D01*
X76604761Y-85414285D01*
X76652380Y-85319047D01*
X76652380Y-85080952D01*
X76604761Y-84985714D01*
X76557142Y-84938095D01*
X75985714Y-86366666D02*
X76652380Y-86366666D01*
X75604761Y-86128571D02*
X76319047Y-85890476D01*
X76319047Y-86509523D01*
G04 #@! TO.C,R55*
X101652380Y-84557142D02*
X101176190Y-84223809D01*
X101652380Y-83985714D02*
X100652380Y-83985714D01*
X100652380Y-84366666D01*
X100700000Y-84461904D01*
X100747619Y-84509523D01*
X100842857Y-84557142D01*
X100985714Y-84557142D01*
X101080952Y-84509523D01*
X101128571Y-84461904D01*
X101176190Y-84366666D01*
X101176190Y-83985714D01*
X100652380Y-85461904D02*
X100652380Y-84985714D01*
X101128571Y-84938095D01*
X101080952Y-84985714D01*
X101033333Y-85080952D01*
X101033333Y-85319047D01*
X101080952Y-85414285D01*
X101128571Y-85461904D01*
X101223809Y-85509523D01*
X101461904Y-85509523D01*
X101557142Y-85461904D01*
X101604761Y-85414285D01*
X101652380Y-85319047D01*
X101652380Y-85080952D01*
X101604761Y-84985714D01*
X101557142Y-84938095D01*
X100652380Y-86414285D02*
X100652380Y-85938095D01*
X101128571Y-85890476D01*
X101080952Y-85938095D01*
X101033333Y-86033333D01*
X101033333Y-86271428D01*
X101080952Y-86366666D01*
X101128571Y-86414285D01*
X101223809Y-86461904D01*
X101461904Y-86461904D01*
X101557142Y-86414285D01*
X101604761Y-86366666D01*
X101652380Y-86271428D01*
X101652380Y-86033333D01*
X101604761Y-85938095D01*
X101557142Y-85890476D01*
G04 #@! TO.C,R56*
X126652380Y-84557142D02*
X126176190Y-84223809D01*
X126652380Y-83985714D02*
X125652380Y-83985714D01*
X125652380Y-84366666D01*
X125700000Y-84461904D01*
X125747619Y-84509523D01*
X125842857Y-84557142D01*
X125985714Y-84557142D01*
X126080952Y-84509523D01*
X126128571Y-84461904D01*
X126176190Y-84366666D01*
X126176190Y-83985714D01*
X125652380Y-85461904D02*
X125652380Y-84985714D01*
X126128571Y-84938095D01*
X126080952Y-84985714D01*
X126033333Y-85080952D01*
X126033333Y-85319047D01*
X126080952Y-85414285D01*
X126128571Y-85461904D01*
X126223809Y-85509523D01*
X126461904Y-85509523D01*
X126557142Y-85461904D01*
X126604761Y-85414285D01*
X126652380Y-85319047D01*
X126652380Y-85080952D01*
X126604761Y-84985714D01*
X126557142Y-84938095D01*
X125652380Y-86366666D02*
X125652380Y-86176190D01*
X125700000Y-86080952D01*
X125747619Y-86033333D01*
X125890476Y-85938095D01*
X126080952Y-85890476D01*
X126461904Y-85890476D01*
X126557142Y-85938095D01*
X126604761Y-85985714D01*
X126652380Y-86080952D01*
X126652380Y-86271428D01*
X126604761Y-86366666D01*
X126557142Y-86414285D01*
X126461904Y-86461904D01*
X126223809Y-86461904D01*
X126128571Y-86414285D01*
X126080952Y-86366666D01*
X126033333Y-86271428D01*
X126033333Y-86080952D01*
X126080952Y-85985714D01*
X126128571Y-85938095D01*
X126223809Y-85890476D01*
G04 #@! TO.C,R57*
X114252380Y-119157142D02*
X113776190Y-118823809D01*
X114252380Y-118585714D02*
X113252380Y-118585714D01*
X113252380Y-118966666D01*
X113300000Y-119061904D01*
X113347619Y-119109523D01*
X113442857Y-119157142D01*
X113585714Y-119157142D01*
X113680952Y-119109523D01*
X113728571Y-119061904D01*
X113776190Y-118966666D01*
X113776190Y-118585714D01*
X113252380Y-120061904D02*
X113252380Y-119585714D01*
X113728571Y-119538095D01*
X113680952Y-119585714D01*
X113633333Y-119680952D01*
X113633333Y-119919047D01*
X113680952Y-120014285D01*
X113728571Y-120061904D01*
X113823809Y-120109523D01*
X114061904Y-120109523D01*
X114157142Y-120061904D01*
X114204761Y-120014285D01*
X114252380Y-119919047D01*
X114252380Y-119680952D01*
X114204761Y-119585714D01*
X114157142Y-119538095D01*
X113252380Y-120442857D02*
X113252380Y-121109523D01*
X114252380Y-120680952D01*
G04 #@! TO.C,R58*
X89252380Y-119157142D02*
X88776190Y-118823809D01*
X89252380Y-118585714D02*
X88252380Y-118585714D01*
X88252380Y-118966666D01*
X88300000Y-119061904D01*
X88347619Y-119109523D01*
X88442857Y-119157142D01*
X88585714Y-119157142D01*
X88680952Y-119109523D01*
X88728571Y-119061904D01*
X88776190Y-118966666D01*
X88776190Y-118585714D01*
X88252380Y-120061904D02*
X88252380Y-119585714D01*
X88728571Y-119538095D01*
X88680952Y-119585714D01*
X88633333Y-119680952D01*
X88633333Y-119919047D01*
X88680952Y-120014285D01*
X88728571Y-120061904D01*
X88823809Y-120109523D01*
X89061904Y-120109523D01*
X89157142Y-120061904D01*
X89204761Y-120014285D01*
X89252380Y-119919047D01*
X89252380Y-119680952D01*
X89204761Y-119585714D01*
X89157142Y-119538095D01*
X88680952Y-120680952D02*
X88633333Y-120585714D01*
X88585714Y-120538095D01*
X88490476Y-120490476D01*
X88442857Y-120490476D01*
X88347619Y-120538095D01*
X88300000Y-120585714D01*
X88252380Y-120680952D01*
X88252380Y-120871428D01*
X88300000Y-120966666D01*
X88347619Y-121014285D01*
X88442857Y-121061904D01*
X88490476Y-121061904D01*
X88585714Y-121014285D01*
X88633333Y-120966666D01*
X88680952Y-120871428D01*
X88680952Y-120680952D01*
X88728571Y-120585714D01*
X88776190Y-120538095D01*
X88871428Y-120490476D01*
X89061904Y-120490476D01*
X89157142Y-120538095D01*
X89204761Y-120585714D01*
X89252380Y-120680952D01*
X89252380Y-120871428D01*
X89204761Y-120966666D01*
X89157142Y-121014285D01*
X89061904Y-121061904D01*
X88871428Y-121061904D01*
X88776190Y-121014285D01*
X88728571Y-120966666D01*
X88680952Y-120871428D01*
G04 #@! TO.C,R59*
X64252380Y-119157142D02*
X63776190Y-118823809D01*
X64252380Y-118585714D02*
X63252380Y-118585714D01*
X63252380Y-118966666D01*
X63300000Y-119061904D01*
X63347619Y-119109523D01*
X63442857Y-119157142D01*
X63585714Y-119157142D01*
X63680952Y-119109523D01*
X63728571Y-119061904D01*
X63776190Y-118966666D01*
X63776190Y-118585714D01*
X63252380Y-120061904D02*
X63252380Y-119585714D01*
X63728571Y-119538095D01*
X63680952Y-119585714D01*
X63633333Y-119680952D01*
X63633333Y-119919047D01*
X63680952Y-120014285D01*
X63728571Y-120061904D01*
X63823809Y-120109523D01*
X64061904Y-120109523D01*
X64157142Y-120061904D01*
X64204761Y-120014285D01*
X64252380Y-119919047D01*
X64252380Y-119680952D01*
X64204761Y-119585714D01*
X64157142Y-119538095D01*
X64252380Y-120585714D02*
X64252380Y-120776190D01*
X64204761Y-120871428D01*
X64157142Y-120919047D01*
X64014285Y-121014285D01*
X63823809Y-121061904D01*
X63442857Y-121061904D01*
X63347619Y-121014285D01*
X63300000Y-120966666D01*
X63252380Y-120871428D01*
X63252380Y-120680952D01*
X63300000Y-120585714D01*
X63347619Y-120538095D01*
X63442857Y-120490476D01*
X63680952Y-120490476D01*
X63776190Y-120538095D01*
X63823809Y-120585714D01*
X63871428Y-120680952D01*
X63871428Y-120871428D01*
X63823809Y-120966666D01*
X63776190Y-121014285D01*
X63680952Y-121061904D01*
G04 #@! TO.C,R60*
X39252380Y-119157142D02*
X38776190Y-118823809D01*
X39252380Y-118585714D02*
X38252380Y-118585714D01*
X38252380Y-118966666D01*
X38300000Y-119061904D01*
X38347619Y-119109523D01*
X38442857Y-119157142D01*
X38585714Y-119157142D01*
X38680952Y-119109523D01*
X38728571Y-119061904D01*
X38776190Y-118966666D01*
X38776190Y-118585714D01*
X38252380Y-120014285D02*
X38252380Y-119823809D01*
X38300000Y-119728571D01*
X38347619Y-119680952D01*
X38490476Y-119585714D01*
X38680952Y-119538095D01*
X39061904Y-119538095D01*
X39157142Y-119585714D01*
X39204761Y-119633333D01*
X39252380Y-119728571D01*
X39252380Y-119919047D01*
X39204761Y-120014285D01*
X39157142Y-120061904D01*
X39061904Y-120109523D01*
X38823809Y-120109523D01*
X38728571Y-120061904D01*
X38680952Y-120014285D01*
X38633333Y-119919047D01*
X38633333Y-119728571D01*
X38680952Y-119633333D01*
X38728571Y-119585714D01*
X38823809Y-119538095D01*
X38252380Y-120728571D02*
X38252380Y-120823809D01*
X38300000Y-120919047D01*
X38347619Y-120966666D01*
X38442857Y-121014285D01*
X38633333Y-121061904D01*
X38871428Y-121061904D01*
X39061904Y-121014285D01*
X39157142Y-120966666D01*
X39204761Y-120919047D01*
X39252380Y-120823809D01*
X39252380Y-120728571D01*
X39204761Y-120633333D01*
X39157142Y-120585714D01*
X39061904Y-120538095D01*
X38871428Y-120490476D01*
X38633333Y-120490476D01*
X38442857Y-120538095D01*
X38347619Y-120585714D01*
X38300000Y-120633333D01*
X38252380Y-120728571D01*
G04 #@! TO.C,R61*
X14252380Y-119157142D02*
X13776190Y-118823809D01*
X14252380Y-118585714D02*
X13252380Y-118585714D01*
X13252380Y-118966666D01*
X13300000Y-119061904D01*
X13347619Y-119109523D01*
X13442857Y-119157142D01*
X13585714Y-119157142D01*
X13680952Y-119109523D01*
X13728571Y-119061904D01*
X13776190Y-118966666D01*
X13776190Y-118585714D01*
X13252380Y-120014285D02*
X13252380Y-119823809D01*
X13300000Y-119728571D01*
X13347619Y-119680952D01*
X13490476Y-119585714D01*
X13680952Y-119538095D01*
X14061904Y-119538095D01*
X14157142Y-119585714D01*
X14204761Y-119633333D01*
X14252380Y-119728571D01*
X14252380Y-119919047D01*
X14204761Y-120014285D01*
X14157142Y-120061904D01*
X14061904Y-120109523D01*
X13823809Y-120109523D01*
X13728571Y-120061904D01*
X13680952Y-120014285D01*
X13633333Y-119919047D01*
X13633333Y-119728571D01*
X13680952Y-119633333D01*
X13728571Y-119585714D01*
X13823809Y-119538095D01*
X14252380Y-121061904D02*
X14252380Y-120490476D01*
X14252380Y-120776190D02*
X13252380Y-120776190D01*
X13395238Y-120680952D01*
X13490476Y-120585714D01*
X13538095Y-120490476D01*
G04 #@! TO.C,*
G04 #@! TD*
M02*
