G04 #@! TF.GenerationSoftware,KiCad,Pcbnew,(5.0.0)*
G04 #@! TF.CreationDate,2018-09-01T12:46:00+09:00*
G04 #@! TF.ProjectId,LED_Board,4C45445F426F6172642E6B696361645F,rev?*
G04 #@! TF.SameCoordinates,PX4c4b400PY1312d00*
G04 #@! TF.FileFunction,Soldermask,Top*
G04 #@! TF.FilePolarity,Negative*
%FSLAX46Y46*%
G04 Gerber Fmt 4.6, Leading zero omitted, Abs format (unit mm)*
G04 Created by KiCad (PCBNEW (5.0.0)) date 09/01/18 12:46:00*
%MOMM*%
%LPD*%
G01*
G04 APERTURE LIST*
%ADD10C,2.200000*%
%ADD11C,3.400000*%
%ADD12R,1.400000X1.700000*%
%ADD13R,1.700000X1.400000*%
%ADD14R,1.700000X2.200000*%
%ADD15R,4.500000X1.800000*%
%ADD16R,1.200000X1.100000*%
%ADD17R,4.000000X1.800000*%
%ADD18R,1.800000X4.500000*%
%ADD19R,1.100000X1.200000*%
%ADD20R,1.800000X4.000000*%
%ADD21R,1.800000X2.900000*%
%ADD22R,0.600000X1.800000*%
%ADD23C,0.700000*%
%ADD24O,1.250000X1.800000*%
%ADD25O,1.290000X2.200000*%
%ADD26R,1.900000X1.400000*%
%ADD27O,5.200000X3.200000*%
%ADD28O,5.700000X3.200000*%
%ADD29O,3.200000X5.200000*%
%ADD30C,2.600000*%
%ADD31C,1.200000*%
%ADD32R,5.000000X4.000000*%
%ADD33R,1.200000X0.900000*%
%ADD34R,1.800000X3.200000*%
%ADD35R,6.200000X6.200000*%
%ADD36R,3.200000X1.800000*%
%ADD37R,1.000000X1.500000*%
%ADD38R,1.500000X1.000000*%
%ADD39R,3.500000X1.500000*%
%ADD40R,1.500000X3.500000*%
%ADD41R,1.800000X2.200000*%
%ADD42R,2.200000X2.200000*%
%ADD43C,2.800000*%
%ADD44R,0.900000X2.000000*%
%ADD45R,1.400000X0.800000*%
%ADD46R,0.600000X2.000000*%
%ADD47R,0.700000X1.600000*%
%ADD48R,1.600000X0.700000*%
%ADD49R,1.200000X3.300000*%
%ADD50C,1.000000*%
G04 APERTURE END LIST*
D10*
G04 #@! TO.C,*
X95250000Y-25000000D03*
G04 #@! TD*
D11*
G04 #@! TO.C,*
X5000000Y-135000000D03*
G04 #@! TD*
D12*
G04 #@! TO.C,D6*
X115800000Y-18800000D03*
X115800000Y-21800000D03*
G04 #@! TD*
G04 #@! TO.C,D7*
X118400000Y-23800000D03*
X118400000Y-26800000D03*
G04 #@! TD*
G04 #@! TO.C,D5*
X56200000Y-44800000D03*
X56200000Y-47800000D03*
G04 #@! TD*
D13*
G04 #@! TO.C,D1*
X45500000Y-37000000D03*
X42500000Y-37000000D03*
G04 #@! TD*
G04 #@! TO.C,D3*
X45500000Y-34600000D03*
X42500000Y-34600000D03*
G04 #@! TD*
G04 #@! TO.C,D2*
X25900000Y-31700000D03*
X28900000Y-31700000D03*
G04 #@! TD*
D14*
G04 #@! TO.C,D4*
X21200000Y-57400000D03*
X17000000Y-57400000D03*
G04 #@! TD*
D15*
G04 #@! TO.C,C1*
X19750000Y-82000000D03*
X13450000Y-82000000D03*
G04 #@! TD*
D16*
G04 #@! TO.C,C2*
X15100000Y-75500000D03*
X13500000Y-75500000D03*
G04 #@! TD*
D17*
G04 #@! TO.C,C3*
X94350000Y-32600000D03*
X88850000Y-32600000D03*
G04 #@! TD*
D18*
G04 #@! TO.C,C4*
X27900000Y-50150000D03*
X27900000Y-43850000D03*
G04 #@! TD*
D16*
G04 #@! TO.C,C5*
X50600000Y-33900000D03*
X49000000Y-33900000D03*
G04 #@! TD*
G04 #@! TO.C,C6*
X21300000Y-54400000D03*
X19700000Y-54400000D03*
G04 #@! TD*
D19*
G04 #@! TO.C,C7*
X85800000Y-20400000D03*
X85800000Y-22000000D03*
G04 #@! TD*
D20*
G04 #@! TO.C,C8*
X94400000Y-20350000D03*
X94400000Y-14850000D03*
G04 #@! TD*
D16*
G04 #@! TO.C,C9*
X62400000Y-42000000D03*
X64000000Y-42000000D03*
G04 #@! TD*
G04 #@! TO.C,C10*
X54600000Y-53800000D03*
X56200000Y-53800000D03*
G04 #@! TD*
G04 #@! TO.C,C11*
X54600000Y-55600000D03*
X56200000Y-55600000D03*
G04 #@! TD*
D19*
G04 #@! TO.C,C12*
X69500000Y-57800000D03*
X69500000Y-56200000D03*
G04 #@! TD*
D21*
G04 #@! TO.C,C13*
X58800000Y-16450000D03*
X58800000Y-19950000D03*
G04 #@! TD*
D19*
G04 #@! TO.C,C14*
X62000000Y-19600000D03*
X62000000Y-21200000D03*
G04 #@! TD*
D16*
G04 #@! TO.C,C15*
X60300000Y-33000000D03*
X58700000Y-33000000D03*
G04 #@! TD*
D19*
G04 #@! TO.C,C16*
X64000000Y-19600000D03*
X64000000Y-21200000D03*
G04 #@! TD*
G04 #@! TO.C,C17*
X75000000Y-56800000D03*
X75000000Y-58400000D03*
G04 #@! TD*
G04 #@! TO.C,C18*
X54000000Y-46200000D03*
X54000000Y-47800000D03*
G04 #@! TD*
G04 #@! TO.C,C19*
X49500000Y-48300000D03*
X49500000Y-49900000D03*
G04 #@! TD*
D16*
G04 #@! TO.C,C20*
X54200000Y-64800000D03*
X55800000Y-64800000D03*
G04 #@! TD*
D19*
G04 #@! TO.C,C21*
X115800000Y-26200000D03*
X115800000Y-27800000D03*
G04 #@! TD*
D16*
G04 #@! TO.C,C22*
X106200000Y-30200000D03*
X104600000Y-30200000D03*
G04 #@! TD*
D19*
G04 #@! TO.C,C23*
X108000000Y-21800000D03*
X108000000Y-20200000D03*
G04 #@! TD*
G04 #@! TO.C,C24*
X98400000Y-21800000D03*
X98400000Y-23400000D03*
G04 #@! TD*
G04 #@! TO.C,C25*
X114600000Y-31800000D03*
X114600000Y-30200000D03*
G04 #@! TD*
D22*
G04 #@! TO.C,CN2*
X61300000Y-5650000D03*
X60650000Y-5650000D03*
X60000000Y-5650000D03*
X59350000Y-5650000D03*
X58700000Y-5650000D03*
D23*
X62000000Y-4650000D03*
X58000000Y-4650000D03*
D24*
X63600000Y-5950000D03*
X56400000Y-5950000D03*
D25*
X63600000Y-2500000D03*
X56400000Y-2500000D03*
G04 #@! TD*
D26*
G04 #@! TO.C,F1*
X25000000Y-22800000D03*
X25000000Y-19800000D03*
G04 #@! TD*
D27*
G04 #@! TO.C,J1*
X25000000Y-8200000D03*
D28*
X25000000Y-14200000D03*
D29*
X20100000Y-11250000D03*
G04 #@! TD*
D30*
G04 #@! TO.C,J2*
X112900000Y-6500000D03*
X107100000Y-6500000D03*
D31*
X112500000Y-10000000D03*
X107500000Y-10000000D03*
D30*
X112250000Y-14000000D03*
X107750000Y-14000000D03*
G04 #@! TD*
D32*
G04 #@! TO.C,L1*
X10600000Y-71750000D03*
X10600000Y-61850000D03*
G04 #@! TD*
D33*
G04 #@! TO.C,OSC1*
X53400000Y-63150000D03*
X53400000Y-61250000D03*
X53400000Y-62200000D03*
X55800000Y-63150000D03*
X55800000Y-61250000D03*
G04 #@! TD*
D34*
G04 #@! TO.C,Q1*
X38100000Y-29000000D03*
X33500000Y-29000000D03*
D35*
X35800000Y-22500000D03*
G04 #@! TD*
D34*
G04 #@! TO.C,Q2*
X46500000Y-29000000D03*
X41900000Y-29000000D03*
D35*
X44200000Y-22500000D03*
G04 #@! TD*
D36*
G04 #@! TO.C,Q3*
X32800000Y-34600000D03*
X32800000Y-39200000D03*
D35*
X26300000Y-36900000D03*
G04 #@! TD*
D37*
G04 #@! TO.C,Q4*
X29800000Y-23700000D03*
X28850000Y-26200000D03*
X30750000Y-26200000D03*
G04 #@! TD*
D34*
G04 #@! TO.C,Q5*
X8700000Y-48700000D03*
X13300000Y-48700000D03*
D35*
X11000000Y-55200000D03*
G04 #@! TD*
D38*
G04 #@! TO.C,Q6*
X48100000Y-37050000D03*
X50600000Y-38000000D03*
X50600000Y-36100000D03*
G04 #@! TD*
D39*
G04 #@! TO.C,R1*
X18700000Y-36950000D03*
X18700000Y-43050000D03*
G04 #@! TD*
D16*
G04 #@! TO.C,R2*
X24300000Y-26300000D03*
X25900000Y-26300000D03*
G04 #@! TD*
D19*
G04 #@! TO.C,R3*
X36600000Y-39200000D03*
X36600000Y-37600000D03*
G04 #@! TD*
G04 #@! TO.C,R4*
X6200000Y-42200000D03*
X6200000Y-43800000D03*
G04 #@! TD*
D40*
G04 #@! TO.C,R5*
X14750000Y-43800000D03*
X8650000Y-43800000D03*
G04 #@! TD*
D16*
G04 #@! TO.C,R6*
X25900000Y-29000000D03*
X24300000Y-29000000D03*
G04 #@! TD*
D19*
G04 #@! TO.C,R7*
X39100000Y-37600000D03*
X39100000Y-39200000D03*
G04 #@! TD*
D16*
G04 #@! TO.C,R8*
X28900000Y-29000000D03*
X30500000Y-29000000D03*
G04 #@! TD*
D19*
G04 #@! TO.C,R9*
X61400000Y-62400000D03*
X61400000Y-60800000D03*
G04 #@! TD*
D16*
G04 #@! TO.C,R10*
X38200000Y-34600000D03*
X36600000Y-34600000D03*
G04 #@! TD*
D19*
G04 #@! TO.C,R11*
X23900000Y-57800000D03*
X23900000Y-56200000D03*
G04 #@! TD*
D16*
G04 #@! TO.C,R12*
X49000000Y-40400000D03*
X50600000Y-40400000D03*
G04 #@! TD*
G04 #@! TO.C,R13*
X26300000Y-56200000D03*
X27900000Y-56200000D03*
G04 #@! TD*
D19*
G04 #@! TO.C,R14*
X56600000Y-33000000D03*
X56600000Y-34600000D03*
G04 #@! TD*
D16*
G04 #@! TO.C,R15*
X63900000Y-46600000D03*
X62300000Y-46600000D03*
G04 #@! TD*
D19*
G04 #@! TO.C,R16*
X61400000Y-8800000D03*
X61400000Y-10400000D03*
G04 #@! TD*
D16*
G04 #@! TO.C,R17*
X63000000Y-12800000D03*
X61400000Y-12800000D03*
G04 #@! TD*
G04 #@! TO.C,R18*
X56200000Y-49900000D03*
X54600000Y-49900000D03*
G04 #@! TD*
D19*
G04 #@! TO.C,R19*
X72800000Y-58400000D03*
X72800000Y-56800000D03*
G04 #@! TD*
G04 #@! TO.C,R20*
X60300000Y-47700000D03*
X60300000Y-46100000D03*
G04 #@! TD*
G04 #@! TO.C,R21*
X72800000Y-53000000D03*
X72800000Y-54600000D03*
G04 #@! TD*
D16*
G04 #@! TO.C,R22*
X56200000Y-51900000D03*
X54600000Y-51900000D03*
G04 #@! TD*
D19*
G04 #@! TO.C,R23*
X51800000Y-49900000D03*
X51800000Y-48300000D03*
G04 #@! TD*
G04 #@! TO.C,R24*
X70600000Y-51200000D03*
X70600000Y-52800000D03*
G04 #@! TD*
G04 #@! TO.C,R25*
X47100000Y-48300000D03*
X47100000Y-49900000D03*
G04 #@! TD*
D16*
G04 #@! TO.C,R26*
X54200000Y-67000000D03*
X55800000Y-67000000D03*
G04 #@! TD*
D19*
G04 #@! TO.C,R27*
X55800000Y-59200000D03*
X55800000Y-57600000D03*
G04 #@! TD*
D16*
G04 #@! TO.C,R28*
X115800000Y-14000000D03*
X117400000Y-14000000D03*
G04 #@! TD*
D19*
G04 #@! TO.C,R29*
X118400000Y-19400000D03*
X118400000Y-21000000D03*
G04 #@! TD*
G04 #@! TO.C,R30*
X103200000Y-17600000D03*
X103200000Y-19200000D03*
G04 #@! TD*
D16*
G04 #@! TO.C,R31*
X100800000Y-19200000D03*
X99200000Y-19200000D03*
G04 #@! TD*
D19*
G04 #@! TO.C,R32*
X112200000Y-31800000D03*
X112200000Y-30200000D03*
G04 #@! TD*
G04 #@! TO.C,R33*
X112200000Y-17600000D03*
X112200000Y-19200000D03*
G04 #@! TD*
G04 #@! TO.C,R34*
X118600000Y-30200000D03*
X118600000Y-31800000D03*
G04 #@! TD*
G04 #@! TO.C,R35*
X110200000Y-19200000D03*
X110200000Y-17600000D03*
G04 #@! TD*
G04 #@! TO.C,R36*
X109600000Y-30200000D03*
X109600000Y-31800000D03*
G04 #@! TD*
D41*
G04 #@! TO.C,RV1*
X100225000Y-14800000D03*
X102575000Y-14800000D03*
D42*
X101400000Y-8800000D03*
G04 #@! TD*
D10*
G04 #@! TO.C,SW1*
X75750000Y-5500000D03*
X80250000Y-5500000D03*
D43*
X74500000Y-3000000D03*
X81500000Y-3000000D03*
G04 #@! TD*
D10*
G04 #@! TO.C,SW2*
X87750000Y-5500000D03*
X92250000Y-5500000D03*
D43*
X86500000Y-3000000D03*
X93500000Y-3000000D03*
G04 #@! TD*
D44*
G04 #@! TO.C,U1*
X21005000Y-52100000D03*
X21005000Y-46300000D03*
X19735000Y-52100000D03*
X19735000Y-46300000D03*
X18465000Y-52100000D03*
X18465000Y-46300000D03*
X17195000Y-52100000D03*
X17195000Y-46300000D03*
G04 #@! TD*
G04 #@! TO.C,U2*
X91505000Y-27700000D03*
X91505000Y-21900000D03*
X90235000Y-27700000D03*
X90235000Y-21900000D03*
X88965000Y-27700000D03*
X88965000Y-21900000D03*
X87695000Y-27700000D03*
X87695000Y-21900000D03*
G04 #@! TD*
D45*
G04 #@! TO.C,U3*
X62300000Y-44850000D03*
X62300000Y-43550000D03*
X64200000Y-44200000D03*
G04 #@! TD*
D46*
G04 #@! TO.C,U4*
X65225000Y-30600000D03*
X65225000Y-23400000D03*
X64575000Y-30600000D03*
X64575000Y-23400000D03*
X63925000Y-30600000D03*
X63925000Y-23400000D03*
X63275000Y-30600000D03*
X63275000Y-23400000D03*
X62625000Y-30600000D03*
X62625000Y-23400000D03*
X61975000Y-30600000D03*
X61975000Y-23400000D03*
X61325000Y-30600000D03*
X61325000Y-23400000D03*
X60675000Y-30600000D03*
X60675000Y-23400000D03*
X60025000Y-30600000D03*
X60025000Y-23400000D03*
X59375000Y-30600000D03*
X59375000Y-23400000D03*
X58725000Y-30600000D03*
X58725000Y-23400000D03*
X58075000Y-30600000D03*
X58075000Y-23400000D03*
X57425000Y-30600000D03*
X57425000Y-23400000D03*
X56775000Y-30600000D03*
X56775000Y-23400000D03*
G04 #@! TD*
D47*
G04 #@! TO.C,U5*
X59800000Y-49900000D03*
X60600000Y-49900000D03*
X61400000Y-49900000D03*
X62200000Y-49900000D03*
X63000000Y-49900000D03*
X63800000Y-49900000D03*
X64600000Y-49900000D03*
X65400000Y-49900000D03*
D48*
X66900000Y-51400000D03*
X66900000Y-52200000D03*
X66900000Y-53000000D03*
X66900000Y-53800000D03*
X66900000Y-54600000D03*
X66900000Y-55400000D03*
X66900000Y-56200000D03*
X66900000Y-57000000D03*
D47*
X65400000Y-58500000D03*
X64600000Y-58500000D03*
X63800000Y-58500000D03*
X63000000Y-58500000D03*
X62200000Y-58500000D03*
X61400000Y-58500000D03*
X60600000Y-58500000D03*
X59800000Y-58500000D03*
D48*
X58300000Y-57000000D03*
X58300000Y-56200000D03*
X58300000Y-55400000D03*
X58300000Y-54600000D03*
X58300000Y-53800000D03*
X58300000Y-53000000D03*
X58300000Y-52200000D03*
X58300000Y-51400000D03*
G04 #@! TD*
D33*
G04 #@! TO.C,U6*
X77200000Y-52850000D03*
X77200000Y-54750000D03*
X77200000Y-53800000D03*
X74800000Y-52850000D03*
X74800000Y-54750000D03*
G04 #@! TD*
D44*
G04 #@! TO.C,U7*
X109695000Y-21900000D03*
X109695000Y-27700000D03*
X110965000Y-21900000D03*
X110965000Y-27700000D03*
X112235000Y-21900000D03*
X112235000Y-27700000D03*
X113505000Y-21900000D03*
X113505000Y-27700000D03*
G04 #@! TD*
G04 #@! TO.C,U8*
X100695000Y-21900000D03*
X100695000Y-27700000D03*
X101965000Y-21900000D03*
X101965000Y-27700000D03*
X103235000Y-21900000D03*
X103235000Y-27700000D03*
X104505000Y-21900000D03*
X104505000Y-27700000D03*
G04 #@! TD*
D49*
G04 #@! TO.C,CN1*
X64360000Y-67200000D03*
X64360000Y-72600000D03*
X66900000Y-67200000D03*
X66900000Y-72600000D03*
X69440000Y-67200000D03*
X69440000Y-72600000D03*
G04 #@! TD*
D16*
G04 #@! TO.C,R62*
X70600000Y-49000000D03*
X72200000Y-49000000D03*
G04 #@! TD*
D11*
G04 #@! TO.C,*
X5000000Y-5000000D03*
G04 #@! TD*
G04 #@! TO.C,*
X135000000Y-5000000D03*
G04 #@! TD*
G04 #@! TO.C,*
X135000000Y-135000000D03*
G04 #@! TD*
D10*
G04 #@! TO.C,*
X14750000Y-91000000D03*
G04 #@! TD*
G04 #@! TO.C,*
X101500000Y-5250000D03*
G04 #@! TD*
G04 #@! TO.C,*
X45750000Y-15250000D03*
G04 #@! TD*
D50*
X27500000Y-76500000D03*
X59000000Y-67000000D03*
X52500000Y-68000000D03*
X53500000Y-34000000D03*
X117000000Y-29000000D03*
X103200000Y-30200000D03*
X69400000Y-76600000D03*
X69440000Y-75100000D03*
X75000000Y-76400000D03*
X75000000Y-75200000D03*
X27500000Y-75000000D03*
X53300000Y-29100000D03*
X53300000Y-27800000D03*
X72500000Y-28500000D03*
X72500000Y-30000000D03*
X9000000Y-123500000D03*
X10500000Y-123500000D03*
X12000000Y-123500000D03*
X9000000Y-125000000D03*
X10500000Y-125000000D03*
X12000000Y-125000000D03*
X12000000Y-126500000D03*
X10500000Y-126500000D03*
X9000000Y-126500000D03*
X85800000Y-28800000D03*
X85800000Y-27800000D03*
X58000000Y-34500000D03*
X60000000Y-56500000D03*
X61500000Y-56500000D03*
X21000000Y-33500000D03*
X19000000Y-33500000D03*
X17000000Y-33500000D03*
X13500000Y-27500000D03*
X13500000Y-29000000D03*
X13500000Y-30500000D03*
X13500000Y-32000000D03*
X14500000Y-33500000D03*
X77000000Y-65000000D03*
X81000000Y-65000000D03*
X84500000Y-65000000D03*
X120000000Y-89000000D03*
X120000000Y-92000000D03*
X48000000Y-80000000D03*
X38000000Y-80000000D03*
X32000000Y-80000000D03*
X26000000Y-80000000D03*
X48000000Y-82000000D03*
X48000000Y-84000000D03*
X28000000Y-88000000D03*
X30000000Y-87000000D03*
X34000000Y-87000000D03*
X39000000Y-87000000D03*
X20000000Y-88000000D03*
X20000000Y-91000000D03*
X15000000Y-89000000D03*
X22000000Y-84000000D03*
X15000000Y-78000000D03*
X60000000Y-52000000D03*
X61500000Y-52000000D03*
X61500000Y-53500000D03*
X61500000Y-55000000D03*
X60000000Y-55000000D03*
X60000000Y-53500000D03*
X65000000Y-52000000D03*
X65000000Y-53500000D03*
X65000000Y-55000000D03*
X65000000Y-56500000D03*
X66000000Y-46500000D03*
X67600000Y-46600000D03*
X67000000Y-48000000D03*
X67000000Y-49500000D03*
X98000000Y-32000000D03*
X98000000Y-34000000D03*
X76500000Y-32500000D03*
X79000000Y-32000000D03*
X81500000Y-32000000D03*
X85000000Y-32000000D03*
X78000000Y-35000000D03*
X78000000Y-37500000D03*
X80500000Y-37000000D03*
X83500000Y-37000000D03*
X87500000Y-37000000D03*
X92000000Y-37000000D03*
X95000000Y-38500000D03*
X95000000Y-41500000D03*
X101500000Y-32500000D03*
X105500000Y-32000000D03*
X120000000Y-39500000D03*
X120000000Y-42500000D03*
X117000000Y-36500000D03*
X113000000Y-37000000D03*
X109500000Y-37000000D03*
X106000000Y-37000000D03*
X103500000Y-37500000D03*
X123000000Y-32500000D03*
X104000000Y-34500000D03*
X122000000Y-23500000D03*
X124500000Y-23500000D03*
X122000000Y-26500000D03*
X124500000Y-26500000D03*
X117500000Y-70500000D03*
X117500000Y-72500000D03*
X127500000Y-72000000D03*
X127500000Y-62000000D03*
X127500000Y-58000000D03*
X127500000Y-54000000D03*
X127500000Y-50000000D03*
X127500000Y-46000000D03*
X128000000Y-40000000D03*
X127500000Y-33000000D03*
X125500000Y-42500000D03*
X120000000Y-64000000D03*
X120000000Y-66000000D03*
X113500000Y-72500000D03*
X95000000Y-63500000D03*
X95000000Y-65500000D03*
X73500000Y-68500000D03*
X72500000Y-70500000D03*
X73500000Y-72500000D03*
X71000000Y-72500000D03*
X71000000Y-68500000D03*
X45000000Y-64000000D03*
X45000000Y-66500000D03*
X49000000Y-68000000D03*
X51000000Y-70500000D03*
X42000000Y-72500000D03*
X46000000Y-72500000D03*
X51000000Y-72500000D03*
X29000000Y-68000000D03*
X33500000Y-68000000D03*
X37000000Y-67000000D03*
X37000000Y-70000000D03*
X29000000Y-70500000D03*
X29000000Y-73000000D03*
X33500000Y-73000000D03*
X37000000Y-73000000D03*
X39000000Y-72500000D03*
X26000000Y-68000000D03*
X24000000Y-70000000D03*
X26000000Y-73000000D03*
X23000000Y-73000000D03*
X17500000Y-71000000D03*
X20000000Y-72500000D03*
X18000000Y-26500000D03*
X20000000Y-26500000D03*
X22000000Y-26500000D03*
X22000000Y-28000000D03*
X22000000Y-24500000D03*
X20000000Y-22000000D03*
X20000000Y-20000000D03*
X20000000Y-18000000D03*
X30500000Y-90000000D03*
X34500000Y-90000000D03*
X39000000Y-90000000D03*
X45000000Y-91500000D03*
X45000000Y-89000000D03*
X55500000Y-90000000D03*
X59500000Y-90000000D03*
X63500000Y-90000000D03*
X70000000Y-89000000D03*
X70000000Y-91500000D03*
X80500000Y-90000000D03*
X84500000Y-90000000D03*
X88500000Y-90000000D03*
X95000000Y-89000000D03*
X95000000Y-91500000D03*
X105500000Y-90000000D03*
X109500000Y-90000000D03*
X113500000Y-90000000D03*
X120000000Y-113500000D03*
X120000000Y-116000000D03*
X117500000Y-121000000D03*
X125500000Y-118000000D03*
X127000000Y-121000000D03*
X123500000Y-121000000D03*
X100500000Y-115000000D03*
X105000000Y-115000000D03*
X109500000Y-115000000D03*
X95000000Y-113500000D03*
X95000000Y-116000000D03*
X93000000Y-121000000D03*
X101000000Y-121000000D03*
X105000000Y-121000000D03*
X109000000Y-121000000D03*
X112000000Y-121000000D03*
X112000000Y-117000000D03*
X109000000Y-118000000D03*
X105000000Y-118000000D03*
X101000000Y-118000000D03*
X75500000Y-115000000D03*
X80500000Y-115000000D03*
X85000000Y-115000000D03*
X70000000Y-113500000D03*
X70000000Y-116000000D03*
X68000000Y-121000000D03*
X76000000Y-121000000D03*
X80000000Y-121000000D03*
X84000000Y-121000000D03*
X87000000Y-121000000D03*
X84000000Y-118000000D03*
X80000000Y-118000000D03*
X76000000Y-118000000D03*
X50500000Y-115000000D03*
X55000000Y-115000000D03*
X59500000Y-115000000D03*
X45000000Y-113500000D03*
X45000000Y-116000000D03*
X43000000Y-121000000D03*
X51000000Y-121000000D03*
X55000000Y-121000000D03*
X59000000Y-121000000D03*
X62000000Y-121000000D03*
X59000000Y-118000000D03*
X55000000Y-118000000D03*
X51000000Y-118000000D03*
X47000000Y-118000000D03*
X25500000Y-115000000D03*
X29500000Y-115000000D03*
X33500000Y-115000000D03*
X18000000Y-121000000D03*
X22000000Y-121000000D03*
X26000000Y-121000000D03*
X31000000Y-121000000D03*
X37000000Y-121000000D03*
X35000000Y-118000000D03*
X26000000Y-118000000D03*
X22000000Y-118000000D03*
X127500000Y-116000000D03*
X127500000Y-110000000D03*
X127500000Y-104000000D03*
X127500000Y-97500000D03*
X127500000Y-91500000D03*
X125500000Y-92000000D03*
X126500000Y-80500000D03*
X127000000Y-83000000D03*
X128000000Y-87000000D03*
X51000000Y-80000000D03*
X57000000Y-80000000D03*
X73000000Y-80000000D03*
X53000000Y-84000000D03*
X63000000Y-80000000D03*
X68000000Y-80000000D03*
X73000000Y-84000000D03*
X64000000Y-87000000D03*
X59500000Y-87000000D03*
X55000000Y-87000000D03*
X53000000Y-88000000D03*
X48500000Y-47000000D03*
X50500000Y-47000000D03*
X63000000Y-37000000D03*
X65500000Y-34500000D03*
X59000000Y-36450000D03*
X57500000Y-46500000D03*
X59000000Y-46500000D03*
X59000000Y-48000000D03*
X57500000Y-48000000D03*
X57500000Y-40000000D03*
X59000000Y-40000000D03*
X62500000Y-40000000D03*
X54000000Y-59500000D03*
X52000000Y-61500000D03*
X57500000Y-60500000D03*
X59500000Y-60500000D03*
X104500000Y-16500000D03*
X104500000Y-14500000D03*
X2500000Y-15000000D03*
X2500000Y-20000000D03*
X2500000Y-25000000D03*
X2500000Y-30000000D03*
X2500000Y-35000000D03*
X2500000Y-40000000D03*
X2500000Y-45000000D03*
X2500000Y-50000000D03*
X2500000Y-55000000D03*
X2500000Y-60000000D03*
X2500000Y-65000000D03*
X2500000Y-70000000D03*
X2500000Y-75000000D03*
X2500000Y-80000000D03*
X2500000Y-85000000D03*
X2500000Y-90000000D03*
X2500000Y-95000000D03*
X2500000Y-100000000D03*
X2500000Y-105000000D03*
X2500000Y-110000000D03*
X2500000Y-115000000D03*
X2500000Y-120000000D03*
X2500000Y-125000000D03*
X15000000Y-137500000D03*
X20000000Y-137500000D03*
X25000000Y-137500000D03*
X30000000Y-137500000D03*
X35000000Y-137500000D03*
X40000000Y-137500000D03*
X45000000Y-137500000D03*
X50000000Y-137500000D03*
X55000000Y-137500000D03*
X60000000Y-137500000D03*
X65000000Y-137500000D03*
X70000000Y-137500000D03*
X75000000Y-137500000D03*
X80000000Y-137500000D03*
X85000000Y-137500000D03*
X90000000Y-137500000D03*
X95000000Y-137500000D03*
X100000000Y-137500000D03*
X105000000Y-137500000D03*
X110000000Y-137500000D03*
X115000000Y-137500000D03*
X120000000Y-137500000D03*
X125000000Y-137500000D03*
X137500000Y-125000000D03*
X137500000Y-120000000D03*
X137500000Y-115000000D03*
X137500000Y-110000000D03*
X137500000Y-105000000D03*
X137500000Y-100000000D03*
X137500000Y-95000000D03*
X137500000Y-90000000D03*
X137500000Y-85000000D03*
X137500000Y-80000000D03*
X137500000Y-75000000D03*
X137500000Y-70000000D03*
X137500000Y-65000000D03*
X137500000Y-60000000D03*
X137500000Y-55000000D03*
X137500000Y-50000000D03*
X137500000Y-45000000D03*
X137500000Y-40000000D03*
X137500000Y-35000000D03*
X137500000Y-30000000D03*
X137500000Y-25000000D03*
X137500000Y-20000000D03*
X137500000Y-15000000D03*
X125000000Y-2500000D03*
X120000000Y-2500000D03*
X115000000Y-2500000D03*
X110000000Y-2500000D03*
X105500000Y-2500000D03*
X97000000Y-2500000D03*
X15000000Y-2500000D03*
X20000000Y-2500000D03*
X25000000Y-2500000D03*
X30000000Y-2500000D03*
X35000000Y-2500000D03*
X40000000Y-2500000D03*
X45000000Y-2500000D03*
X50000000Y-2500000D03*
X67500000Y-2500000D03*
X70000000Y-2500000D03*
X52500000Y-2500000D03*
X7500000Y-15000000D03*
X7500000Y-20000000D03*
X7500000Y-25000000D03*
X7500000Y-30000000D03*
X7500000Y-35000000D03*
X6000000Y-125000000D03*
X6000000Y-120000000D03*
X6000000Y-115000000D03*
X6000000Y-110000000D03*
X6000000Y-105000000D03*
X6000000Y-100000000D03*
X6000000Y-95000000D03*
X6000000Y-90000000D03*
X6000000Y-80000000D03*
X6000000Y-85000000D03*
X6000000Y-75000000D03*
X15000000Y-132500000D03*
X20000000Y-132500000D03*
X25000000Y-132500000D03*
X30000000Y-132500000D03*
X35000000Y-132500000D03*
X40000000Y-132500000D03*
X45000000Y-132500000D03*
X50000000Y-132500000D03*
X55000000Y-132500000D03*
X60000000Y-132500000D03*
X65000000Y-132500000D03*
X70000000Y-132500000D03*
X75000000Y-132500000D03*
X80000000Y-132500000D03*
X85000000Y-132500000D03*
X90000000Y-132500000D03*
X95000000Y-132500000D03*
X100000000Y-132500000D03*
X105000000Y-132500000D03*
X110000000Y-132500000D03*
X115000000Y-132500000D03*
X120000000Y-132500000D03*
X125000000Y-132500000D03*
X132500000Y-15000000D03*
X132500000Y-20000000D03*
X132500000Y-25000000D03*
X125000000Y-7500000D03*
X125000000Y-12500000D03*
X127500000Y-15000000D03*
X120000000Y-7500000D03*
X120000000Y-12500000D03*
X105000000Y-5000000D03*
X97500000Y-5000000D03*
X97500000Y-7500000D03*
X95000000Y-7500000D03*
X95000000Y-10000000D03*
X97500000Y-10000000D03*
X67500000Y-5000000D03*
X70000000Y-5000000D03*
X30000000Y-7500000D03*
X35000000Y-7500000D03*
X40000000Y-7500000D03*
X45000000Y-7500000D03*
X50000000Y-7500000D03*
X52500000Y-7500000D03*
X52500000Y-12500000D03*
X50000000Y-12500000D03*
X40000000Y-12500000D03*
X35000000Y-12500000D03*
X30000000Y-12500000D03*
X15000000Y-7500000D03*
X15000000Y-12500000D03*
X70000000Y-47000000D03*
X15000000Y-94000000D03*
X19000000Y-94000000D03*
X23000000Y-94000000D03*
X27000000Y-94000000D03*
X30000000Y-93000000D03*
X33000000Y-93000000D03*
X36000000Y-93000000D03*
X40000000Y-93000000D03*
X42000000Y-94000000D03*
X44000000Y-94000000D03*
X48000000Y-94000000D03*
X52000000Y-94000000D03*
X55000000Y-93000000D03*
X58000000Y-93000000D03*
X61000000Y-93000000D03*
X65000000Y-93000000D03*
X67000000Y-94000000D03*
X70000000Y-94000000D03*
X73000000Y-94000000D03*
X77000000Y-94000000D03*
X80000000Y-93000000D03*
X83000000Y-93000000D03*
X86000000Y-93000000D03*
X90000000Y-93000000D03*
X92000000Y-94000000D03*
X94000000Y-94000000D03*
X98000000Y-94000000D03*
X102000000Y-94000000D03*
X105000000Y-93000000D03*
X108000000Y-93000000D03*
X111000000Y-93000000D03*
X115000000Y-93000000D03*
X116000000Y-95000000D03*
X119000000Y-96000000D03*
X121000000Y-96000000D03*
X121000000Y-98000000D03*
X121000000Y-102000000D03*
X121000000Y-106000000D03*
X121000000Y-110000000D03*
X120000000Y-111000000D03*
X118000000Y-111000000D03*
X114000000Y-111000000D03*
X110000000Y-112000000D03*
X106000000Y-112000000D03*
X102000000Y-112000000D03*
X99000000Y-112000000D03*
X97000000Y-111000000D03*
X93000000Y-111000000D03*
X89000000Y-111000000D03*
X85000000Y-112000000D03*
X82000000Y-112000000D03*
X78000000Y-112000000D03*
X75000000Y-112000000D03*
X73000000Y-111000000D03*
X69000000Y-111000000D03*
X65000000Y-111000000D03*
X61000000Y-111000000D03*
X60000000Y-112000000D03*
X58000000Y-112000000D03*
X54000000Y-112000000D03*
X50000000Y-112000000D03*
X48000000Y-111000000D03*
X44000000Y-111000000D03*
X40000000Y-111000000D03*
X36000000Y-111000000D03*
X35000000Y-112000000D03*
X31000000Y-112000000D03*
X27000000Y-112000000D03*
X23000000Y-112000000D03*
X31000000Y-44000000D03*
X35000000Y-44000000D03*
X39000000Y-44000000D03*
X41000000Y-44000000D03*
X42000000Y-46000000D03*
X44000000Y-48000000D03*
X44000000Y-53000000D03*
X44000000Y-58000000D03*
X43000000Y-61000000D03*
X39000000Y-61000000D03*
X35000000Y-62000000D03*
X29000000Y-62000000D03*
X23000000Y-47500000D03*
X25000000Y-50000000D03*
X25000000Y-54000000D03*
X25750000Y-47250000D03*
X31000000Y-46000000D03*
X62000000Y-117000000D03*
X37000000Y-117000000D03*
X87000000Y-117000000D03*
X23000000Y-81000000D03*
X44000000Y-80000000D03*
X28000000Y-84000000D03*
X76000000Y-80000000D03*
X78000000Y-84000000D03*
X78000000Y-88000000D03*
X80000000Y-87000000D03*
X85000000Y-87000000D03*
X90000000Y-87000000D03*
X98000000Y-84000000D03*
X98000000Y-80000000D03*
X93000000Y-80000000D03*
X87000000Y-80000000D03*
X82000000Y-80000000D03*
X101000000Y-80000000D03*
X103000000Y-84000000D03*
X103000000Y-88000000D03*
X105000000Y-87000000D03*
X110000000Y-87000000D03*
X115000000Y-87000000D03*
X123000000Y-84000000D03*
X123000000Y-80000000D03*
X118000000Y-80000000D03*
X112000000Y-80000000D03*
X107000000Y-80000000D03*
X97000000Y-121000000D03*
X72000000Y-121000000D03*
X120000000Y-121000000D03*
X47000000Y-121000000D03*
X31000000Y-118000000D03*
X15000000Y-113000000D03*
X17000000Y-112000000D03*
X49000000Y-61000000D03*
X51000000Y-58000000D03*
X46000000Y-56000000D03*
X49000000Y-54000000D03*
X33000000Y-50000000D03*
X33000000Y-56000000D03*
X39000000Y-56000000D03*
X39000000Y-50000000D03*
X60000000Y-83000000D03*
X65000000Y-83000000D03*
X41000000Y-83000000D03*
X35000000Y-83000000D03*
X84000000Y-83000000D03*
X90000000Y-83000000D03*
X109000000Y-83000000D03*
X115000000Y-83000000D03*
X20000000Y-100000000D03*
X27500000Y-100000000D03*
X35000000Y-100000000D03*
X42500000Y-100000000D03*
X50000000Y-100000000D03*
X57500000Y-100000000D03*
X65000000Y-100000000D03*
X72500000Y-100000000D03*
X80000000Y-100000000D03*
X87500000Y-100000000D03*
X95000000Y-100000000D03*
X102500000Y-100000000D03*
X110000000Y-100000000D03*
X117500000Y-100000000D03*
X117500000Y-105000000D03*
X110000000Y-105000000D03*
X102500000Y-105000000D03*
X95000000Y-105000000D03*
X87500000Y-105000000D03*
X80000000Y-105000000D03*
X72500000Y-105000000D03*
X65000000Y-105000000D03*
X57500000Y-105000000D03*
X50000000Y-105000000D03*
X42500000Y-105000000D03*
X35000000Y-105000000D03*
X27500000Y-105000000D03*
X20000000Y-105000000D03*
X15000000Y-103000000D03*
X8500000Y-131500000D03*
X9500000Y-133500000D03*
X9500000Y-135500000D03*
X9500000Y-137500000D03*
X6500000Y-130500000D03*
X4500000Y-130500000D03*
X2500000Y-130500000D03*
X131500000Y-131500000D03*
X133500000Y-130500000D03*
X135500000Y-130500000D03*
X137500000Y-130500000D03*
X130500000Y-133500000D03*
X130500000Y-135500000D03*
X130500000Y-137500000D03*
X131500000Y-8500000D03*
X133500000Y-9500000D03*
X135500000Y-9500000D03*
X137500000Y-9500000D03*
X130500000Y-6500000D03*
X130500000Y-4500000D03*
X130500000Y-2500000D03*
X8500000Y-8500000D03*
X9500000Y-6500000D03*
X9500000Y-4500000D03*
X9500000Y-2500000D03*
X6500000Y-9500000D03*
X4500000Y-9500000D03*
X2500000Y-9500000D03*
X72000000Y-46000000D03*
X77000000Y-46000000D03*
X82000000Y-46000000D03*
X87000000Y-46000000D03*
X92000000Y-46000000D03*
X97000000Y-46000000D03*
X102000000Y-46000000D03*
X107000000Y-46000000D03*
X112000000Y-46000000D03*
X121000000Y-46000000D03*
X121000000Y-50000000D03*
X121000000Y-55000000D03*
X121000000Y-60000000D03*
X119000000Y-61000000D03*
X114000000Y-61000000D03*
X110000000Y-62000000D03*
X105000000Y-62000000D03*
X100000000Y-62000000D03*
X98000000Y-61000000D03*
X93000000Y-61000000D03*
X88000000Y-61000000D03*
X85000000Y-62000000D03*
X81000000Y-62000000D03*
X77000000Y-62000000D03*
X82000000Y-51000000D03*
X87000000Y-51000000D03*
X92000000Y-51000000D03*
X97000000Y-51000000D03*
X102000000Y-51000000D03*
X107000000Y-51000000D03*
X112000000Y-51000000D03*
X117000000Y-51000000D03*
X117000000Y-56000000D03*
X112000000Y-56000000D03*
X107000000Y-56000000D03*
X102000000Y-56000000D03*
X97000000Y-56000000D03*
X92000000Y-56000000D03*
X87000000Y-56000000D03*
X82000000Y-56000000D03*
X88500000Y-72500000D03*
X84500000Y-72500000D03*
X80500000Y-72500000D03*
X76500000Y-72500000D03*
X76500000Y-68000000D03*
X80500000Y-68000000D03*
X84500000Y-68000000D03*
X84500000Y-70000000D03*
X80500000Y-70000000D03*
X76500000Y-70000000D03*
X109500000Y-72500000D03*
X105500000Y-72500000D03*
X101500000Y-72500000D03*
X97500000Y-72500000D03*
X93500000Y-72500000D03*
X92000000Y-70500000D03*
X97500000Y-68000000D03*
X101500000Y-68000000D03*
X105500000Y-68000000D03*
X109500000Y-68000000D03*
X109500000Y-70000000D03*
X105500000Y-70000000D03*
X101500000Y-70000000D03*
X97500000Y-70000000D03*
X121500000Y-72500000D03*
X125500000Y-72500000D03*
X125500000Y-67500000D03*
X123000000Y-68500000D03*
X81500000Y-34500000D03*
X85000000Y-34500000D03*
X113500000Y-34500000D03*
X108500000Y-34000000D03*
X66500000Y-32000000D03*
X63500000Y-32500000D03*
X72500000Y-34000000D03*
X55500000Y-32000000D03*
X44000000Y-43500000D03*
X45500000Y-44500000D03*
X14500000Y-73750000D03*
X113250000Y-64500000D03*
X112000000Y-67000000D03*
X78500000Y-23000000D03*
X87750000Y-19750000D03*
X110500000Y-25750000D03*
X55750000Y-14000000D03*
X55750000Y-16250000D03*
X51750000Y-25750000D03*
X50500000Y-24000000D03*
X40500000Y-34500000D03*
X49000000Y-32000000D03*
X55500000Y-11500000D03*
X68500000Y-11500000D03*
X101965000Y-23565000D03*
X112200000Y-25800000D03*
X69400000Y-61000000D03*
X65400000Y-61000000D03*
X63200000Y-52000000D03*
X63400000Y-60400000D03*
X106000000Y-21000000D03*
X108000000Y-16500000D03*
X52500000Y-52000000D03*
X113500000Y-45000000D03*
X126000000Y-26500000D03*
X79000000Y-21500000D03*
X79000000Y-15000000D03*
X62200000Y-25800000D03*
X67200000Y-25800000D03*
X30000000Y-20000000D03*
X30000000Y-16500000D03*
X13500000Y-36000000D03*
X9500000Y-36000000D03*
X40000000Y-40500000D03*
X40000000Y-43000000D03*
X53500000Y-40000000D03*
X50000000Y-46000000D03*
X78000000Y-40000000D03*
X78000000Y-43000000D03*
X103000000Y-43000000D03*
X103000000Y-40000000D03*
X125500000Y-44500000D03*
X121000000Y-44500000D03*
X112000000Y-65000000D03*
X112000000Y-62000000D03*
X87000000Y-65000000D03*
X87000000Y-62000000D03*
X59000000Y-65000000D03*
X59000000Y-62000000D03*
X37000000Y-65000000D03*
X37000000Y-62000000D03*
X22000000Y-80000000D03*
X25500000Y-65000000D03*
X28000000Y-90000000D03*
X28000000Y-93000000D03*
X53000000Y-93000000D03*
X53000000Y-90000000D03*
X78000000Y-93000000D03*
X78000000Y-90000000D03*
X103000000Y-93000000D03*
X103000000Y-90000000D03*
X120000000Y-94000000D03*
X125000000Y-94000000D03*
X112000000Y-112000000D03*
X112000000Y-115000000D03*
X87000000Y-115000000D03*
X87000000Y-112000000D03*
X62000000Y-115000000D03*
X62000000Y-112000000D03*
X37000000Y-115000000D03*
X37000000Y-112000000D03*
X29800000Y-27600000D03*
X28400000Y-23800000D03*
X56750000Y-37250000D03*
X61500000Y-37500000D03*
X61899999Y-35350001D03*
X53000000Y-38500000D03*
X66750000Y-10000000D03*
X58750000Y-10000000D03*
X59750000Y-8500000D03*
X65750000Y-8500000D03*
M02*
