M48
;DRILL file {KiCad (5.0.0)} date 09/01/18 12:46:11
;FORMAT={3:3/ absolute / metric / suppress leading zeros}
FMAT,2
METRIC,TZ
T1C0.400
T2C0.450
T3C0.500
T4C1.000
T5C1.200
T6C1.300
%
G90
G05
M71
T1
X2500Y-9500
X2500Y-15000
X2500Y-20000
X2500Y-25000
X2500Y-30000
X2500Y-35000
X2500Y-40000
X2500Y-45000
X2500Y-50000
X2500Y-55000
X2500Y-60000
X2500Y-65000
X2500Y-70000
X2500Y-75000
X2500Y-80000
X2500Y-85000
X2500Y-90000
X2500Y-95000
X2500Y-100000
X2500Y-105000
X2500Y-110000
X2500Y-115000
X2500Y-120000
X2500Y-125000
X2500Y-130500
X4500Y-9500
X4500Y-130500
X6000Y-75000
X6000Y-80000
X6000Y-85000
X6000Y-90000
X6000Y-95000
X6000Y-100000
X6000Y-105000
X6000Y-110000
X6000Y-115000
X6000Y-120000
X6000Y-125000
X6500Y-9500
X6500Y-130500
X7500Y-15000
X7500Y-20000
X7500Y-25000
X7500Y-30000
X7500Y-35000
X8500Y-8500
X8500Y-131500
X9000Y-123500
X9000Y-125000
X9000Y-126500
X9500Y-2500
X9500Y-4500
X9500Y-6500
X9500Y-36000
X9500Y-133500
X9500Y-135500
X9500Y-137500
X10500Y-123500
X10500Y-125000
X10500Y-126500
X12000Y-123500
X12000Y-125000
X12000Y-126500
X13500Y-27500
X13500Y-29000
X13500Y-30500
X13500Y-32000
X13500Y-36000
X14500Y-33500
X14500Y-73750
X15000Y-2500
X15000Y-7500
X15000Y-12500
X15000Y-78000
X15000Y-89000
X15000Y-94000
X15000Y-103000
X15000Y-113000
X15000Y-132500
X15000Y-137500
X17000Y-33500
X17000Y-112000
X17500Y-71000
X18000Y-26500
X18000Y-121000
X19000Y-33500
X19000Y-94000
X20000Y-2500
X20000Y-18000
X20000Y-20000
X20000Y-22000
X20000Y-26500
X20000Y-72500
X20000Y-88000
X20000Y-91000
X20000Y-100000
X20000Y-105000
X20000Y-132500
X20000Y-137500
X21000Y-33500
X22000Y-24500
X22000Y-26500
X22000Y-28000
X22000Y-80000
X22000Y-84000
X22000Y-118000
X22000Y-121000
X23000Y-47500
X23000Y-73000
X23000Y-81000
X23000Y-94000
X23000Y-112000
X24000Y-70000
X25000Y-2500
X25000Y-50000
X25000Y-54000
X25000Y-132500
X25000Y-137500
X25500Y-65000
X25500Y-115000
X25750Y-47250
X26000Y-68000
X26000Y-73000
X26000Y-80000
X26000Y-118000
X26000Y-121000
X27000Y-94000
X27000Y-112000
X27500Y-75000
X27500Y-76500
X27500Y-100000
X27500Y-105000
X28000Y-84000
X28000Y-88000
X28000Y-90000
X28000Y-93000
X28400Y-23800
X29000Y-62000
X29000Y-68000
X29000Y-70500
X29000Y-73000
X29500Y-115000
X29800Y-27600
X30000Y-2500
X30000Y-7500
X30000Y-12500
X30000Y-16500
X30000Y-20000
X30000Y-87000
X30000Y-93000
X30000Y-132500
X30000Y-137500
X30500Y-90000
X31000Y-44000
X31000Y-46000
X31000Y-112000
X31000Y-118000
X31000Y-121000
X32000Y-80000
X33000Y-50000
X33000Y-56000
X33000Y-93000
X33500Y-68000
X33500Y-73000
X33500Y-115000
X34000Y-87000
X34500Y-90000
X35000Y-2500
X35000Y-7500
X35000Y-12500
X35000Y-44000
X35000Y-62000
X35000Y-83000
X35000Y-100000
X35000Y-105000
X35000Y-112000
X35000Y-118000
X35000Y-132500
X35000Y-137500
X36000Y-93000
X36000Y-111000
X37000Y-62000
X37000Y-65000
X37000Y-67000
X37000Y-70000
X37000Y-73000
X37000Y-112000
X37000Y-115000
X37000Y-117000
X37000Y-121000
X38000Y-80000
X39000Y-44000
X39000Y-50000
X39000Y-56000
X39000Y-61000
X39000Y-72500
X39000Y-87000
X39000Y-90000
X40000Y-2500
X40000Y-7500
X40000Y-12500
X40000Y-40500
X40000Y-43000
X40000Y-93000
X40000Y-111000
X40000Y-132500
X40000Y-137500
X40500Y-34500
X41000Y-44000
X41000Y-83000
X42000Y-46000
X42000Y-72500
X42000Y-94000
X42500Y-100000
X42500Y-105000
X43000Y-61000
X43000Y-121000
X44000Y-43500
X44000Y-48000
X44000Y-53000
X44000Y-58000
X44000Y-80000
X44000Y-94000
X44000Y-111000
X45000Y-2500
X45000Y-7500
X45000Y-64000
X45000Y-66500
X45000Y-89000
X45000Y-91500
X45000Y-113500
X45000Y-116000
X45000Y-132500
X45000Y-137500
X45500Y-44500
X46000Y-56000
X46000Y-72500
X47000Y-118000
X47000Y-121000
X48000Y-80000
X48000Y-82000
X48000Y-84000
X48000Y-94000
X48000Y-111000
X48500Y-47000
X49000Y-32000
X49000Y-54000
X49000Y-61000
X49000Y-68000
X50000Y-2500
X50000Y-7500
X50000Y-12500
X50000Y-46000
X50000Y-100000
X50000Y-105000
X50000Y-112000
X50000Y-132500
X50000Y-137500
X50500Y-24000
X50500Y-47000
X50500Y-115000
X51000Y-58000
X51000Y-70500
X51000Y-72500
X51000Y-80000
X51000Y-118000
X51000Y-121000
X51750Y-25750
X52000Y-61500
X52000Y-94000
X52500Y-2500
X52500Y-7500
X52500Y-12500
X52500Y-52000
X52500Y-68000
X53000Y-38500
X53000Y-84000
X53000Y-88000
X53000Y-90000
X53000Y-93000
X53300Y-27800
X53300Y-29100
X53500Y-34000
X53500Y-40000
X54000Y-59500
X54000Y-112000
X55000Y-87000
X55000Y-93000
X55000Y-115000
X55000Y-118000
X55000Y-121000
X55000Y-132500
X55000Y-137500
X55500Y-11500
X55500Y-32000
X55500Y-90000
X55750Y-14000
X55750Y-16250
X56750Y-37250
X57000Y-80000
X57500Y-40000
X57500Y-46500
X57500Y-48000
X57500Y-60500
X57500Y-100000
X57500Y-105000
X58000Y-34500
X58000Y-93000
X58000Y-112000
X58750Y-10000
X59000Y-36450
X59000Y-40000
X59000Y-46500
X59000Y-48000
X59000Y-62000
X59000Y-65000
X59000Y-67000
X59000Y-118000
X59000Y-121000
X59500Y-60500
X59500Y-87000
X59500Y-90000
X59500Y-115000
X59750Y-8500
X60000Y-52000
X60000Y-53500
X60000Y-55000
X60000Y-56500
X60000Y-83000
X60000Y-112000
X60000Y-132500
X60000Y-137500
X61000Y-93000
X61000Y-111000
X61500Y-37500
X61500Y-52000
X61500Y-53500
X61500Y-55000
X61500Y-56500
X61900Y-35350
X62000Y-112000
X62000Y-115000
X62000Y-117000
X62000Y-121000
X62200Y-25800
X62500Y-40000
X63000Y-37000
X63000Y-80000
X63200Y-52000
X63400Y-60400
X63500Y-32500
X63500Y-90000
X64000Y-87000
X65000Y-52000
X65000Y-53500
X65000Y-55000
X65000Y-56500
X65000Y-83000
X65000Y-93000
X65000Y-100000
X65000Y-105000
X65000Y-111000
X65000Y-132500
X65000Y-137500
X65400Y-61000
X65500Y-34500
X65750Y-8500
X66000Y-46500
X66500Y-32000
X66750Y-10000
X67000Y-48000
X67000Y-49500
X67000Y-94000
X67200Y-25800
X67500Y-2500
X67500Y-5000
X67600Y-46600
X68000Y-80000
X68000Y-121000
X68500Y-11500
X69000Y-111000
X69400Y-61000
X69400Y-76600
X69440Y-75100
X70000Y-2500
X70000Y-5000
X70000Y-47000
X70000Y-89000
X70000Y-91500
X70000Y-94000
X70000Y-113500
X70000Y-116000
X70000Y-132500
X70000Y-137500
X71000Y-68500
X71000Y-72500
X72000Y-46000
X72000Y-121000
X72500Y-28500
X72500Y-30000
X72500Y-34000
X72500Y-70500
X72500Y-100000
X72500Y-105000
X73000Y-80000
X73000Y-84000
X73000Y-94000
X73000Y-111000
X73500Y-68500
X73500Y-72500
X75000Y-75200
X75000Y-76400
X75000Y-112000
X75000Y-132500
X75000Y-137500
X75500Y-115000
X76000Y-80000
X76000Y-118000
X76000Y-121000
X76500Y-32500
X76500Y-68000
X76500Y-70000
X76500Y-72500
X77000Y-46000
X77000Y-62000
X77000Y-65000
X77000Y-94000
X78000Y-35000
X78000Y-37500
X78000Y-40000
X78000Y-43000
X78000Y-84000
X78000Y-88000
X78000Y-90000
X78000Y-93000
X78000Y-112000
X78500Y-23000
X79000Y-15000
X79000Y-21500
X79000Y-32000
X80000Y-87000
X80000Y-93000
X80000Y-100000
X80000Y-105000
X80000Y-118000
X80000Y-121000
X80000Y-132500
X80000Y-137500
X80500Y-37000
X80500Y-68000
X80500Y-70000
X80500Y-72500
X80500Y-90000
X80500Y-115000
X81000Y-62000
X81000Y-65000
X81500Y-32000
X81500Y-34500
X82000Y-46000
X82000Y-51000
X82000Y-56000
X82000Y-80000
X82000Y-112000
X83000Y-93000
X83500Y-37000
X84000Y-83000
X84000Y-118000
X84000Y-121000
X84500Y-65000
X84500Y-68000
X84500Y-70000
X84500Y-72500
X84500Y-90000
X85000Y-32000
X85000Y-34500
X85000Y-62000
X85000Y-87000
X85000Y-112000
X85000Y-115000
X85000Y-132500
X85000Y-137500
X85800Y-27800
X85800Y-28800
X86000Y-93000
X87000Y-46000
X87000Y-51000
X87000Y-56000
X87000Y-62000
X87000Y-65000
X87000Y-80000
X87000Y-112000
X87000Y-115000
X87000Y-117000
X87000Y-121000
X87500Y-37000
X87500Y-100000
X87500Y-105000
X87750Y-19750
X88000Y-61000
X88500Y-72500
X88500Y-90000
X89000Y-111000
X90000Y-83000
X90000Y-87000
X90000Y-93000
X90000Y-132500
X90000Y-137500
X92000Y-37000
X92000Y-46000
X92000Y-51000
X92000Y-56000
X92000Y-70500
X92000Y-94000
X93000Y-61000
X93000Y-80000
X93000Y-111000
X93000Y-121000
X93500Y-72500
X94000Y-94000
X95000Y-7500
X95000Y-10000
X95000Y-38500
X95000Y-41500
X95000Y-63500
X95000Y-65500
X95000Y-89000
X95000Y-91500
X95000Y-100000
X95000Y-105000
X95000Y-113500
X95000Y-116000
X95000Y-132500
X95000Y-137500
X97000Y-2500
X97000Y-46000
X97000Y-51000
X97000Y-56000
X97000Y-111000
X97000Y-121000
X97500Y-5000
X97500Y-7500
X97500Y-10000
X97500Y-68000
X97500Y-70000
X97500Y-72500
X98000Y-32000
X98000Y-34000
X98000Y-61000
X98000Y-80000
X98000Y-84000
X98000Y-94000
X99000Y-112000
X100000Y-62000
X100000Y-132500
X100000Y-137500
X100500Y-115000
X101000Y-80000
X101000Y-118000
X101000Y-121000
X101500Y-32500
X101500Y-68000
X101500Y-70000
X101500Y-72500
X101965Y-23565
X102000Y-46000
X102000Y-51000
X102000Y-56000
X102000Y-94000
X102000Y-112000
X102500Y-100000
X102500Y-105000
X103000Y-40000
X103000Y-43000
X103000Y-84000
X103000Y-88000
X103000Y-90000
X103000Y-93000
X103200Y-30200
X103500Y-37500
X104000Y-34500
X104500Y-14500
X104500Y-16500
X105000Y-5000
X105000Y-62000
X105000Y-87000
X105000Y-93000
X105000Y-115000
X105000Y-118000
X105000Y-121000
X105000Y-132500
X105000Y-137500
X105500Y-2500
X105500Y-32000
X105500Y-68000
X105500Y-70000
X105500Y-72500
X105500Y-90000
X106000Y-21000
X106000Y-37000
X106000Y-112000
X107000Y-46000
X107000Y-51000
X107000Y-56000
X107000Y-80000
X108000Y-16500
X108000Y-93000
X108500Y-34000
X109000Y-83000
X109000Y-118000
X109000Y-121000
X109500Y-37000
X109500Y-68000
X109500Y-70000
X109500Y-72500
X109500Y-90000
X109500Y-115000
X110000Y-2500
X110000Y-62000
X110000Y-87000
X110000Y-100000
X110000Y-105000
X110000Y-112000
X110000Y-132500
X110000Y-137500
X110500Y-25750
X111000Y-93000
X112000Y-46000
X112000Y-51000
X112000Y-56000
X112000Y-62000
X112000Y-65000
X112000Y-67000
X112000Y-80000
X112000Y-112000
X112000Y-115000
X112000Y-117000
X112000Y-121000
X112200Y-25800
X113000Y-37000
X113250Y-64500
X113500Y-34500
X113500Y-45000
X113500Y-72500
X113500Y-90000
X114000Y-61000
X114000Y-111000
X115000Y-2500
X115000Y-83000
X115000Y-87000
X115000Y-93000
X115000Y-132500
X115000Y-137500
X116000Y-95000
X117000Y-29000
X117000Y-36500
X117000Y-51000
X117000Y-56000
X117500Y-70500
X117500Y-72500
X117500Y-100000
X117500Y-105000
X117500Y-121000
X118000Y-80000
X118000Y-111000
X119000Y-61000
X119000Y-96000
X120000Y-2500
X120000Y-7500
X120000Y-12500
X120000Y-39500
X120000Y-42500
X120000Y-64000
X120000Y-66000
X120000Y-89000
X120000Y-92000
X120000Y-94000
X120000Y-111000
X120000Y-113500
X120000Y-116000
X120000Y-121000
X120000Y-132500
X120000Y-137500
X121000Y-44500
X121000Y-46000
X121000Y-50000
X121000Y-55000
X121000Y-60000
X121000Y-96000
X121000Y-98000
X121000Y-102000
X121000Y-106000
X121000Y-110000
X121500Y-72500
X122000Y-23500
X122000Y-26500
X123000Y-32500
X123000Y-68500
X123000Y-80000
X123000Y-84000
X123500Y-121000
X124500Y-23500
X124500Y-26500
X125000Y-2500
X125000Y-7500
X125000Y-12500
X125000Y-94000
X125000Y-132500
X125000Y-137500
X125500Y-42500
X125500Y-44500
X125500Y-67500
X125500Y-72500
X125500Y-92000
X125500Y-118000
X126000Y-26500
X126500Y-80500
X127000Y-83000
X127000Y-121000
X127500Y-15000
X127500Y-33000
X127500Y-46000
X127500Y-50000
X127500Y-54000
X127500Y-58000
X127500Y-62000
X127500Y-72000
X127500Y-91500
X127500Y-97500
X127500Y-104000
X127500Y-110000
X127500Y-116000
X128000Y-40000
X128000Y-87000
X130500Y-2500
X130500Y-4500
X130500Y-6500
X130500Y-133500
X130500Y-135500
X130500Y-137500
X131500Y-8500
X131500Y-131500
X132500Y-15000
X132500Y-20000
X132500Y-25000
X133500Y-9500
X133500Y-130500
X135500Y-9500
X135500Y-130500
X137500Y-9500
X137500Y-15000
X137500Y-20000
X137500Y-25000
X137500Y-30000
X137500Y-35000
X137500Y-40000
X137500Y-45000
X137500Y-50000
X137500Y-55000
X137500Y-60000
X137500Y-65000
X137500Y-70000
X137500Y-75000
X137500Y-80000
X137500Y-85000
X137500Y-90000
X137500Y-95000
X137500Y-100000
X137500Y-105000
X137500Y-110000
X137500Y-115000
X137500Y-120000
X137500Y-125000
X137500Y-130500
T4
X87750Y-5500
X92250Y-5500
X75750Y-5500
X80250Y-5500
T5
X107100Y-6500
X107750Y-14000
X112250Y-14000
X112900Y-6500
T6
X74500Y-3000
X81500Y-3000
X86500Y-3000
X93500Y-3000
T2
X56400Y-5675G85X56400Y-6225
G05
X63600Y-5675G85X63600Y-6225
G05
T3
X56400Y-2050G85X56400Y-2950
G05
X63600Y-2050G85X63600Y-2950
G05
T4
X20100Y-10250G85X20100Y-12250
G05
X26000Y-8200G85X24000Y-8200
G05
X26250Y-14200G85X23750Y-14200
G05
T0
M30
